# Blender v2.79 (sub 0) OBJ File: ''
# www.blender.org
mtllib 596DoorDownHandle.mtl
o 596.002
v 0.059277 0.024875 -0.004142
v 0.059277 0.024875 -0.022642
v 0.059277 0.007875 -0.022642
v 0.059277 0.007875 -0.004142
v 0.057777 0.024875 -0.002642
v 0.058124 0.026000 -0.002483
v 0.059270 0.026000 -0.002858
v 0.058902 0.024875 -0.003017
v -0.073569 0.026000 -0.002483
v -0.074610 0.026375 -0.002004
v 0.059165 0.026375 -0.002004
v 0.078902 0.026000 0.005671
v 0.078902 0.026000 -0.022642
v 0.077777 0.026375 -0.022642
v 0.077777 0.026375 0.005108
v 0.076277 0.026375 0.006608
v 0.077402 0.026375 0.006233
v 0.060374 0.026375 -0.002379
v -0.092848 0.026000 0.007171
v -0.093223 0.024875 0.007358
v 0.077777 0.024875 0.007358
v 0.077402 0.026000 0.007171
v 0.079277 0.007875 0.005858
v 0.079277 0.007875 -0.022642
v 0.079277 0.024875 -0.022642
v 0.079277 0.024875 0.005858
v 0.078527 0.026000 0.006795
v 0.078902 0.024875 0.006983
v 0.059652 0.026000 -0.003983
v 0.059652 0.026000 -0.022642
v -0.091723 0.026375 0.006608
v 0.078902 0.007875 0.006983
v 0.060777 0.026375 -0.022642
v 0.060777 0.026375 -0.003504
v -0.074348 0.024875 -0.003017
v -0.073223 0.024875 -0.002642
v -0.073223 0.007875 -0.002642
v -0.074348 0.007875 -0.003017
v 0.058902 0.007875 -0.003017
v 0.057777 0.007875 -0.002642
v -0.074723 0.024875 -0.022642
v -0.074723 0.024875 -0.004142
v -0.074723 0.007875 -0.004142
v -0.074723 0.007875 -0.022642
v -0.074716 0.026000 -0.002858
v -0.094348 0.026000 0.005671
v -0.093223 0.026375 0.005108
v -0.093223 0.026375 -0.022642
v -0.094348 0.026000 -0.022642
v -0.075820 0.026375 -0.002379
v -0.092848 0.026375 0.006233
v -0.094723 0.007875 0.005858
v -0.094723 0.024875 0.005858
v -0.094723 0.024875 -0.022642
v -0.094723 0.007875 -0.022642
v -0.094348 0.024875 0.006983
v -0.093973 0.026000 0.006795
v -0.075098 0.026000 -0.022642
v -0.075098 0.026000 -0.003983
v -0.094348 0.007875 0.006983
v -0.076223 0.026375 -0.022642
v -0.076223 0.026375 -0.003504
v 0.058124 0.006750 -0.002483
v -0.073569 0.006750 -0.002483
v -0.093223 0.007875 0.007358
v 0.077777 0.007875 0.007358
v -0.092848 0.006750 0.007171
v -0.091723 0.006375 0.006608
v 0.076277 0.006375 0.006608
v 0.077402 0.006750 0.007171
v 0.059270 0.006750 -0.002858
v 0.059165 0.006375 -0.002004
v -0.074610 0.006375 -0.002004
v 0.078902 0.006750 0.005671
v 0.077777 0.006375 0.005108
v 0.077777 0.006375 -0.022642
v 0.078902 0.006750 -0.022642
v 0.060374 0.006375 -0.002379
v 0.077402 0.006375 0.006233
v 0.078527 0.006750 0.006795
v 0.059652 0.006750 -0.022642
v 0.059652 0.006750 -0.003983
v 0.060777 0.006375 -0.022642
v 0.060777 0.006375 -0.003504
v -0.074716 0.006750 -0.002858
v -0.094348 0.006750 0.005671
v -0.094348 0.006750 -0.022642
v -0.093223 0.006375 -0.022642
v -0.093223 0.006375 0.005108
v -0.092848 0.006375 0.006233
v -0.075820 0.006375 -0.002379
v -0.093973 0.006750 0.006795
v -0.075098 0.006750 -0.003983
v -0.075098 0.006750 -0.022642
v -0.076223 0.006375 -0.022642
v -0.076223 0.006375 -0.003504
vt 0.000000 0.000000
vt 0.000000 0.000000
vt 0.000000 0.000000
vt 0.000000 0.000000
vt 0.000000 0.000000
vt 0.000000 0.000000
vt 0.000000 0.000000
vt 0.000000 0.000000
vt 0.000000 0.000000
vt 0.000000 0.000000
vt 0.000000 0.000000
vt 0.000000 0.000000
vt 0.000000 0.000000
vt 0.000000 0.000000
vt 0.000000 0.000000
vt 0.000000 0.000000
vt 0.000000 0.000000
vt 0.000000 0.000000
vt 0.000000 0.000000
vt 0.000000 0.000000
vt 0.000000 0.000000
vt 0.000000 0.000000
vt 0.000000 0.000000
vt 0.000000 0.000000
vt 0.000000 0.000000
vt 0.000000 0.000000
vt 0.000000 0.000000
vt 0.000000 0.000000
vt 0.000000 0.000000
vt 0.000000 0.000000
vt 0.000000 0.000000
vt 0.000000 0.000000
vt 0.000000 0.000000
vt 0.000000 0.000000
vt 0.000000 0.000000
vt 0.000000 0.000000
vt 0.000000 0.000000
vt 0.000000 0.000000
vt 0.000000 0.000000
vt 0.000000 0.000000
vt 0.000000 0.000000
vt 0.000000 0.000000
vt 0.000000 0.000000
vt 0.000000 0.000000
vt 0.000000 0.000000
vt 0.000000 0.000000
vt 0.000000 0.000000
vt 0.000000 0.000000
vt 0.000000 0.000000
vt 0.000000 0.000000
vt 0.000000 0.000000
vt 0.000000 0.000000
vt 0.000000 0.000000
vt 0.000000 0.000000
vt 0.000000 0.000000
vt 0.000000 0.000000
vt 0.000000 0.000000
vt 0.000000 0.000000
vt 0.000000 0.000000
vt 0.000000 0.000000
vt 0.000000 0.000000
vt 0.000000 0.000000
vt 0.000000 0.000000
vt 0.000000 0.000000
vt 0.000000 0.000000
vt 0.000000 0.000000
vt 0.000000 0.000000
vt 0.000000 0.000000
vt 0.000000 0.000000
vt 0.000000 0.000000
vt 0.000000 0.000000
vt 0.000000 0.000000
vt 0.000000 0.000000
vt 0.000000 0.000000
vt 0.000000 0.000000
vt 0.000000 0.000000
vt 0.000000 0.000000
vt 0.000000 0.000000
vt 0.000000 0.000000
vt 0.000000 0.000000
vt 0.000000 0.000000
vt 0.000000 0.000000
vt 0.000000 0.000000
vt 0.000000 0.000000
vt 0.000000 0.000000
vt 0.000000 0.000000
vt 0.000000 0.000000
vt 0.000000 0.000000
vt 0.000000 0.000000
vt 0.000000 0.000000
vt 0.000000 0.000000
vt 0.000000 0.000000
vt 0.000000 0.000000
vt 0.000000 0.000000
vt 0.000000 0.000000
vt 0.000000 0.000000
vn -0.9732 0.1703 -0.1543
vn -0.9871 0.1602 0.0000
vn -0.9871 -0.1602 -0.0000
vn -0.9732 -0.1703 -0.1543
vn -0.1450 0.0906 -0.9853
vn -0.1103 0.5650 -0.8177
vn -0.4315 0.7660 -0.4764
vn -0.6817 0.1639 -0.7130
vn 0.1102 0.5649 -0.8177
vn 0.0504 0.9760 -0.2116
vn -0.0504 0.9761 -0.2116
vn 0.7063 0.6990 0.1124
vn 0.7071 0.7071 0.0000
vn 0.1602 0.9871 0.0000
vn 0.1662 0.9859 0.0211
vn 0.0169 0.9567 0.2907
vn 0.1229 0.9786 0.1650
vn -0.0837 0.9937 -0.0739
vn -0.1285 0.6020 0.7881
vn -0.1729 0.1098 0.9788
vn 0.1729 0.1098 0.9788
vn 0.1285 0.6020 0.7881
vn 0.9723 -0.1677 0.1626
vn 0.9871 -0.1602 -0.0000
vn 0.9871 0.1602 0.0000
vn 0.9723 0.1677 0.1626
vn 0.5211 0.6606 0.5404
vn 0.7065 0.1629 0.6887
vn -0.6625 0.7412 -0.1083
vn -0.7071 0.7071 0.0000
vn -0.0169 0.9567 0.2907
vn 0.7065 -0.1629 0.6887
vn -0.1602 0.9871 0.0000
vn -0.1334 0.9907 -0.0255
vn 0.6817 0.1638 -0.7130
vn 0.1450 0.0906 -0.9853
vn 0.1450 -0.0906 -0.9853
vn 0.6817 -0.1638 -0.7130
vn -0.6817 -0.1639 -0.7130
vn -0.1450 -0.0906 -0.9853
vn 0.9732 0.1703 -0.1543
vn 0.9732 -0.1703 -0.1543
vn 0.4314 0.7660 -0.4765
vn -0.7063 0.6990 0.1124
vn -0.1662 0.9859 0.0211
vn 0.0836 0.9938 -0.0739
vn -0.1229 0.9786 0.1650
vn -0.9723 -0.1677 0.1626
vn -0.9723 0.1677 0.1626
vn -0.7065 0.1629 0.6887
vn -0.5211 0.6606 0.5404
vn 0.6625 0.7412 -0.1083
vn -0.7065 -0.1629 0.6887
vn 0.1334 0.9907 -0.0255
vn -0.1103 -0.5650 -0.8177
vn 0.1102 -0.5649 -0.8177
vn -0.1729 -0.1098 0.9788
vn 0.1729 -0.1098 0.9788
vn -0.1285 -0.6020 0.7881
vn -0.0169 -0.9567 0.2907
vn 0.0168 -0.9565 0.2912
vn 0.1285 -0.6020 0.7881
vn -0.4315 -0.7660 -0.4764
vn -0.0504 -0.9761 -0.2116
vn 0.0504 -0.9760 -0.2116
vn 0.7063 -0.6990 0.1124
vn 0.1662 -0.9859 0.0211
vn 0.1602 -0.9871 -0.0000
vn 0.7071 -0.7071 -0.0000
vn -0.0837 -0.9937 -0.0739
vn 0.1229 -0.9786 0.1650
vn 0.5211 -0.6606 0.5404
vn -0.7071 -0.7071 -0.0000
vn -0.6625 -0.7412 -0.1083
vn -0.1602 -0.9871 -0.0000
vn -0.1334 -0.9907 -0.0255
vn 0.4314 -0.7660 -0.4765
vn -0.7063 -0.6990 0.1124
vn -0.1662 -0.9859 0.0211
vn -0.1229 -0.9786 0.1650
vn 0.0836 -0.9938 -0.0739
vn -0.5211 -0.6606 0.5404
vn 0.6625 -0.7412 -0.1083
vn 0.1334 -0.9907 -0.0255
usemtl material_2.003
s 1
f 1/1/1 2/2/2 3/3/3 4/4/4
f 5/5/5 6/6/6 7/7/7 8/8/8
f 9/9/9 10/10/10 11/11/11 6/6/6
f 12/12/12 13/13/13 14/14/14 15/15/15
f 16/16/16 17/17/17 18/18/18 11/11/11
f 19/19/19 20/20/20 21/21/21 22/22/22
f 11/11/11 18/18/18 7/7/7 6/6/6
f 23/23/23 24/24/24 25/25/25 26/26/26
f 26/26/26 12/12/12 27/27/27 28/28/28
f 1/1/1 29/29/29 30/30/30 2/2/2
f 16/16/16 11/11/11 10/10/10 31/31/31
f 15/15/15 17/17/17 27/27/27 12/12/12
f 1/1/1 8/8/8 7/7/7 29/29/29
f 26/26/26 28/28/28 32/32/32 23/23/23
f 33/33/33 30/30/30 29/29/29 34/34/34
f 35/35/35 36/36/36 37/37/37 38/38/38
f 19/19/19 22/22/22 16/16/16 31/31/31
f 21/21/21 28/28/28 27/27/27 22/22/22
f 16/16/16 22/22/22 27/27/27 17/17/17
f 33/33/33 34/34/34 15/15/15 14/14/14
f 5/5/5 8/8/8 39/39/39 40/40/40
f 18/18/18 17/17/17 15/15/15 34/34/34
f 34/34/34 29/29/29 7/7/7 18/18/18
f 12/12/12 26/26/26 25/25/25 13/13/13
f 41/41/25 42/42/41 43/43/42 44/44/24
f 36/36/36 35/35/35 45/45/43 9/9/9
f 5/5/5 40/40/40 37/37/37 36/36/36
f 46/46/44 47/47/45 48/48/33 49/49/30
f 31/31/31 10/10/10 50/50/46 51/51/47
f 10/10/10 9/9/9 45/45/43 50/50/46
f 52/52/48 53/53/49 54/54/2 55/55/3
f 53/53/49 56/56/50 57/57/51 46/46/44
f 42/42/41 41/41/25 58/58/13 59/59/52
f 47/47/45 46/46/44 57/57/51 51/51/47
f 42/42/41 59/59/52 45/45/43 35/35/35
f 56/56/50 53/53/49 52/52/48 60/60/53
f 61/61/14 62/62/54 59/59/52 58/58/13
f 40/40/40 63/63/55 64/64/56 37/37/37
f 20/20/20 19/19/19 57/57/51 56/56/50
f 31/31/31 51/51/47 57/57/51 19/19/19
f 61/61/14 48/48/33 47/47/45 62/62/54
f 20/20/20 65/65/57 66/66/58 21/21/21
f 50/50/46 62/62/54 47/47/45 51/51/47
f 62/62/54 50/50/46 45/45/43 59/59/52
f 46/46/44 49/49/30 54/54/2 53/53/49
f 67/67/59 68/68/60 69/69/61 70/70/62
f 40/40/40 39/39/39 71/71/63 63/63/55
f 64/64/56 63/63/55 72/72/64 73/73/65
f 74/74/66 75/75/67 76/76/68 77/77/69
f 67/67/59 70/70/62 66/66/58 65/65/57
f 69/69/61 72/72/64 78/78/70 79/79/71
f 8/8/8 1/1/1 4/4/4 39/39/39
f 72/72/64 63/63/55 71/71/63 78/78/70
f 23/23/23 32/32/32 80/80/72 74/74/66
f 4/4/4 3/3/3 81/81/73 82/82/74
f 72/72/64 69/69/61 68/68/60 73/73/65
f 75/75/67 74/74/66 80/80/72 79/79/71
f 4/4/4 82/82/74 71/71/63 39/39/39
f 83/83/75 84/84/76 82/82/74 81/81/73
f 28/28/28 21/21/21 66/66/58 32/32/32
f 66/66/58 70/70/62 80/80/72 32/32/32
f 69/69/61 79/79/71 80/80/72 70/70/62
f 83/83/75 76/76/68 75/75/67 84/84/76
f 78/78/70 84/84/76 75/75/67 79/79/71
f 84/84/76 78/78/70 71/71/63 82/82/74
f 74/74/66 77/77/69 24/24/24 23/23/23
f 37/37/37 64/64/56 85/85/77 38/38/38
f 86/86/78 87/87/73 88/88/75 89/89/79
f 68/68/60 90/90/80 91/91/81 73/73/65
f 42/42/41 35/35/35 38/38/38 43/43/42
f 73/73/65 91/91/81 85/85/77 64/64/56
f 52/52/48 86/86/78 92/92/82 60/60/53
f 43/43/42 93/93/83 94/94/69 44/44/24
f 89/89/79 90/90/80 92/92/82 86/86/78
f 43/43/42 38/38/38 85/85/77 93/93/83
f 95/95/68 94/94/69 93/93/83 96/96/84
f 20/20/20 56/56/50 60/60/53 65/65/57
f 65/65/57 60/60/53 92/92/82 67/67/59
f 68/68/60 67/67/59 92/92/82 90/90/80
f 95/95/68 96/96/84 89/89/79 88/88/75
f 91/91/81 90/90/80 89/89/79 96/96/84
f 96/96/84 93/93/83 85/85/77 91/91/81
f 86/86/78 52/52/48 55/55/3 87/87/73
f 6/6/6 5/5/5 36/36/36 9/9/9
