# Blender v2.79 (sub 0) OBJ File: ''
# www.blender.org
mtllib 596DoorDown.mtl
o 596.002
v -0.225000 0.206500 0.266041
v 0.225000 0.203828 0.266041
v 0.225000 0.109500 0.266041
v 0.224625 0.108375 0.266041
v 0.223500 0.108000 0.266041
v -0.223500 0.108000 0.266041
v -0.224625 0.108375 0.266041
v -0.225000 0.109500 0.266041
v 0.223500 0.108375 0.279625
v 0.223500 0.109500 0.280000
v -0.223500 0.109500 0.280000
v -0.223500 0.108375 0.279625
v -0.224625 0.109500 0.279625
v -0.224333 0.108667 0.279333
v 0.223500 0.207625 0.279625
v -0.223500 0.207625 0.279625
v -0.223500 0.206500 0.280000
v 0.223500 0.206500 0.280000
v -0.223500 0.108000 0.278500
v 0.223500 0.108000 0.278500
v -0.224625 0.206500 0.279625
v 0.220500 0.112500 0.280000
v 0.220500 0.203500 0.280000
v -0.220500 0.203500 0.280000
v -0.220500 0.112500 0.280000
v -0.223500 0.208000 0.278500
v -0.224625 0.207625 0.278500
v -0.224333 0.207334 0.279333
v -0.224625 0.108375 0.278500
v -0.225000 0.206500 0.278500
v -0.225000 0.109500 0.278500
v 0.224333 0.108667 0.279333
v 0.224625 0.109500 0.279625
v 0.224625 0.206500 0.279625
v 0.224333 0.207334 0.279333
v 0.224424 0.207425 0.279072
v 0.224625 0.108375 0.278500
v 0.225000 0.109500 0.278500
v 0.225000 0.206500 0.278500
v 0.092802 0.208375 0.279625
v -0.075799 0.209500 0.280000
v -0.137500 0.209500 0.280000
v -0.137500 0.208375 0.279625
v -0.137500 0.208000 0.278500
v 0.103486 0.208000 0.278500
v -0.138333 0.208667 0.279333
v -0.138625 0.208375 0.278500
v -0.138625 0.209500 0.279625
v -0.139000 0.209500 0.278500
v -0.139375 0.209782 0.279625
v -0.140500 0.209892 0.280000
v -0.140500 0.209500 0.280000
v -0.139375 0.209500 0.279625
v -0.140500 0.208375 0.279625
v -0.139667 0.208667 0.279333
v -0.224625 0.210298 0.279625
v -0.224625 0.209500 0.279625
v -0.223500 0.209500 0.280000
v -0.223500 0.210395 0.280000
v -0.139000 0.209500 0.278500
v -0.223500 0.208375 0.279625
v -0.225000 0.209990 0.278500
v -0.225000 0.209500 0.278500
v -0.224625 0.208375 0.278500
v -0.224333 0.208667 0.279333
v -0.139375 0.208375 0.278500
v -0.140500 0.208000 0.278500
v -0.223500 0.208000 0.278500
v -0.137128 0.209872 0.280000
v -0.137500 0.209874 0.280000
v -0.222610 0.210390 0.280000
v -0.140894 0.209894 0.280000
v -0.225000 0.209500 0.276722
v -0.138625 0.208375 0.274540
v -0.224625 0.207625 0.269931
v -0.224625 0.208375 0.272651
v -0.223500 0.208000 0.271316
v 0.225000 0.206500 0.275731
v 0.224745 0.207265 0.278500
v 0.103488 0.208000 0.278500
v -0.223500 0.208000 0.271316
v -0.139375 0.208375 0.274524
v -0.140500 0.208000 0.273139
v -0.137500 0.208000 0.273205
v -0.138625 0.209777 0.279625
vt 11.385800 -4.687790
vt 11.384700 -4.687840
vt 11.384800 -4.240560
vt 11.385900 -4.240600
vt 11.384900 -4.239340
vt 11.385900 -4.239670
vt 11.286500 -4.687730
vt 11.286600 -4.240600
vt 11.287700 -4.240530
vt 11.287600 -4.687810
vt 11.387000 -4.240560
vt 11.386900 -4.687840
vt 11.287600 -4.239290
vt 11.381700 -4.684830
vt 11.290600 -4.684810
vt 11.290700 -4.243530
vt 11.381800 -4.243560
vt 11.285500 -4.240640
vt 11.285500 -4.239540
vt 11.286500 -4.239620
vt 11.399458 -4.240560
vt 11.399360 -4.687840
vt 11.386900 -4.239340
vt 11.285600 -4.238420
vt 11.273045 -4.238343
vt 11.273649 -4.140114
vt 11.286300 -4.140200
vt 11.286300 -4.138990
vt 11.287300 -4.139230
vt 11.287500 -4.140170
vt 11.273649 -4.138913
vt 11.286900 -4.238550
vt 11.385800 -4.688720
vt 11.384800 -4.689050
vt 11.287500 -4.689050
vt 11.286400 -4.688700
vt 11.286087 -4.688722
vt 11.386800 -4.689050
vt 11.285900 -4.787040
vt 11.287100 -4.787070
vt 11.286900 -4.788000
vt 11.286000 -4.788230
vt 11.273445 -4.788288
vt 11.273441 -4.787097
vt 11.286700 -4.689770
vt 11.285500 -4.689890
vt 0.812931 -12.152318
vt 0.811804 -11.983724
vt 0.811802 -11.922000
vt 0.812912 -11.922100
vt 0.814007 -11.922100
vt 0.814037 -12.162998
vt 0.812986 -11.921100
vt 0.813962 -11.921000
vt 0.811922 -11.920700
vt 0.813877 -11.919900
vt 0.812640 -11.920000
vt 11.044200 0.094596
vt 11.045300 0.094619
vt 11.045300 0.094227
vt 11.044200 0.094314
vt 11.045200 0.092982
vt 11.044100 0.093324
vt 11.129500 0.095087
vt 11.129500 0.094288
vt 11.128400 0.094240
vt 11.128400 0.095135
vt 11.043100 0.094362
vt 11.128500 0.093017
vt 11.130700 0.094731
vt 11.130700 0.094240
vt 11.130600 0.093013
vt 11.129500 0.093344
vt 11.043100 0.093254
vt 11.043200 0.092128
vt 11.044400 0.092250
vt 11.043400 0.008422
vt 11.044600 0.008397
vt 11.044400 0.007459
vt 11.043500 0.007225
vt 0.811431 -11.922371
vt 0.811428 -11.922000
vt 11.127510 0.095127
vt 11.045693 0.094622
vt 11.399550 -4.239349
vt 11.132478 0.094240
vt 0.817906 -11.920970
vt 11.276931 -4.239494
vt 11.037560 0.007209
vt 11.036160 0.008402
vt 11.282730 -4.689900
vt 11.285432 -4.689128
vt 11.285427 -4.567657
vt 11.278315 -4.240629
vt 11.039124 0.093244
vt 11.399450 -4.689060
vt 11.037798 0.092113
vt 11.273051 -4.692615
vt 0.819289 -11.922100
vt 0.811644 -11.920700
vt 0.812639 -11.919721
vt 11.136539 0.093013
vt 0.000000 0.000000
vt 0.000000 0.000000
vt 0.000000 0.000000
vt 0.000000 0.000000
vt 0.000000 0.000000
vt 0.000000 0.000000
vt 0.000000 0.000000
vt 0.000000 0.000000
vn 0.1816 -0.6954 0.6953
vn 0.1681 -0.1681 0.9713
vn -0.1681 -0.1681 0.9713
vn -0.1816 -0.6954 0.6953
vn -0.6954 -0.1816 0.6953
vn -0.5773 -0.5774 0.5774
vn 0.1881 0.3808 0.9053
vn -0.1815 0.6954 0.6954
vn -0.1681 0.1681 0.9713
vn 0.1681 0.1681 0.9713
vn -0.1681 -0.9713 0.1681
vn 0.1681 -0.9713 0.1681
vn -0.6954 0.1815 0.6954
vn -0.0000 0.0000 1.0000
vn -0.1680 0.9714 0.1680
vn -0.6954 0.6954 0.1815
vn -0.5772 0.5776 0.5772
vn -0.1602 -0.9871 0.0000
vn 0.1602 -0.9871 0.0000
vn -0.6953 -0.6953 0.1816
vn -0.9713 0.1681 0.1681
vn -0.9987 0.0505 0.0000
vn -0.9871 -0.1602 0.0000
vn -0.9713 -0.1681 0.1681
vn -0.7071 -0.7071 0.0000
vn 0.5773 -0.5774 0.5774
vn 0.6953 -0.1816 0.6953
vn 0.6960 0.1836 0.6941
vn 0.5954 0.5422 0.5929
vn 0.7900 0.4836 0.3770
vn 0.6953 -0.6954 0.1816
vn 0.9713 -0.1681 0.1681
vn 0.7071 -0.7071 0.0000
vn 0.9871 -0.1602 0.0000
vn 0.9713 0.1699 0.1663
vn 0.0000 -0.9481 0.3180
vn 0.0000 -0.3156 0.9489
vn -0.1816 -0.6953 0.6954
vn 0.0000 -0.9641 0.2657
vn -0.5773 -0.5774 0.5773
vn -0.6953 -0.6954 0.1816
vn -0.9281 -0.3139 0.2002
vn 0.6677 0.0000 0.7444
vn 0.1551 0.0000 0.9879
vn 0.6954 -0.1816 0.6953
vn 0.5773 -0.5774 0.5773
vn -0.6661 0.0000 0.7459
vn -0.1564 -0.0003 0.9877
vn 0.9282 -0.3135 0.2003
vn -0.9824 0.0000 0.1869
vn 0.6954 -0.6953 0.1816
vn -0.1562 0.0000 0.9877
vn -0.9570 -0.2902 0.0000
vn -0.3999 -0.9166 0.0000
vn -0.8808 0.4735 0.0000
vn -0.3979 -0.9174 0.0000
vn -0.1021 -0.9948 0.0000
vn 0.9996 0.0285 0.0000
vn 0.9151 0.3451 0.2087
vn 0.0000 0.9494 0.3141
vn -0.1956 0.9807 0.0000
vn 0.3990 -0.9169 0.0000
vn 0.0984 -0.9951 0.0000
vn 1.0000 0.0000 0.0000
vn -0.6695 0.0000 0.7428
vn 0.0000 0.0000 -1.0000
usemtl material_1.003
s 1
f 9/1/1 10/2/2 11/3/3 12/4/4
f 11/3/3 13/5/5 14/6/6 12/4/4
f 15/7/7 16/8/8 17/9/9 18/10/10
f 9/1/1 12/4/4 19/11/11 20/12/12
f 21/13/13 13/5/5 11/3/3 17/9/9
f 22/14/14 23/15/14 24/16/14 25/17/14
f 26/18/15 27/19/16 28/20/17 16/8/8
f 20/12/12 19/11/11 6/21/18 5/22/19
f 19/11/11 12/4/4 14/6/6 29/23/20
f 17/9/9 16/8/8 28/20/17 21/13/13
f 30/24/21 1/25/22 8/26/23 31/27/24
f 31/27/24 29/28/20 14/29/6 13/30/5
f 31/27/24 8/26/23 7/31/25 29/28/20
f 30/24/21 21/32/13 28/20/17 27/19/16
f 21/32/13 30/24/21 31/27/24 13/30/5
f 10/2/2 9/1/1 32/33/26 33/34/27
f 34/35/28 18/10/10 10/2/2 33/34/27
f 15/7/7 35/36/29 36/37/30
f 20/12/12 37/38/31 32/33/26 9/1/1
f 18/10/10 34/35/28 35/36/29 15/7/7
f 38/39/32 33/40/27 32/41/26 37/42/31
f 38/39/32 37/42/31 4/43/33 3/44/34
f 34/45/28 33/40/27 38/39/32 39/46/35
f 24/16/14 17/9/9 11/3/3 25/17/14
f 25/17/14 11/3/3 10/2/2 22/14/14
f 22/14/14 10/2/2 18/10/10 23/15/14
f 23/15/14 18/10/10 17/9/9 24/16/14
f 40/47/36 41/48/37 42/49/3 43/50/38
f 40/47/36 43/50/38 44/51/11 45/52/39
f 44/51/11 43/50/38 46/53/40 47/54/41
f 42/49/3 48/55/5 46/53/40 43/50/38
f 49/56/42 47/54/41 46/53/40 48/57/5
f 50/58/43 51/59/44 52/60/2 53/61/45
f 52/60/2 54/62/1 55/63/46 53/61/45
f 56/64/47 57/65/5 58/66/3 59/67/48
f 50/58/43 53/61/45 60/68/49
f 61/69/4 54/62/1 52/60/2 58/66/3
f 56/64/47 62/70/50 63/71/24 57/65/5
f 63/71/24 64/72/41 65/73/40 57/65/5
f 60/68/49 53/61/45 55/63/46 66/74/51
f 58/66/3 57/65/5 65/73/40 61/69/4
f 67/75/12 66/74/51 55/63/46 54/76/1
f 68/77/11 61/78/4 65/79/40 64/80/41
f 61/78/4 68/77/11 67/75/12 54/76/1
f 69/81/14 70/82/52 42/49/3
f 69/81/14 42/49/3 41/48/37
f 71/83/14 58/66/3 52/60/2 72/84/14
f 72/84/14 52/60/2 51/59/44
f 71/83/14 59/67/48 58/66/3
f 7/85/25 6/21/18 19/11/11 29/23/20
f 62/70/50 73/86/53 63/71/24
f 49/56/42 74/87/54 47/54/41
f 1/25/22 30/24/21 27/19/16 75/88/55
f 76/89/56 77/90/57 68/77/11 64/80/41
f 78/91/58 79/92/59 39/46/35
f 80/93/60 81/94/61 26/18/15
f 82/95/62 60/68/49 66/74/51
f 5/22/19 4/96/33 37/38/31 20/12/12
f 67/75/12 83/97/63 82/95/62 66/74/51
f 68/77/11 77/90/57 83/97/63 67/75/12
f 39/46/35 79/92/59 36/37/30 35/36/29 34/45/28
f 26/18/15 81/94/61 75/88/55 27/19/16
f 39/46/35 38/39/32 3/44/34 2/98/64 78/91/58
f 44/51/11 84/99/57 45/52/39
f 44/51/11 47/54/41 74/87/54 84/99/57
f 16/8/8 15/7/7 80/93/60 26/18/15
f 48/55/5 42/49/3 70/82/52 85/100/65
f 48/57/5 85/101/65 49/56/42
f 63/71/24 73/86/53 76/102/56 64/72/41
usemtl material_2.003
s off
f 1/103/66 2/104/66 3/105/66 4/106/66 5/107/66 6/108/66 7/109/66 8/110/66
