# Blender v2.79 (sub 0) OBJ File: ''
# www.blender.org
mtllib fridgeBoard.mtl
o UnrealEdObject
v -0.098315 -0.015379 0.008543
v 0.135418 -0.013940 0.004644
v 0.135433 -0.013944 0.007060
v 0.134399 0.152352 0.004920
v 0.135433 -0.013944 0.007060
v 0.135418 -0.013940 0.004644
v 0.134414 0.152348 0.007336
v -0.098315 -0.015379 0.008543
v 0.135433 -0.013944 0.007060
v 0.135433 -0.013944 0.007060
v 0.134399 0.152352 0.004920
v 0.134414 0.152348 0.007336
v 0.135418 -0.013940 0.004644
v -0.098315 -0.015379 0.008543
v -0.098331 -0.015375 0.006126
v 0.134399 0.152352 0.004920
v 0.135418 -0.013940 0.004644
v -0.098331 -0.015375 0.006126
v -0.098315 -0.015379 0.008543
v 0.134414 0.152348 0.007336
v -0.099334 0.150913 0.008819
v -0.099334 0.150913 0.008819
v -0.098331 -0.015375 0.006126
v -0.098315 -0.015379 0.008543
v 0.134399 0.152352 0.004920
v -0.099349 0.150917 0.006403
v 0.134414 0.152348 0.007336
v -0.099334 0.150913 0.008819
v -0.099349 0.150917 0.006403
v -0.099349 0.150917 0.006403
v -0.098331 -0.015375 0.006126
v -0.099349 0.150917 0.006403
v -0.098331 -0.015375 0.006126
v 0.136299 0.012403 0.007971
v 0.136857 0.115642 0.008135
v 0.136857 0.115642 0.008135
vt 0.000000 0.000000
vt 0.000000 0.000000
vt 0.000000 0.000000
vt 0.000000 0.000000
vt 0.000000 0.000000
vt 0.000000 0.000000
vt 0.000000 0.000000
vt 0.000000 0.000000
vt 0.000000 0.000000
vt 0.000000 0.000000
vt 0.000000 0.000000
vt 0.000000 0.000000
vt 0.000000 0.000000
vt 0.000000 0.000000
vt 0.000000 0.000000
vt 0.000000 0.000000
vt 0.000000 0.000000
vt 0.000000 0.000000
vt 0.000000 0.000000
vt 0.000000 0.000000
vt 0.000000 0.000000
vt 0.000000 0.000000
vt 0.000000 0.000000
vt 0.000000 0.000000
vt 0.000000 0.000000
vt 0.000000 0.000000
vt 0.000000 0.000000
vn 0.0061 -1.0000 -0.0016
vn 0.9999 0.0061 -0.0063
vn 0.0063 -0.0016 1.0000
vn -0.0063 0.0016 -1.0000
vn -0.9999 -0.0061 0.0063
vn -0.0061 1.0000 0.0016
usemtl None
s 1
f 1/1/1 2/2/1 3/3/1
f 4/4/2 5/5/2 6/6/2
f 7/7/3 8/8/3 9/9/3
f 10/10/2 11/11/2 12/12/2
f 13/13/1 14/14/1 15/15/1
f 16/16/4 17/17/4 18/18/4
f 19/19/3 20/20/3 21/21/3
f 22/22/5 23/23/5 24/24/5
f 25/25/6 26/26/6 27/27/6
l 30 31
l 28 29
l 32 33
