# Blender v2.79 (sub 0) OBJ File: '281.blend'
# www.blender.org
mtllib 395Main.mtl
o lid_Cube
v -0.026433 0.140379 -0.368455
v -0.026433 0.102882 -0.368455
v -0.026433 0.102882 -0.375244
v -0.026433 0.138433 -0.391663
v -0.026433 0.103309 -0.376626
v -0.026433 0.104466 -0.377765
v -0.056670 0.138426 -0.391751
v -0.056670 0.140379 -0.368455
v -0.056670 0.142579 -0.392763
v -0.055170 0.101382 -0.368455
v -0.055170 0.101382 -0.375471
v -0.027933 0.101382 -0.375471
v -0.027933 0.101382 -0.368455
v -0.055170 0.101987 -0.377430
v -0.027933 0.101987 -0.377430
v -0.055170 0.138302 -0.393225
v -0.027933 0.138302 -0.393225
v -0.027933 0.103449 -0.378869
v -0.055170 0.103449 -0.378869
v -0.027933 0.142718 -0.394300
v -0.055170 0.142718 -0.394300
v -0.026433 0.142570 -0.392670
v -0.026433 0.103309 -0.376626
v -0.026433 0.102882 -0.375244
v -0.026872 0.101821 -0.375404
v -0.026872 0.102374 -0.377195
v -0.027933 0.101382 -0.375471
v -0.027933 0.101987 -0.377430
v -0.056670 0.102882 -0.375244
v -0.056670 0.103309 -0.376626
v -0.056231 0.102374 -0.377195
v -0.056231 0.101821 -0.375404
v -0.055170 0.101987 -0.377430
v -0.055170 0.101382 -0.375471
v -0.026433 0.104466 -0.377765
v -0.026872 0.103747 -0.378545
v -0.027933 0.103449 -0.378869
v -0.056670 0.104665 -0.377961
v -0.056231 0.103805 -0.378603
v -0.055170 0.103449 -0.378869
v -0.055170 0.101382 -0.368455
v -0.056231 0.101821 -0.368455
v -0.056670 0.102882 -0.368455
v -0.026433 0.102882 -0.368455
v -0.026872 0.101821 -0.368455
v -0.027933 0.101382 -0.368455
v -0.055170 0.142718 -0.394300
v -0.055170 0.138302 -0.393225
v -0.056231 0.138338 -0.392793
v -0.056231 0.142677 -0.393850
v -0.056670 0.138426 -0.391751
v -0.056670 0.142579 -0.392763
v -0.027933 0.138302 -0.393225
v -0.027933 0.142718 -0.394300
v -0.026872 0.142674 -0.393823
v -0.026872 0.138340 -0.392767
v -0.026433 0.142570 -0.392670
v -0.026433 0.138433 -0.391663
v -0.056670 0.102882 -0.375244
v -0.056670 0.102882 -0.368455
v -0.056670 0.103309 -0.376626
v -0.056670 0.104665 -0.377961
v -0.024810 -0.049267 -0.196035
v -0.060043 -0.049267 -0.196760
v -0.058293 -0.049267 -0.196035
v -0.023060 -0.049267 -0.196760
v -0.060768 -0.049267 -0.198510
v -0.022336 -0.049267 -0.198510
v -0.060768 -0.049267 -0.220541
v -0.022336 -0.049267 -0.220541
v -0.057873 -0.066709 -0.196225
v -0.059994 -0.066709 -0.197104
v -0.025230 -0.066709 -0.196225
v -0.023109 -0.066709 -0.197104
v -0.060873 -0.066709 -0.199225
v -0.022230 -0.066709 -0.199225
v -0.060873 -0.066709 -0.219356
v -0.022230 -0.066709 -0.219356
v -0.060873 -0.064808 -0.199225
v -0.022230 -0.064808 -0.199225
v -0.022230 -0.059242 -0.219356
v -0.060873 -0.059242 -0.219356
v -0.022230 -0.059242 -0.219356
v -0.022230 -0.064808 -0.199225
v -0.022230 -0.066709 -0.199225
v -0.022230 -0.066709 -0.219356
v -0.025230 -0.065678 -0.196225
v -0.057873 -0.065678 -0.196225
v -0.057873 -0.066709 -0.196225
v -0.025230 -0.066709 -0.196225
v -0.025230 -0.065678 -0.196225
v -0.059994 -0.065423 -0.197104
v -0.057873 -0.065678 -0.196225
v -0.023109 -0.065423 -0.197104
v -0.059994 -0.065423 -0.197104
v -0.059994 -0.066709 -0.197104
v -0.060873 -0.064808 -0.199225
v -0.060873 -0.066709 -0.199225
v -0.023109 -0.066709 -0.197104
v -0.023109 -0.065423 -0.197104
v -0.060873 -0.059242 -0.219356
v -0.060873 -0.066709 -0.219356
v 0.033106 -0.062430 -0.318852
v 0.036949 -0.062430 -0.294594
v 0.036949 -0.066709 -0.294594
v 0.033106 -0.066709 -0.318852
v -0.017294 -0.066709 -0.219936
v -0.041552 -0.066709 -0.216094
v -0.065809 -0.066709 -0.219936
v 0.004590 -0.066709 -0.231086
v -0.087693 -0.066709 -0.231086
v 0.021956 -0.066709 -0.248453
v -0.105059 -0.066709 -0.248453
v 0.033106 -0.066709 -0.270336
v -0.116210 -0.066709 -0.270336
v 0.036949 -0.066709 -0.294594
v -0.120052 -0.066709 -0.294594
v 0.033106 -0.066709 -0.318852
v -0.116209 -0.066709 -0.318852
v 0.021956 -0.066709 -0.340735
v -0.105059 -0.066709 -0.340735
v 0.004590 -0.066709 -0.358102
v -0.087693 -0.066709 -0.358102
v -0.017294 -0.066709 -0.369252
v -0.065809 -0.066709 -0.369252
v -0.041552 -0.066709 -0.373094
v -0.120052 -0.062430 -0.294594
v -0.116209 -0.062430 -0.318852
v -0.116209 -0.066709 -0.318852
v -0.120052 -0.066709 -0.294594
v -0.087693 -0.062430 -0.358102
v -0.065809 -0.062430 -0.369252
v -0.065809 -0.066709 -0.369252
v -0.087693 -0.066709 -0.358102
v -0.041552 -0.062430 -0.373094
v -0.017294 -0.062430 -0.369252
v -0.017294 -0.066709 -0.369252
v -0.041552 -0.066709 -0.373094
v 0.021956 -0.062430 -0.248453
v 0.004590 -0.062430 -0.231086
v 0.004590 -0.066709 -0.231086
v 0.021956 -0.066709 -0.248453
v -0.041552 -0.062430 -0.216094
v -0.065809 -0.062430 -0.219936
v -0.065809 -0.066709 -0.219936
v -0.041552 -0.066709 -0.216094
v 0.004590 -0.062430 -0.358102
v 0.021956 -0.062430 -0.340735
v 0.021956 -0.066709 -0.340735
v 0.004590 -0.066709 -0.358102
v -0.105059 -0.062430 -0.248453
v -0.116210 -0.062430 -0.270336
v -0.116210 -0.066709 -0.270336
v -0.105059 -0.066709 -0.248453
v -0.105059 -0.062430 -0.340735
v -0.105059 -0.066709 -0.340735
v 0.033106 -0.062430 -0.270336
v 0.033106 -0.066709 -0.270336
v -0.017294 -0.062430 -0.219936
v -0.017294 -0.066709 -0.219936
v -0.087693 -0.062430 -0.231086
v -0.087693 -0.066709 -0.231086
v 0.032433 -0.062074 -0.318633
v 0.036240 -0.062074 -0.294594
v 0.036949 -0.062430 -0.294594
v 0.033106 -0.062430 -0.318852
v -0.119343 -0.062074 -0.294594
v -0.115536 -0.062074 -0.318633
v -0.116209 -0.062430 -0.318852
v -0.120052 -0.062430 -0.294594
v -0.087276 -0.062074 -0.357529
v -0.065590 -0.062074 -0.368578
v -0.065809 -0.062430 -0.369252
v -0.087693 -0.062430 -0.358102
v -0.041552 -0.062074 -0.372386
v -0.017513 -0.062074 -0.368578
v -0.017294 -0.062430 -0.369252
v -0.041552 -0.062430 -0.373094
v 0.021383 -0.062074 -0.248869
v 0.004173 -0.062074 -0.231659
v 0.004590 -0.062430 -0.231086
v 0.021956 -0.062430 -0.248453
v -0.041552 -0.062074 -0.216802
v -0.065591 -0.062074 -0.220609
v -0.065809 -0.062430 -0.219936
v -0.041552 -0.062430 -0.216094
v 0.004173 -0.062074 -0.357529
v 0.021383 -0.062074 -0.340319
v 0.021956 -0.062430 -0.340735
v 0.004590 -0.062430 -0.358102
v -0.104486 -0.062074 -0.248869
v -0.115536 -0.062074 -0.270555
v -0.116210 -0.062430 -0.270336
v -0.105059 -0.062430 -0.248453
v -0.104486 -0.062074 -0.340319
v -0.105059 -0.062430 -0.340735
v 0.032433 -0.062074 -0.270555
v 0.033106 -0.062430 -0.270336
v -0.017513 -0.062074 -0.220609
v -0.017294 -0.062430 -0.219936
v -0.087276 -0.062074 -0.231659
v -0.087693 -0.062430 -0.231086
v -0.058591 -0.052677 -0.194535
v -0.061191 -0.052794 -0.195612
v -0.024512 -0.052677 -0.194535
v -0.021912 -0.052794 -0.195612
v -0.062268 -0.053076 -0.198211
v -0.020836 -0.053076 -0.198211
v -0.062268 -0.055358 -0.220541
v -0.020836 -0.055358 -0.220541
v -0.020836 -0.050767 -0.220541
v -0.020836 -0.050767 -0.198211
v -0.020836 -0.053076 -0.198211
v -0.020836 -0.055358 -0.220541
v -0.061191 -0.052794 -0.195612
v -0.061191 -0.050767 -0.195612
v -0.062268 -0.050767 -0.198211
v -0.062268 -0.053076 -0.198211
v -0.058591 -0.052677 -0.194535
v -0.058591 -0.050767 -0.194535
v -0.024512 -0.050767 -0.194535
v -0.024512 -0.052677 -0.194535
v -0.021912 -0.052794 -0.195612
v -0.021912 -0.050767 -0.195612
v -0.058293 -0.049267 -0.196035
v -0.060043 -0.049267 -0.196760
v -0.060855 -0.049706 -0.195948
v -0.058504 -0.049706 -0.194974
v -0.060768 -0.049267 -0.198510
v -0.061828 -0.049706 -0.198299
v -0.023060 -0.049267 -0.196760
v -0.024810 -0.049267 -0.196035
v -0.024599 -0.049706 -0.194974
v -0.022249 -0.049706 -0.195948
v -0.022336 -0.049267 -0.198510
v -0.021275 -0.049706 -0.198299
v -0.060768 -0.049267 -0.220541
v -0.061828 -0.049706 -0.220541
v -0.062268 -0.050767 -0.220541
v -0.022336 -0.049267 -0.220541
v -0.021275 -0.049706 -0.220541
v -0.062268 -0.055358 -0.220541
v -0.041552 -0.062074 -0.372386
v -0.017513 -0.062074 -0.368578
v 0.004173 -0.062074 -0.231659
v -0.017513 -0.062074 -0.220609
v -0.087276 -0.062074 -0.357529
v -0.065590 -0.062074 -0.368578
v 0.004173 -0.062074 -0.357529
v -0.065591 -0.062074 -0.220609
v -0.087276 -0.062074 -0.231659
v 0.032433 -0.062074 -0.318633
v 0.036240 -0.062074 -0.294594
v -0.115536 -0.062074 -0.270555
v -0.119343 -0.062074 -0.294594
v 0.021383 -0.062074 -0.248869
v -0.104486 -0.062074 -0.340319
v -0.041552 -0.062074 -0.216802
v -0.115536 -0.062074 -0.318633
v 0.032433 -0.062074 -0.270555
v -0.104486 -0.062074 -0.248869
v 0.021383 -0.062074 -0.340319
v -0.056039 0.147044 -0.387907
v -0.059572 0.145672 -0.387907
v -0.058745 0.144802 -0.386707
v -0.055635 0.145915 -0.386707
v -0.055635 0.145915 -0.389107
v -0.058745 0.144802 -0.389107
v -0.055231 0.144785 -0.387907
v -0.057918 0.143933 -0.387907
v -0.061038 0.142328 -0.387907
v -0.059857 0.142117 -0.386707
v -0.059857 0.142117 -0.389107
v -0.058676 0.141906 -0.387907
v -0.060040 0.116350 -0.387907
v -0.058852 0.116521 -0.386707
v -0.058852 0.116521 -0.389107
v -0.057664 0.116693 -0.387907
v -0.057594 0.106821 -0.387907
v -0.056542 0.107399 -0.386707
v -0.056542 0.107399 -0.389107
v -0.055490 0.107977 -0.387907
v -0.050852 0.099695 -0.387907
v -0.050231 0.100721 -0.386707
v -0.050231 0.100721 -0.389107
v -0.049610 0.101748 -0.387907
v -0.041552 0.097077 -0.387907
v -0.041552 0.098277 -0.386707
v -0.041552 0.098277 -0.389107
v -0.041552 0.099477 -0.387907
v -0.032251 0.099695 -0.387907
v -0.032872 0.100721 -0.386707
v -0.032872 0.100721 -0.389107
v -0.033493 0.101748 -0.387907
v -0.025510 0.106821 -0.387907
v -0.026561 0.107399 -0.386707
v -0.026561 0.107399 -0.389107
v -0.027613 0.107977 -0.387907
v -0.023063 0.116350 -0.387907
v -0.024251 0.116521 -0.386707
v -0.024251 0.116521 -0.389107
v -0.025439 0.116693 -0.387907
v -0.022065 0.142328 -0.387907
v -0.023246 0.142117 -0.386707
v -0.023246 0.142117 -0.389107
v -0.024427 0.141906 -0.387907
v -0.023531 0.145672 -0.387907
v -0.024358 0.144802 -0.386707
v -0.024358 0.144802 -0.389107
v -0.025185 0.143933 -0.387907
v -0.027064 0.147044 -0.387907
v -0.027468 0.145915 -0.386707
v -0.027468 0.145915 -0.389107
v -0.027872 0.144785 -0.387907
v -0.056670 0.148387 -0.373630
v -0.056670 0.148387 -0.391811
v -0.056670 0.148387 -0.368455
v -0.056670 0.148387 -0.392491
v -0.056670 0.148387 -0.392763
v -0.026433 0.148387 -0.391791
v -0.026433 0.148387 -0.373604
v -0.026433 0.148387 -0.368455
v -0.026433 0.148387 -0.392670
v -0.026433 0.148387 -0.392475
v 0.004173 0.148387 -0.357529
v -0.041552 0.148387 -0.372385
v -0.087276 0.148387 -0.357529
v -0.017513 0.148387 -0.368578
v -0.017430 0.148387 -0.368536
v -0.065590 0.148387 -0.368578
v 0.021383 0.148387 -0.340318
v -0.104486 0.148387 -0.340319
v 0.032433 0.148387 -0.270555
v -0.115536 0.148387 -0.318633
v -0.119343 0.148387 -0.294594
v 0.021383 0.148387 -0.248869
v 0.032433 0.148387 -0.318633
v -0.115536 0.148387 -0.270555
v 0.036240 0.148387 -0.294594
v -0.104486 0.148387 -0.248869
v 0.004173 0.148387 -0.231659
v -0.065591 0.148387 -0.220609
v -0.017513 0.148387 -0.220609
v -0.041552 0.148387 -0.216802
v -0.087276 0.148387 -0.231659
v -0.056231 0.148387 -0.393850
v -0.055170 0.148387 -0.394300
v -0.027933 0.148387 -0.394300
v -0.055170 0.148387 -0.394300
v -0.026872 0.148387 -0.393823
v -0.027933 0.148387 -0.394300
v -0.026433 0.148387 -0.392670
v -0.056670 0.148387 -0.392763
vn 1.0000 0.0000 0.0000
vn 0.0000 -0.3096 -0.9508
vn 0.0000 -0.5513 -0.8343
vn -1.0000 0.0000 0.0000
vn 0.0000 -0.1191 -0.9929
vn 0.0000 0.9624 0.2716
vn 0.0000 0.9638 0.2665
vn 0.9868 0.0000 0.1621
vn 0.9808 0.0000 0.1951
vn -0.9868 0.0000 0.1621
vn -0.9808 0.0000 0.1951
vn 0.9510 0.0000 -0.3090
vn -0.9510 0.0000 -0.3090
vn -0.5878 0.0000 -0.8090
vn -0.3090 0.0000 -0.9510
vn 0.0000 0.0000 -1.0000
vn 0.3090 0.0000 -0.9510
vn 0.8090 0.0000 0.5878
vn 0.5878 0.0000 0.8090
vn 0.5878 0.0000 -0.8090
vn 0.8090 0.0000 -0.5878
vn -0.8090 0.0000 0.5878
vn -0.9510 0.0000 0.3090
vn -0.8090 0.0000 -0.5878
vn 0.9510 0.0000 0.3090
vn 0.3090 0.0000 0.9510
vn -0.3090 0.0000 0.9510
vn -0.5878 0.0000 0.8090
vn 0.0000 1.0000 -0.0000
vn 0.0000 -1.0000 0.0000
vn 0.0000 -0.9888 -0.1492
vn 0.0000 -0.8543 -0.5197
vn 0.9280 -0.3183 -0.1936
vn 0.9254 -0.3746 -0.0565
vn 0.6921 -0.7137 -0.1077
vn 0.6860 -0.6216 -0.3781
vn 0.3862 -0.9121 -0.1376
vn 0.3927 -0.7857 -0.4780
vn -0.9254 -0.3746 -0.0565
vn -0.9280 -0.3183 -0.1936
vn -0.6860 -0.6216 -0.3781
vn -0.6921 -0.7137 -0.1077
vn -0.3927 -0.7857 -0.4780
vn -0.3862 -0.9121 -0.1376
vn 0.9240 -0.2044 -0.3232
vn 0.6852 -0.4008 -0.6081
vn 0.3836 -0.5147 -0.7667
vn -0.9179 -0.2037 -0.3404
vn -0.6774 -0.4038 -0.6148
vn -0.3740 -0.5231 -0.7658
vn -0.3824 -0.9240 0.0000
vn -0.7071 -0.7071 0.0000
vn -0.9239 -0.3825 0.0000
vn 0.9239 -0.3825 0.0000
vn 0.7071 -0.7071 0.0000
vn 0.3824 -0.9240 0.0000
vn -0.3852 -0.1045 -0.9169
vn -0.3638 -0.2847 -0.8868
vn -0.6830 -0.2264 -0.6944
vn -0.6946 -0.0865 -0.7141
vn -0.9145 -0.1295 -0.3834
vn -0.9243 -0.0517 -0.3782
vn 0.3841 -0.2821 -0.8791
vn 0.4047 -0.1032 -0.9086
vn 0.7091 -0.0851 -0.7000
vn 0.6988 -0.2219 -0.6800
vn 0.9318 -0.0492 -0.3596
vn 0.9236 -0.1227 -0.3632
vn 0.2017 0.0000 0.9794
vn -0.2017 0.0000 0.9794
vn -0.1951 0.0000 0.9808
vn 0.1951 0.0000 0.9808
vn 0.0000 0.9604 0.2784
vn -0.7394 0.0000 0.6733
vn -0.7071 0.0000 0.7071
vn 0.7071 0.0000 0.7071
vn 0.7394 0.0000 0.6733
vn 0.0000 0.0000 1.0000
vn 0.4277 0.8932 -0.1390
vn 0.4497 0.8932 0.0000
vn -0.4497 0.8932 0.0000
vn -0.4277 0.8932 -0.1390
vn -0.2643 0.8932 -0.3638
vn -0.1390 0.8932 -0.4277
vn -0.2644 0.8932 -0.3638
vn 0.0000 0.8931 -0.4498
vn 0.1390 0.8932 -0.4277
vn 0.3638 0.8931 0.2644
vn 0.2644 0.8931 0.3638
vn 0.0000 0.8932 0.4497
vn -0.1390 0.8932 0.4277
vn 0.2643 0.8932 -0.3638
vn 0.3638 0.8932 -0.2643
vn -0.3638 0.8932 0.2643
vn -0.4277 0.8932 0.1390
vn -0.3638 0.8932 -0.2644
vn 0.4277 0.8932 0.1390
vn 0.1390 0.8932 0.4277
vn -0.2643 0.8932 0.3638
vn 0.0000 -0.9941 0.1079
vn 0.0000 -0.9945 0.1043
vn 0.0000 -0.9948 0.1017
vn 0.9808 0.1950 0.0000
vn 0.9622 0.1938 0.1914
vn 0.9832 0.0000 0.1825
vn -0.7199 0.0000 0.6940
vn -0.6929 0.1994 0.6929
vn -0.9622 0.1938 0.1914
vn -0.9832 0.0000 0.1825
vn -0.1976 0.0000 0.9803
vn -0.1914 0.1938 0.9622
vn 0.1914 0.1938 0.9622
vn 0.1976 0.0000 0.9803
vn 0.7199 0.0000 0.6940
vn 0.6929 0.1994 0.6929
vn -0.0734 0.9265 0.3691
vn -0.2527 0.9340 0.2527
vn -0.5169 0.6824 0.5169
vn -0.1414 0.6888 0.7110
vn -0.3691 0.9265 0.0734
vn -0.7110 0.6889 0.1414
vn 0.2527 0.9340 0.2527
vn 0.0734 0.9265 0.3691
vn 0.1414 0.6889 0.7110
vn 0.5169 0.6824 0.5169
vn 0.3691 0.9265 0.0734
vn 0.7109 0.6889 0.1414
vn -0.3826 0.9239 0.0000
vn -0.7071 0.7071 0.0000
vn -0.9808 0.1950 0.0000
vn 0.3826 0.9239 0.0000
vn 0.7071 0.7071 0.0000
vn 0.0000 0.6735 -0.7391
vn 0.2284 0.6735 -0.7030
vn 0.4345 0.6735 0.5980
vn 0.2284 0.6735 0.7030
vn -0.4345 0.6735 -0.5980
vn -0.2284 0.6735 -0.7030
vn 0.3210 0.7071 -0.6300
vn 0.4345 0.6735 -0.5980
vn -0.2284 0.6735 0.7030
vn -0.4345 0.6735 0.5980
vn 0.7030 0.6735 -0.2284
vn 0.7391 0.6735 0.0000
vn -0.7030 0.6735 0.2284
vn -0.7391 0.6735 0.0000
vn 0.5980 0.6735 0.4345
vn -0.5980 0.6735 -0.4345
vn 0.0000 0.6735 0.7391
vn -0.7030 0.6735 -0.2284
vn 0.7030 0.6735 0.2284
vn -0.5980 0.6735 0.4345
vn 0.5980 0.6735 -0.4345
vn -0.3504 0.9366 0.0000
vn -0.6910 0.7228 0.0000
vn -0.1251 0.1291 0.9837
vn -0.0148 -0.0070 0.9998
vn -0.0148 -0.0070 -0.9998
vn -0.1251 0.1291 -0.9837
vn 0.3210 -0.9471 0.0000
vn 0.6895 -0.7242 0.0000
vn -0.9832 0.1826 0.0000
vn -0.0931 0.0237 0.9954
vn -0.0931 0.0237 -0.9954
vn 0.9856 -0.1689 0.0000
vn -0.9896 -0.1438 0.0000
vn -0.0467 -0.0074 0.9989
vn -0.0467 -0.0074 -0.9989
vn 0.9898 0.1425 0.0000
vn -0.8755 -0.4832 0.0000
vn -0.0983 -0.0553 0.9936
vn -0.0983 -0.0553 -0.9936
vn 0.8764 0.4815 0.0000
vn -0.5174 -0.8557 0.0000
vn -0.0618 -0.1026 0.9928
vn -0.0618 -0.1026 -0.9928
vn 0.5177 0.8556 0.0000
vn 0.0000 -0.1219 0.9925
vn 0.0000 -0.1219 -0.9925
vn 0.5174 -0.8557 0.0000
vn 0.0618 -0.1026 0.9928
vn 0.0618 -0.1026 -0.9928
vn -0.5177 0.8556 0.0000
vn 0.8755 -0.4832 0.0000
vn 0.0983 -0.0553 0.9936
vn 0.0983 -0.0553 -0.9936
vn -0.8764 0.4815 0.0000
vn 0.9896 -0.1438 0.0000
vn 0.0467 -0.0074 0.9989
vn 0.0467 -0.0074 -0.9989
vn -0.9898 0.1425 0.0000
vn 0.9832 0.1826 0.0000
vn 0.0931 0.0237 0.9954
vn 0.0931 0.0237 -0.9954
vn -0.9856 -0.1689 0.0000
vn 0.6910 0.7228 0.0000
vn 0.1251 0.1291 0.9837
vn 0.1251 0.1291 -0.9837
vn -0.6895 -0.7242 0.0000
vn 0.3504 0.9366 0.0000
vn 0.0148 -0.0070 0.9998
vn 0.0148 -0.0070 -0.9998
vn -0.3210 -0.9471 0.0000
vn 0.9344 0.0000 -0.3561
vn 0.7276 0.0000 -0.6860
vn 0.4104 0.0000 -0.9119
vn -0.3907 0.0000 -0.9205
vn -0.7132 0.0000 -0.7009
vn -0.9271 0.0000 -0.3747
usemtl black
s 1
f 4//1 1//1 3//1
f 16//2 17//2 18//3 19//3
f 9//4 8//4 317//4 315//4
f 17//2 16//2 21//5 20//5
f 8//4 7//4 59//4
f 79//6 80//6 81//7 82//7
f 83//1 84//8 85//9 86//1
f 97//10 101//4 102//4 98//11
f 103//12 104//1 105//1 106//12
f 127//4 128//13 129//13 130//4
f 131//14 132//15 133//15 134//14
f 135//16 136//17 137//17 138//16
f 139//18 140//19 141//19 142//18
f 147//20 148//21 149//21 150//20
f 151//22 152//23 153//23 154//22
f 128//13 155//24 156//24 129//13
f 104//1 157//25 158//25 105//1
f 132//15 135//16 138//16 133//15
f 140//19 159//26 160//26 141//19
f 144//27 161//28 162//28 145//27
f 148//21 103//12 106//12 149//21
f 152//23 127//4 130//4 153//23
f 155//24 131//14 134//14 156//24
f 157//25 139//18 142//18 158//25
f 136//17 147//20 150//20 137//17
f 161//28 151//22 154//22 162//28
f 348//16 20//5 21//5 349//16
f 322//1 1//1 22//1 321//1
f 321//1 22//1 320//1
usemtl grey
s off
f 335//29 338//29 340//29 345//29 342//29 344//29 343//29 341//29 336//29 333//29 339//29 337//29 331//29 325//29 329//29 328//29 326//29 330//29 327//29 332//29 334//29
s 1
f 1//1 2//1 3//1
f 4//1 3//1 5//1
f 4//1 5//1 6//1
f 7//4 8//4 9//4
f 10//30 11//31 12//31 13//30
f 12//31 11//31 14//32 15//32
f 4//1 22//1 1//1
f 15//32 14//32 19//3 18//3
f 23//33 24//34 25//35 26//36
f 26//36 25//35 27//37 28//38
f 29//39 30//40 31//41 32//42
f 32//42 31//41 33//43 34//44
f 35//45 23//33 26//36 36//46
f 36//46 26//36 28//38 37//47
f 30//40 38//48 39//49 31//41
f 31//41 39//49 40//50 33//43
f 34//44 41//51 42//52 32//42
f 32//42 42//52 43//53 29//39
f 24//34 44//54 45//55 25//35
f 25//35 45//55 46//56 27//37
f 47//57 48//58 49//59 50//60
f 50//60 49//59 51//61 52//62
f 53//63 54//64 55//65 56//66
f 56//66 55//65 57//67 58//68
f 38//48 51//61 49//59 39//49
f 39//49 49//59 48//58 40//50
f 58//68 35//45 36//46 56//66
f 56//66 36//46 37//47 53//63
f 8//4 59//4 60//4
f 7//4 61//4 59//4
f 7//4 62//4 61//4
f 63//29 64//29 65//29
f 63//29 66//29 64//29
f 66//29 67//29 64//29
f 66//29 68//29 67//29
f 68//29 69//29 67//29
f 68//29 70//29 69//29
f 71//30 72//30 73//30
f 72//30 74//30 73//30
f 72//30 75//30 74//30
f 75//30 76//30 74//30
f 75//30 77//30 76//30
f 77//30 78//30 76//30
f 87//69 88//70 89//71 90//72
f 91//73 92//73 93//73
f 91//73 94//73 92//73
f 94//73 79//6 92//73
f 94//73 80//6 79//6
f 89//71 88//70 95//74 96//75
f 96//75 95//74 97//10 98//11
f 87//69 90//72 99//76 100//77
f 100//77 99//76 85//9 84//8
f 107//30 108//30 109//30
f 110//30 107//30 109//30
f 110//30 109//30 111//30
f 112//30 110//30 111//30
f 112//30 111//30 113//30
f 114//30 112//30 113//30
f 114//30 113//30 115//30
f 116//30 114//30 115//30
f 116//30 115//30 117//30
f 118//30 116//30 117//30
f 118//30 117//30 119//30
f 120//30 118//30 119//30
f 120//30 119//30 121//30
f 122//30 120//30 121//30
f 122//30 121//30 123//30
f 124//30 122//30 123//30
f 124//30 123//30 125//30
f 126//30 124//30 125//30
f 143//78 144//27 145//27 146//78
f 159//26 143//78 146//78 160//26
f 163//79 164//80 165//80 166//79
f 167//81 168//82 169//82 170//81
f 171//83 172//84 173//84 174//85
f 175//86 176//87 177//87 178//86
f 179//88 180//89 181//89 182//88
f 183//90 184//91 185//91 186//90
f 187//92 188//93 189//93 190//92
f 191//94 192//95 193//95 194//94
f 168//82 195//96 196//96 169//82
f 164//80 197//97 198//97 165//80
f 172//84 175//86 178//86 173//84
f 180//89 199//98 200//98 181//89
f 184//91 201//99 202//99 185//91
f 188//93 163//79 166//79 189//93
f 192//95 167//81 170//81 193//95
f 195//96 171//83 174//85 196//96
f 197//97 179//88 182//88 198//97
f 199//98 183//90 186//90 200//98
f 176//87 187//92 190//92 177//87
f 201//99 191//94 194//94 202//99
f 203//100 204//100 205//100
f 204//100 206//100 205//100
f 204//100 207//101 206//100
f 207//101 208//101 206//100
f 207//101 209//102 208//101
f 209//102 210//102 208//101
f 211//103 212//104 213//105 214//1
f 215//106 216//107 217//108 218//109
f 219//110 220//111 216//107 215//106
f 221//112 222//113 223//114 224//115
f 221//112 220//111 219//110 222//113
f 224//115 223//114 213//105 212//104
f 225//116 226//117 227//118 228//119
f 228//119 227//118 216//107 220//111
f 226//117 229//120 230//121 227//118
f 227//118 230//121 217//108 216//107
f 231//122 232//123 233//124 234//125
f 234//125 233//124 221//112 224//115
f 235//126 231//122 234//125 236//127
f 236//127 234//125 224//115 212//104
f 229//120 237//128 238//129 230//121
f 230//121 238//129 239//130 217//108
f 232//123 225//116 228//119 233//124
f 233//124 228//119 220//111 221//112
f 240//131 235//126 236//127 241//132
f 241//132 236//127 212//104 211//103
f 217//108 239//130 242//4 218//109
f 243//16 326//133 328//134 244//17
f 245//19 341//135 343//136 246//26
f 247//14 327//137 330//138 248//15
f 244//17 328//134 329//139 325//140 249//20
f 250//27 342//141 345//142 251//28
f 252//12 337//143 339//144 253//1
f 254//23 338//145 335//146 255//4
f 256//18 336//147 341//135 245//19
f 257//24 332//148 327//137 247//14
f 258//78 344//149 342//141 250//27
f 255//4 335//146 334//150 259//13
f 253//1 339//144 333//151 260//25
f 251//28 345//142 340//152 261//22
f 249//20 325//140 331//153 262//21
f 246//26 343//136 344//149 258//78
f 259//13 334//150 332//148 257//24
f 260//25 333//151 336//147 256//18
f 261//22 340//152 338//145 254//23
f 262//21 331//153 337//143 252//12
f 248//15 330//138 326//133 243//16
f 263//154 264//155 265//156 266//157
f 264//155 263//154 267//158 268//159
f 269//160 270//161 268//159 267//158
f 266//157 265//156 270//161 269//160
f 264//155 271//162 272//163 265//156
f 268//159 273//164 271//162 264//155
f 270//161 274//165 273//164 268//159
f 265//156 272//163 274//165 270//161
f 271//162 275//166 276//167 272//163
f 273//164 277//168 275//166 271//162
f 274//165 278//169 277//168 273//164
f 272//163 276//167 278//169 274//165
f 275//166 279//170 280//171 276//167
f 277//168 281//172 279//170 275//166
f 278//169 282//173 281//172 277//168
f 276//167 280//171 282//173 278//169
f 279//170 283//174 284//175 280//171
f 281//172 285//176 283//174 279//170
f 282//173 286//177 285//176 281//172
f 280//171 284//175 286//177 282//173
f 283//174 287//30 288//178 284//175
f 285//176 289//179 287//30 283//174
f 286//177 290//29 289//179 285//176
f 284//175 288//178 290//29 286//177
f 287//30 291//180 292//181 288//178
f 289//179 293//182 291//180 287//30
f 290//29 294//183 293//182 289//179
f 288//178 292//181 294//183 290//29
f 291//180 295//184 296//185 292//181
f 293//182 297//186 295//184 291//180
f 294//183 298//187 297//186 293//182
f 292//181 296//185 298//187 294//183
f 295//184 299//188 300//189 296//185
f 297//186 301//190 299//188 295//184
f 298//187 302//191 301//190 297//186
f 296//185 300//189 302//191 298//187
f 299//188 303//192 304//193 300//189
f 301//190 305//194 303//192 299//188
f 302//191 306//195 305//194 301//190
f 300//189 304//193 306//195 302//191
f 303//192 307//196 308//197 304//193
f 305//194 309//198 307//196 303//192
f 306//195 310//199 309//198 305//194
f 304//193 308//197 310//199 306//195
f 307//196 311//200 312//201 308//197
f 309//198 313//202 311//200 307//196
f 310//199 314//203 313//202 309//198
f 308//197 312//201 314//203 310//199
f 352//204 57//67 55//65 350//205
f 316//4 9//4 315//4
f 350//205 55//65 54//64 351//206
f 318//4 9//4 316//4
f 320//1 22//1 324//1
f 347//207 47//57 50//60 346//208
f 319//4 9//4 318//4
f 324//1 22//1 323//1
f 346//208 50//60 52//62 353//209
l 351 347
