# Blender v2.79 (sub 0) OBJ File: ''
# www.blender.org
mtllib 264Door.mtl
o 264
v 0.265242 0.558363 -0.146601
v -0.300352 0.558363 -0.146601
v -0.307423 0.555434 -0.146601
v 0.272313 0.555434 -0.146601
v -0.310352 0.548363 -0.146601
v 0.275242 0.548363 -0.146601
v -0.310352 0.176555 -0.146601
v 0.275242 0.176555 -0.146601
v -0.307423 0.169484 -0.146601
v 0.272313 0.169484 -0.146601
v -0.300352 0.166555 -0.146601
v 0.265242 0.166555 -0.146601
v 0.271527 0.567893 -0.145101
v 0.270617 0.567893 -0.141184
v 0.264282 0.573229 -0.142283
v 0.263772 0.573229 -0.145101
v 0.262156 0.567893 -0.137598
v 0.283287 0.567893 -0.138987
v 0.272578 0.567893 -0.133621
v 0.127550 0.578565 -0.125758
v 0.124827 0.573229 -0.128588
v 0.068698 0.573229 -0.125875
v 0.070348 0.578565 -0.123045
v 0.218836 0.573229 -0.135661
v 0.176648 0.573229 -0.132297
v 0.180325 0.578565 -0.129504
v 0.223171 0.578565 -0.133012
v 0.231841 0.567893 -0.127715
v 0.223171 0.567893 -0.133012
v 0.252735 0.567893 -0.136032
v 0.262439 0.567893 -0.131452
v 0.180325 0.567893 -0.129504
v 0.270617 0.578565 -0.141184
v 0.271527 0.578565 -0.145101
v 0.247882 0.573229 -0.138322
v 0.236176 0.573229 -0.125067
v 0.231841 0.578565 -0.127715
v 0.187679 0.578565 -0.123916
v 0.191356 0.573229 -0.121122
v 0.011886 0.567893 -0.121844
v 0.070348 0.567893 -0.123045
v 0.073647 0.567893 -0.117384
v 0.012991 0.567893 -0.116184
v -0.312899 0.573229 -0.131633
v -0.307688 0.578565 -0.133621
v -0.318397 0.578565 -0.138987
v -0.324732 0.573229 -0.137889
v 0.252735 0.578565 -0.136032
v 0.262156 0.578565 -0.137598
v 0.256945 0.573229 -0.139587
v 0.135720 0.573229 -0.117267
v 0.132997 0.578565 -0.120097
v 0.073647 0.578565 -0.117384
v 0.075297 0.573229 -0.114554
v 0.127550 0.567893 -0.125758
v 0.267292 0.573229 -0.129162
v 0.262439 0.578565 -0.131452
v 0.013543 0.573229 -0.113354
v 0.011333 0.573229 -0.124674
v 0.011886 0.578565 -0.121844
v 0.187679 0.567893 -0.123916
v 0.277789 0.573229 -0.131633
v 0.272578 0.578565 -0.133621
v 0.283287 0.578565 -0.138987
v 0.012991 0.578565 -0.116184
v 0.132997 0.567893 -0.120097
v 0.287037 0.567893 -0.145101
v 0.287037 0.578565 -0.145101
v 0.289622 0.573229 -0.137889
v 0.294792 0.573229 -0.145101
v -0.299392 0.573229 -0.142283
v -0.305727 0.567893 -0.141184
v -0.306637 0.567893 -0.145101
v -0.298882 0.573229 -0.145101
v -0.318397 0.567893 -0.138987
v -0.297266 0.567893 -0.137598
v -0.307688 0.567893 -0.133621
v -0.162660 0.578565 -0.125758
v -0.105458 0.578565 -0.123045
v -0.103808 0.573229 -0.125875
v -0.159937 0.573229 -0.128588
v -0.253946 0.573229 -0.135661
v -0.258281 0.578565 -0.133012
v -0.215435 0.578565 -0.129504
v -0.211758 0.573229 -0.132297
v -0.297549 0.567893 -0.131452
v -0.287845 0.567893 -0.136032
v -0.258281 0.567893 -0.133012
v -0.266951 0.567893 -0.127715
v -0.215435 0.567893 -0.129504
v -0.306637 0.578565 -0.145101
v -0.305727 0.578565 -0.141184
v -0.282992 0.573229 -0.138322
v -0.226466 0.573229 -0.121122
v -0.222789 0.578565 -0.123916
v -0.266951 0.578565 -0.127715
v -0.271286 0.573229 -0.125067
v -0.105458 0.567893 -0.123045
v -0.046996 0.567893 -0.121844
v -0.048101 0.567893 -0.116184
v -0.108757 0.567893 -0.117384
v -0.046996 0.578565 -0.121844
v -0.048101 0.578565 -0.116184
v -0.292055 0.573229 -0.139587
v -0.297266 0.578565 -0.137598
v -0.287845 0.578565 -0.136032
v -0.110407 0.573229 -0.114554
v -0.108757 0.578565 -0.117384
v -0.168107 0.578565 -0.120097
v -0.170830 0.573229 -0.117267
v -0.162660 0.567893 -0.125758
v -0.297549 0.578565 -0.131452
v -0.302402 0.573229 -0.129162
v -0.048654 0.573229 -0.113354
v -0.046443 0.573229 -0.124674
v -0.222789 0.567893 -0.123916
v -0.168107 0.567893 -0.120097
v -0.322147 0.567893 -0.145101
v -0.322147 0.578565 -0.145101
v -0.329902 0.573229 -0.145101
v 0.323052 -0.016858 -0.160101
v 0.312445 -0.021251 -0.160101
v 0.327445 -0.006251 -0.160101
v 0.312445 -0.006251 -0.145101
v 0.312445 -0.016858 -0.149494
v 0.322194 -0.016000 -0.150352
v 0.323052 -0.006251 -0.149494
v -0.362555 -0.006251 -0.160101
v -0.358162 -0.016858 -0.160101
v -0.357304 -0.016000 -0.150352
v -0.358162 -0.006251 -0.149494
v -0.347555 -0.021251 -0.160101
v -0.347555 -0.016858 -0.149494
v -0.347555 -0.006251 -0.145101
v -0.307423 0.555434 -0.146601
v -0.310352 0.548363 -0.146601
v -0.300352 0.558363 -0.146601
v -0.310352 0.176555 -0.146601
v -0.307423 0.169484 -0.146601
v -0.300352 0.166555 -0.146601
v 0.265242 0.166555 -0.146601
v 0.272313 0.169484 -0.146601
v 0.275242 0.176555 -0.146601
v 0.275242 0.548363 -0.146601
v 0.272313 0.555434 -0.146601
v 0.265242 0.558363 -0.146601
v -0.307423 0.555434 -0.146601
v -0.300352 0.558363 -0.146601
v -0.300442 0.558814 -0.145540
v -0.307794 0.555805 -0.145540
v -0.300651 0.559863 -0.145101
v -0.308571 0.556582 -0.145101
v 0.265242 0.558363 -0.146601
v 0.265332 0.558814 -0.145540
v 0.265540 0.559863 -0.145101
v 0.272313 0.555434 -0.146601
v 0.272684 0.555805 -0.145540
v 0.273461 0.556582 -0.145101
v 0.275242 0.548363 -0.146601
v 0.275693 0.548453 -0.145540
v 0.276742 0.548661 -0.145101
v 0.275242 0.176555 -0.146601
v 0.275693 0.176465 -0.145540
v 0.276742 0.176256 -0.145101
v 0.272313 0.169484 -0.146601
v 0.272684 0.169113 -0.145540
v 0.273461 0.168336 -0.145101
v 0.265242 0.166555 -0.146601
v 0.265332 0.166104 -0.145540
v 0.265540 0.165055 -0.145101
v -0.300352 0.166555 -0.146601
v -0.300442 0.166104 -0.145540
v -0.300651 0.165055 -0.145101
v -0.307423 0.169484 -0.146601
v -0.307794 0.169113 -0.145540
v -0.308571 0.168336 -0.145101
v -0.310352 0.176555 -0.146601
v -0.310803 0.176465 -0.145540
v -0.311852 0.176256 -0.145101
v -0.310352 0.548363 -0.146601
v -0.310803 0.548452 -0.145540
v -0.311852 0.548661 -0.145101
v 0.302445 0.003749 -0.145101
v -0.337555 0.582752 -0.145101
v -0.308571 0.556582 -0.145101
v -0.300651 0.559863 -0.145101
v 0.265540 0.559863 -0.145101
v 0.273461 0.556582 -0.145101
v 0.276742 0.548661 -0.145101
v 0.276742 0.176256 -0.145101
v 0.273461 0.168336 -0.145101
v -0.300651 0.165055 -0.145101
v -0.308571 0.168336 -0.145101
v -0.337555 0.003749 -0.145101
v 0.265540 0.165055 -0.145101
v -0.311852 0.548661 -0.145101
v -0.311852 0.176256 -0.145101
v -0.300352 0.558363 -0.163018
v -0.307423 0.555434 -0.163018
v -0.310352 0.548363 -0.163018
v 0.327445 -0.006251 -0.163018
v -0.362555 0.343108 -0.163018
v -0.362555 -0.006251 -0.163018
v 0.323052 -0.016858 -0.163018
v 0.312445 -0.021251 -0.163018
v -0.347555 -0.021251 -0.163018
v 0.275242 0.548363 -0.163018
v 0.275242 0.176555 -0.163018
v 0.272313 0.169484 -0.163018
v 0.272313 0.555434 -0.163018
v 0.265242 0.166555 -0.163018
v 0.265242 0.558363 -0.163018
v -0.300352 0.166555 -0.163018
v -0.310352 0.176555 -0.163018
v -0.307423 0.169484 -0.163018
v -0.358162 -0.016858 -0.163018
v -0.338320 0.583517 -0.145101
v -0.358162 0.582991 -0.149494
v 0.327445 0.576379 -0.160101
v -0.347555 0.583584 -0.145101
v 0.299519 0.578872 -0.145101
v 0.298158 0.578881 -0.145101
v 0.302445 0.578850 -0.145101
v 0.323052 0.578030 -0.149494
v 0.296227 0.578896 -0.145101
v 0.216195 0.579478 -0.145101
v -0.233256 0.582752 -0.145101
v 0.312445 0.578777 -0.145101
v -0.362555 0.581404 -0.160101
v 0.327445 0.575934 -0.163018
v -0.362555 0.580959 -0.163018
vn -0.2755 -0.9611 -0.0164
vn -0.2053 -0.9712 -0.1207
vn -0.7013 -0.0000 -0.7129
vn -0.9982 0.0000 -0.0593
vn -0.1378 -0.8911 -0.4324
vn 0.2745 -0.8867 0.3721
vn 0.1491 -0.8627 0.4833
vn -0.0313 0.8646 -0.5015
vn -0.0565 0.0000 -0.9984
vn -0.0321 -0.0000 -0.9995
vn -0.0185 0.8614 -0.5076
vn -0.0856 -0.0000 -0.9963
vn -0.0743 -0.0000 -0.9972
vn -0.0388 0.8651 -0.5001
vn -0.0463 0.8625 -0.5039
vn 0.0502 -0.8624 0.5037
vn -0.0463 -0.8625 -0.5039
vn -0.0682 -0.8634 -0.4998
vn 0.0788 -0.8599 0.5044
vn -0.0388 -0.8651 -0.5001
vn -0.2053 0.9712 -0.1207
vn -0.2755 0.9611 -0.0164
vn -0.1128 -0.0000 -0.9936
vn 0.1136 -0.0000 0.9935
vn 0.0502 0.8624 0.5037
vn 0.0380 0.8634 0.5031
vn 0.0809 -0.0000 0.9967
vn -0.0056 -0.8588 -0.5122
vn -0.0185 -0.8614 -0.5077
vn 0.0156 -0.8570 0.5151
vn 0.0048 -0.8558 0.5172
vn -0.3832 0.0000 0.9237
vn -0.1491 0.8627 0.4833
vn -0.2745 0.8867 0.3721
vn -0.7146 0.0000 0.6996
vn -0.0682 0.8634 -0.4998
vn -0.1378 0.8911 -0.4324
vn -0.2167 -0.0000 -0.9762
vn 0.0603 -0.0000 0.9982
vn 0.0277 0.8602 0.5093
vn 0.0156 0.8570 0.5151
vn 0.0345 -0.0000 0.9994
vn -0.0313 -0.8646 -0.5015
vn 0.1911 0.0000 0.9816
vn 0.0788 0.8599 0.5044
vn 0.0103 -0.0000 0.9999
vn -0.0098 0.0000 -1.0000
vn -0.0056 0.8588 -0.5122
vn 0.0380 -0.8634 0.5031
vn 0.3832 0.0000 0.9237
vn 0.1491 0.8627 0.4833
vn 0.2745 0.8867 0.3721
vn 0.0048 0.8558 0.5172
vn 0.0277 -0.8602 0.5093
vn 0.3827 -0.8877 0.2562
vn 0.3827 0.8877 0.2562
vn 0.7146 0.0000 0.6996
vn 0.8310 0.0000 0.5563
vn 0.7013 -0.0000 -0.7129
vn 0.2053 -0.9712 -0.1207
vn 0.2755 -0.9611 -0.0164
vn 0.9982 -0.0000 -0.0593
vn -0.2745 -0.8867 0.3721
vn 0.1378 -0.8911 -0.4324
vn -0.1491 -0.8627 0.4833
vn 0.0313 0.8646 -0.5015
vn 0.0185 0.8614 -0.5076
vn 0.0321 -0.0000 -0.9995
vn 0.0565 0.0000 -0.9984
vn 0.0856 -0.0000 -0.9963
vn 0.0463 0.8625 -0.5039
vn 0.0388 0.8651 -0.5001
vn 0.0743 0.0000 -0.9972
vn -0.0788 -0.8599 0.5044
vn 0.0682 -0.8634 -0.4998
vn 0.0463 -0.8625 -0.5039
vn -0.0502 -0.8624 0.5037
vn 0.0388 -0.8651 -0.5001
vn 0.2755 0.9611 -0.0164
vn 0.2053 0.9712 -0.1207
vn 0.1128 -0.0000 -0.9936
vn -0.0809 -0.0000 0.9967
vn -0.0380 0.8634 0.5031
vn -0.0502 0.8624 0.5037
vn -0.1136 0.0000 0.9935
vn 0.0185 -0.8614 -0.5077
vn 0.0056 -0.8588 -0.5122
vn -0.0048 -0.8558 0.5172
vn -0.0156 -0.8570 0.5151
vn 0.0056 0.8588 -0.5122
vn -0.0048 0.8558 0.5172
vn 0.2167 -0.0000 -0.9762
vn 0.1378 0.8911 -0.4324
vn 0.0682 0.8634 -0.4998
vn -0.0345 0.0000 0.9994
vn -0.0156 0.8570 0.5151
vn -0.0277 0.8602 0.5093
vn -0.0603 -0.0000 0.9982
vn 0.0313 -0.8646 -0.5015
vn -0.0788 0.8599 0.5044
vn -0.1911 0.0000 0.9816
vn -0.0103 0.0000 0.9999
vn 0.0098 0.0000 -1.0000
vn -0.0380 -0.8634 0.5031
vn -0.0277 -0.8602 0.5093
vn -0.3827 -0.8877 0.2562
vn -0.3827 0.8877 0.2562
vn -0.8310 0.0000 0.5563
vn 0.1610 -0.1610 0.9737
vn 0.1391 -0.7002 0.7002
vn 0.5774 -0.5773 0.5774
vn 0.7002 -0.1391 0.7002
vn 0.1610 -0.9737 0.1610
vn 0.7002 -0.7002 0.1391
vn 0.9737 -0.1610 0.1610
vn -0.9737 -0.1610 0.1610
vn -0.7002 -0.7002 0.1391
vn -0.5774 -0.5773 0.5774
vn -0.7002 -0.1391 0.7002
vn -0.1610 -0.9737 0.1610
vn -0.1391 -0.7002 0.7002
vn -0.1610 -0.1610 0.9737
vn 0.6870 -0.0000 0.7267
vn 0.9770 -0.0000 0.2134
vn -0.6888 -0.0000 0.7250
vn -0.1923 -0.0000 0.9813
vn 0.1905 -0.0000 0.9817
vn 0.7071 -0.7071 0.0000
vn 0.9808 -0.1951 0.0000
vn 0.1951 -0.9808 0.0000
vn 0.9808 0.1951 0.0000
vn 0.7071 0.7071 0.0000
vn 0.1951 0.9808 0.0000
vn -0.1951 0.9808 0.0000
vn -0.7071 0.7071 0.0000
vn -0.9808 0.1951 0.0000
vn -0.9808 -0.1951 0.0000
vn -0.7071 -0.7071 0.0000
vn -0.1951 -0.9808 0.0000
vn 0.6381 -0.6381 0.4310
vn 0.1770 -0.8976 0.4038
vn 0.1308 -0.6611 0.7388
vn 0.4422 -0.4422 0.7803
vn 0.0748 -0.3751 0.9240
vn 0.2587 -0.2587 0.9307
vn -0.1770 -0.8976 0.4038
vn -0.1309 -0.6611 0.7388
vn -0.0748 -0.3754 0.9238
vn -0.6381 -0.6380 0.4310
vn -0.4422 -0.4422 0.7803
vn -0.2587 -0.2587 0.9307
vn -0.8976 -0.1770 0.4038
vn -0.6611 -0.1309 0.7388
vn -0.3751 -0.0747 0.9240
vn -0.8976 0.1770 0.4038
vn -0.6611 0.1308 0.7388
vn -0.3755 0.0748 0.9238
vn -0.6380 0.6380 0.4313
vn -0.4422 0.4422 0.7803
vn -0.2585 0.2585 0.9308
vn -0.1770 0.8976 0.4038
vn -0.1309 0.6611 0.7388
vn -0.0748 0.3754 0.9238
vn 0.1770 0.8976 0.4038
vn 0.1308 0.6611 0.7388
vn 0.0748 0.3754 0.9239
vn 0.6380 0.6379 0.4313
vn 0.4422 0.4422 0.7803
vn 0.2585 0.2585 0.9308
vn 0.8976 0.1770 0.4038
vn 0.6611 0.1308 0.7388
vn 0.3755 0.0748 0.9238
vn 0.8976 -0.1771 0.4037
vn 0.6611 -0.1308 0.7388
vn 0.3751 -0.0748 0.9240
vn -0.9770 -0.0000 0.2130
vn 0.0000 -0.0000 1.0000
vn -1.0000 -0.0000 0.0000
vn 1.0000 0.0000 0.0000
usemtl material_3.001
s 1
f 13//1 14//2 15//3 16//4
f 17//5 14//2 18//6 19//7
f 20//8 21//9 22//10 23//11
f 24//12 25//13 26//14 27//15
f 28//16 29//17 30//18 31//19
f 24//12 29//17 32//20 25//13
f 15//3 33//21 34//22 16//4
f 30//18 29//17 24//12 35//23
f 36//24 37//25 38//26 39//27
f 40//28 41//29 42//30 43//31
f 44//32 45//33 46//34 47//35
f 35//23 48//36 49//37 50//38
f 51//39 52//40 53//41 54//42
f 17//5 30//18 35//23 50//38
f 48//36 35//23 24//12 27//15
f 21//9 55//43 41//29 22//10
f 56//44 57//45 37//25 36//24
f 42//30 54//42 58//46 43//31
f 51//39 39//27 38//26 52//40
f 23//11 22//10 59//47 60//48
f 28//16 36//24 39//27 61//49
f 53//41 52//40 20//8 23//11
f 62//50 63//51 57//45 56//44
f 15//3 14//2 17//5 50//38
f 27//15 37//25 57//45 48//36
f 15//3 50//38 49//37 33//21
f 49//37 63//51 64//52 33//21
f 56//44 31//19 19//7 62//50
f 56//44 36//24 28//16 31//19
f 28//16 61//49 32//20 29//17
f 49//37 48//36 57//45 63//51
f 54//42 53//41 65//53 58//46
f 32//20 61//49 66//54 55//43
f 14//2 13//1 67//55 18//6
f 26//14 20//8 52//40 38//26
f 34//22 33//21 64//52 68//56
f 25//13 21//9 20//8 26//14
f 41//29 40//28 59//47 22//10
f 27//15 26//14 38//26 37//25
f 53//41 23//11 60//48 65//53
f 18//6 69//57 62//50 19//7
f 70//58 68//56 64//52 69//57
f 41//29 55//43 66//54 42//30
f 51//39 54//42 42//30 66//54
f 18//6 67//55 70//58 69//57
f 17//5 19//7 31//19 30//18
f 32//20 55//43 21//9 25//13
f 39//27 51//39 66//54 61//49
f 71//59 72//60 73//61 74//62
f 75//63 72//60 76//64 77//65
f 78//66 79//67 80//68 81//69
f 82//70 83//71 84//72 85//73
f 86//74 87//75 88//76 89//77
f 90//78 88//76 82//70 85//73
f 71//59 74//62 91//79 92//80
f 82//70 88//76 87//75 93//81
f 94//82 95//83 96//84 97//85
f 98//86 99//87 100//88 101//89
f 102//90 103//91 65//53 60//48
f 93//81 104//92 105//93 106//94
f 107//95 108//96 109//97 110//98
f 87//75 76//64 104//92 93//81
f 106//94 83//71 82//70 93//81
f 81//69 80//68 98//86 111//99
f 97//85 96//84 112//100 113//101
f 101//89 100//88 114//102 107//95
f 94//82 110//98 109//97 95//83
f 79//67 102//90 115//103 80//68
f 89//77 116//104 94//82 97//85
f 78//66 109//97 108//96 79//67
f 113//101 112//100 45//33 44//32
f 71//59 104//92 76//64 72//60
f 112//100 96//84 83//71 106//94
f 71//59 92//80 105//93 104//92
f 46//34 45//33 105//93 92//80
f 113//101 44//32 77//65 86//74
f 113//101 86//74 89//77 97//85
f 90//78 116//104 89//77 88//76
f 112//100 106//94 105//93 45//33
f 103//91 108//96 107//95 114//102
f 111//99 117//105 116//104 90//78
f 75//63 118//106 73//61 72//60
f 78//66 84//72 95//83 109//97
f 46//34 92//80 91//79 119//107
f 85//73 84//72 78//66 81//69
f 99//87 98//86 80//68 115//103
f 84//72 83//71 96//84 95//83
f 102//90 79//67 108//96 103//91
f 75//63 77//65 44//32 47//35
f 47//35 46//34 119//107 120//108
f 111//99 98//86 101//89 117//105
f 110//98 117//105 101//89 107//95
f 75//63 47//35 120//108 118//106
f 86//74 77//65 76//64 87//75
f 111//99 90//78 85//73 81//69
f 94//82 116//104 117//105 110//98
f 59//47 115//103 102//90 60//48
f 99//87 40//28 43//31 100//88
f 58//46 114//102 100//88 43//31
f 40//28 99//87 115//103 59//47
f 65//53 103//91 114//102 58//46
f 69//57 64//52 63//51 62//50
f 124//109 125//110 126//111 127//112
f 122//113 121//114 126//111 125//110
f 123//115 127//112 126//111 121//114
f 128//116 129//117 130//118 131//119
f 132//120 133//121 130//118 129//117
f 134//122 131//119 130//118 133//121
f 224//123 127//112 123//115 219//124
f 218//125 131//119 134//122 220//126
f 228//127 124//109 127//112 224//123
f 135//128 136//129 200//129 199//128
f 137//130 135//128 199//128 198//130
f 136//129 138//131 214//131 200//129
f 138//131 139//132 215//132 214//131
f 139//132 140//133 213//133 215//132
f 140//133 141//134 211//134 213//133
f 141//134 142//135 209//135 211//134
f 142//135 143//136 208//136 209//135
f 143//136 144//137 207//137 208//136
f 144//137 145//138 210//138 207//137
f 145//138 146//139 212//139 210//138
f 146//139 137//130 198//130 212//139
f 147//140 148//141 149//142 150//143
f 150//143 149//142 151//144 152//145
f 148//141 153//146 154//147 149//142
f 149//142 154//147 155//148 151//144
f 153//146 156//149 157//150 154//147
f 154//147 157//150 158//151 155//148
f 156//149 159//152 160//153 157//150
f 157//150 160//153 161//154 158//151
f 159//152 162//155 163//156 160//153
f 160//153 163//156 164//157 161//154
f 162//155 165//158 166//159 163//156
f 163//156 166//159 167//160 164//157
f 165//158 168//161 169//162 166//159
f 166//159 169//162 170//163 167//160
f 168//161 171//164 172//165 169//162
f 169//162 172//165 173//166 170//163
f 171//164 174//167 175//168 172//165
f 172//165 175//168 176//169 173//166
f 174//167 177//170 178//171 175//168
f 175//168 178//171 179//172 176//169
f 177//170 180//173 181//174 178//171
f 178//171 181//174 182//175 179//172
f 180//173 147//140 150//143 181//174
f 181//174 150//143 152//145 182//175
f 229//176 128//116 131//119 218//125
f 132//120 206//139 205//130 122//113
f 125//110 133//121 132//120 122//113
f 124//109 134//122 133//121 125//110
f 223//177 183//177 124//109 228//127
f 184//177 185//177 186//177
f 222//177 188//177 189//177 221//177
f 221//177 189//177 183//177 223//177
f 189//177 190//177 183//177
f 190//177 191//177 183//177
f 192//177 193//177 194//177
f 183//177 191//177 195//177
f 195//177 192//177 194//177
f 183//177 195//177 194//177
f 194//177 196//177 184//177
f 196//177 185//177 184//177
f 194//177 197//177 196//177
f 194//177 193//177 197//177
f 183//177 194//177 134//122 124//109
f 203//137 216//138 129//117 128//116
f 205//130 204//128 121//114 122//113
f 204//128 201//129 123//115 121//114
f 216//138 206//139 132//120 129//117
f 128//116 229//176 231//178 202//178 203//137
f 184//177 186//177 226//177 227//177
f 186//177 187//177 225//177 226//177
f 187//177 188//177 222//177 225//177
f 123//115 201//129 230//179 219//124
f 194//177 184//177 217//177 220//126 134//122
f 184//177 227//177 217//177
usemtl material_2.008
f 1//177 2//177 3//177
f 4//177 1//177 3//177
f 4//177 3//177 5//177
f 6//177 4//177 5//177
f 6//177 5//177 7//177
f 8//177 6//177 7//177
f 8//177 7//177 9//177
f 10//177 8//177 9//177
f 11//177 10//177 9//177
f 11//177 12//177 10//177
