# Blender v2.79 (sub 0) OBJ File: ''
# www.blender.org
mtllib 131Main.mtl
o 131.001
v -0.418559 0.006925 -0.290059
v -0.435548 0.001517 -0.290059
v 0.445500 1.800000 -0.305500
v -0.445500 1.800000 -0.305500
v -0.450000 1.795500 -0.305500
v -0.450000 1.750800 -0.305500
v 0.450000 1.750800 -0.305500
v 0.450000 1.795500 -0.305500
v -0.445500 1.746300 -0.305500
v 0.445500 1.746300 -0.305500
v 0.445500 1.800000 -0.305500
v 0.448682 1.798680 -0.305500
v 0.448425 1.798420 -0.308425
v 0.445500 1.798680 -0.308682
v 0.450000 1.795500 -0.305500
v 0.448682 1.795500 -0.308682
v 0.445500 1.795500 -0.310000
v -0.445500 1.795500 -0.310000
v -0.448682 1.795500 -0.308682
v -0.448424 1.798420 -0.308425
v -0.445500 1.798680 -0.308682
v -0.450000 1.795500 -0.305500
v -0.448682 1.798680 -0.305500
v -0.445500 1.800000 -0.305500
v 0.450000 1.750800 -0.305500
v 0.448682 1.747620 -0.305500
v 0.448425 1.747880 -0.308425
v 0.448682 1.750800 -0.308682
v 0.445500 1.746300 -0.305500
v 0.445500 1.747620 -0.308682
v 0.445500 1.750800 -0.310000
v -0.445500 1.750800 -0.310000
v -0.445500 1.747620 -0.308682
v -0.448425 1.747880 -0.308425
v -0.448682 1.750800 -0.308682
v -0.445500 1.746300 -0.305500
v -0.448682 1.747620 -0.305500
v -0.450000 1.750800 -0.305500
v 0.445500 1.795500 -0.310000
v 0.445500 1.750800 -0.310000
v -0.445500 1.750800 -0.310000
v -0.445500 1.795500 -0.310000
v 0.440000 0.044081 -0.300000
v -0.440000 0.044081 -0.300000
v 0.440000 1.748170 -0.300000
v -0.440000 1.748170 -0.300000
v 0.440000 1.738170 -0.310000
v 0.440000 0.054081 -0.310000
v -0.440000 0.054081 -0.310000
v -0.440000 1.738170 -0.310000
v -0.450000 1.738170 -0.300000
v -0.450000 0.054081 -0.300000
v 0.440000 0.054081 -0.310000
v 0.447071 0.054081 -0.307071
v 0.446499 0.047582 -0.306499
v 0.440000 0.047010 -0.307071
v 0.450000 0.054081 -0.300000
v 0.447071 0.047010 -0.300000
v 0.440000 0.044081 -0.300000
v -0.440000 0.044081 -0.300000
v -0.447071 0.047010 -0.300000
v -0.446499 0.047582 -0.306499
v -0.440000 0.047010 -0.307071
v -0.450000 0.054081 -0.300000
v -0.447071 0.054081 -0.307071
v -0.440000 0.054081 -0.310000
v 0.440000 1.748170 -0.300000
v 0.447071 1.745240 -0.300000
v 0.446499 1.744670 -0.306499
v 0.440000 1.745240 -0.307071
v 0.450000 1.738170 -0.300000
v 0.447071 1.738170 -0.307071
v 0.440000 1.738170 -0.310000
v -0.440000 1.738170 -0.310000
v -0.447071 1.738170 -0.307071
v -0.446499 1.744670 -0.306499
v -0.440000 1.745240 -0.307071
v -0.450000 1.738170 -0.300000
v -0.447071 1.745240 -0.300000
v -0.440000 1.748170 -0.300000
v 0.450000 0.054081 -0.300000
v 0.450000 1.738170 -0.300000
v 0.408794 0.009906 -0.293595
v -0.408794 0.009906 -0.293595
v -0.408795 0.013442 -0.295059
v 0.408795 0.013442 -0.295059
v 0.408795 0.008442 -0.290059
v -0.408795 0.008442 -0.290059
v 0.442861 0.043683 -0.290059
v 0.413795 0.012769 -0.295059
v 0.413645 0.009337 -0.293746
v 0.446880 0.008743 -0.290059
v 0.447861 0.013365 -0.290059
v 0.444511 0.004653 -0.290059
v 0.444455 0.006777 -0.293595
v 0.446835 0.008760 -0.293309
v 0.435548 0.001517 -0.290059
v 0.435046 0.003210 -0.293595
v 0.440262 0.004165 -0.293746
v 0.439898 0.001532 -0.290059
v 0.446397 0.011827 -0.293595
v 0.442861 0.038683 -0.295059
v 0.440312 0.008712 -0.295059
v 0.435312 0.006839 -0.295059
v 0.408795 0.013442 -0.295059
v -0.408795 0.013442 -0.295059
v -0.442861 0.038683 -0.295059
v -0.442861 0.010288 -0.295059
v -0.440312 0.008712 -0.295059
v -0.440262 0.004165 -0.293746
v -0.444455 0.006777 -0.293595
v -0.435312 0.006839 -0.295059
v -0.435046 0.003210 -0.293595
v -0.439898 0.001532 -0.290059
v -0.444511 0.004653 -0.290059
v -0.418795 0.012097 -0.295059
v -0.413795 0.012769 -0.295059
v -0.413645 0.009337 -0.293746
v -0.418363 0.008524 -0.293595
v -0.408795 0.008442 -0.290059
v -0.413726 0.007997 -0.290059
v -0.447861 0.038683 -0.290059
v -0.446397 0.042219 -0.290059
v -0.446111 0.041933 -0.293309
v -0.446397 0.038683 -0.293595
v -0.447861 0.013365 -0.290059
v -0.446397 0.011827 -0.293595
v -0.446835 0.008760 -0.293309
v -0.446880 0.008743 -0.290059
v 0.442861 0.038683 -0.295059
v 0.442861 0.042219 -0.293595
v 0.446111 0.041933 -0.293309
v 0.446397 0.038683 -0.293595
v 0.408795 0.008442 -0.290059
v 0.413726 0.007997 -0.290059
v 0.442861 0.010288 -0.295059
v 0.418559 0.006925 -0.290059
v 0.418363 0.008524 -0.293595
v 0.435312 0.006839 -0.295059
v 0.440312 0.008712 -0.295059
v 0.418795 0.012097 -0.295059
v 0.413795 0.012769 -0.295059
v 0.418795 0.012097 -0.295059
v -0.442861 0.043683 -0.290059
v 0.447861 0.038683 -0.290059
v -0.442861 0.043683 -0.290059
v -0.442861 0.042219 -0.293595
v -0.447861 0.013365 -0.290059
v -0.447861 0.038683 -0.290059
v 0.446397 0.042219 -0.290059
v 0.442861 0.043683 -0.290059
v 0.442861 0.010288 -0.295059
v 0.447861 0.013365 -0.290059
v 0.447861 0.038683 -0.290059
v -0.442861 0.038683 -0.295059
v -0.418795 0.012097 -0.295059
v -0.435312 0.006839 -0.295059
v -0.413795 0.012769 -0.295059
v -0.440312 0.008712 -0.295059
v -0.442861 0.010288 -0.295059
v -0.450000 1.750800 0.165563
v -0.447861 0.013365 0.146557
v -0.450000 1.795500 0.166052
v -0.447861 0.038683 0.146834
v 0.445500 1.800000 0.163300
v -0.445500 1.800000 0.166087
v 0.448682 1.798680 0.163275
v 0.445500 1.800000 0.163300
v -0.447071 0.047010 0.146922
v -0.440000 1.748170 0.165503
v -0.444511 0.004653 0.146451
v -0.440632 0.043683 0.146866
v 0.408795 0.008442 0.143823
v 0.413726 0.007997 0.143803
v -0.442861 0.043683 0.146873
v -0.440000 0.044081 0.146868
v 0.450000 1.795500 0.163236
v -0.450000 0.054081 0.147009
v -0.450000 0.054081 0.147009
v 0.447861 0.038683 0.144032
v 0.417239 0.043683 0.144182
v 0.442861 0.043683 0.144102
v -0.446880 0.008743 0.146503
v -0.447861 0.013365 0.146557
v 0.440000 0.044081 0.144115
v 0.450000 0.054081 0.144194
v 0.447071 0.047010 0.144125
v 0.446880 0.008743 0.143708
v 0.447861 0.013365 0.143755
v -0.450000 1.738170 0.165425
v 0.448682 1.747620 0.162717
v 0.447861 0.013365 0.143755
v 0.445500 1.746300 0.162712
v 0.450000 1.750800 0.162748
v 0.450000 1.738170 0.162609
v 0.450000 0.054081 0.144194
v 0.408795 0.008442 0.143823
v 0.446397 0.042218 0.144075
v 0.447861 0.038683 0.144032
v 0.447071 1.745240 0.162696
v -0.442861 0.043683 0.146873
v -0.408795 0.008442 0.146381
v -0.450000 1.738170 0.165425
v 0.440000 1.748170 0.162750
v -0.440000 0.044081 0.146868
v -0.445500 1.800000 0.166087
v -0.445500 1.746300 0.165499
v -0.447071 1.745240 0.165493
v -0.447861 0.038683 0.146834
v -0.418559 0.006925 0.146395
v 0.444511 0.004653 0.143670
v -0.448682 1.798680 0.166082
v -0.448682 1.747620 0.165524
v 0.435548 0.001517 0.143664
v -0.446397 0.042218 0.146868
v 0.436289 0.043683 0.144123
v 0.440000 0.044081 0.144115
v -0.450000 1.750800 0.165563
v -0.435548 0.001517 0.146389
v -0.440000 1.748170 0.165503
v 0.418559 0.006925 0.143776
v 0.450000 1.738170 0.162609
v 0.440646 0.043683 0.144109
v -0.445500 1.746300 0.165499
v 0.442861 0.043683 0.144102
v 0.445500 1.746300 0.162712
v -0.436247 0.043683 0.146852
v 0.439898 0.001531 0.143651
v -0.450000 1.795500 0.166052
v -0.417085 0.043683 0.146792
v 0.440000 1.748170 0.162750
v -0.408795 0.008442 0.146381
v 0.450000 1.750800 0.162747
v -0.413726 0.007997 0.146391
v 0.450000 1.795500 0.163236
v -0.439898 0.001531 0.146403
vn -1.0000 0.0000 0.0000
vn 0.2159 0.9522 -0.2159
vn 0.7003 0.7001 -0.1393
vn 0.5774 0.5773 -0.5774
vn 0.1393 0.7001 -0.7003
vn 0.9522 0.2160 -0.2159
vn 0.7002 0.1392 -0.7002
vn 0.2159 0.2160 -0.9522
vn -0.2159 0.2160 -0.9522
vn -0.7002 0.1393 -0.7002
vn -0.5773 0.5775 -0.5773
vn -0.1393 0.7001 -0.7003
vn -0.9522 0.2160 -0.2159
vn -0.7002 0.7003 -0.1390
vn -0.2158 0.9523 -0.2159
vn 0.9522 -0.2160 -0.2159
vn 0.7003 -0.7001 -0.1393
vn 0.5775 -0.5771 -0.5775
vn 0.7002 -0.1392 -0.7002
vn 0.2159 -0.9522 -0.2159
vn 0.1393 -0.7001 -0.7003
vn 0.2159 -0.2160 -0.9522
vn -0.2159 -0.2160 -0.9522
vn -0.1393 -0.7001 -0.7003
vn -0.5775 -0.5771 -0.5775
vn -0.7002 -0.1392 -0.7002
vn -0.2160 -0.9522 -0.2160
vn -0.7002 -0.7003 -0.1390
vn -0.9522 -0.2160 -0.2159
vn -0.3828 0.9239 0.0004
vn -0.7063 0.7079 -0.0002
vn -0.9238 0.3829 0.0000
vn 0.9238 0.3829 0.0000
vn 0.7055 0.7087 0.0000
vn 0.3829 -0.9238 0.0003
vn 0.7082 -0.7060 0.0000
vn 0.9238 -0.3829 0.0000
vn 0.0000 0.0000 -1.0000
vn 0.2159 -0.2159 -0.9523
vn 0.7002 -0.1391 -0.7002
vn 0.5773 -0.5774 -0.5773
vn 0.1391 -0.7002 -0.7002
vn 0.9523 -0.2159 -0.2159
vn 0.7002 -0.7002 -0.1391
vn 0.2158 -0.9523 -0.2158
vn -0.2158 -0.9523 -0.2158
vn -0.7002 -0.7002 -0.1391
vn -0.5773 -0.5774 -0.5773
vn -0.1391 -0.7002 -0.7002
vn -0.9523 -0.2159 -0.2159
vn -0.7002 -0.1391 -0.7002
vn -0.2159 -0.2159 -0.9523
vn 0.2159 0.9523 -0.2159
vn 0.7003 0.7002 -0.1391
vn 0.5773 0.5774 -0.5773
vn 0.1391 0.7002 -0.7003
vn 0.9523 0.2159 -0.2158
vn 0.2158 0.2159 -0.9523
vn -0.2158 0.2159 -0.9523
vn -0.7002 0.1392 -0.7002
vn -0.5773 0.5774 -0.5773
vn -0.1391 0.7002 -0.7003
vn -0.9523 0.2159 -0.2158
vn -0.7003 0.7002 -0.1391
vn -0.2159 0.9523 -0.2159
vn -0.0443 -0.7023 -0.7105
vn 0.0443 -0.7023 -0.7105
vn 0.0291 -0.3760 -0.9262
vn -0.0291 -0.3760 -0.9262
vn 0.0000 1.0000 0.0000
vn -0.0515 -0.3669 -0.9288
vn -0.1009 -0.6954 -0.7115
vn 0.9782 -0.2076 -0.0000
vn 0.9337 -0.3580 -0.0000
vn 0.9284 -0.3570 -0.1032
vn 0.9729 -0.0903 -0.2130
vn 0.6853 -0.7043 -0.1854
vn 0.5222 -0.4967 -0.6933
vn 0.7773 -0.2989 -0.5537
vn -0.1202 -0.9649 -0.2336
vn -0.0803 -0.6921 -0.7174
vn 0.2462 -0.6127 -0.7510
vn 0.2852 -0.9252 -0.2503
vn 0.7253 -0.0573 -0.6861
vn -0.3102 -0.1512 -0.9386
vn -0.1536 -0.2997 -0.9416
vn -0.2462 -0.6127 -0.7510
vn -0.5222 -0.4967 -0.6933
vn 0.0157 -0.3445 -0.9386
vn 0.0803 -0.6921 -0.7174
vn 0.1202 -0.9649 -0.2336
vn -0.2852 -0.9252 -0.2503
vn -0.6853 -0.7043 -0.1854
vn 0.0764 -0.3651 -0.9278
vn 0.0515 -0.3669 -0.9288
vn 0.1009 -0.6954 -0.7115
vn 0.1634 -0.6812 -0.7137
vn 0.0652 -0.9654 -0.2523
vn 0.1492 -0.9712 -0.1858
vn 0.2512 -0.9487 -0.1921
vn -0.9523 0.2158 -0.2158
vn -0.5773 0.5774 -0.5774
vn -0.7002 0.1391 -0.7002
vn -0.9729 -0.0903 -0.2130
vn -0.7253 -0.0573 -0.6861
vn -0.7773 -0.2989 -0.5537
vn -0.9284 -0.3570 -0.1032
vn 0.2158 0.2158 -0.9523
vn 0.5773 0.5774 -0.5774
vn 0.7002 0.1391 -0.7002
vn -0.0652 -0.9654 -0.2523
vn -0.1492 -0.9712 -0.1858
vn -0.2512 -0.9487 -0.1921
vn -0.1634 -0.6812 -0.7137
vn -0.0157 -0.3445 -0.9386
vn 0.1536 -0.2997 -0.9416
vn -0.9782 -0.2076 -0.0000
vn -0.9338 -0.3578 -0.0000
vn -0.7062 0.7080 0.0000
vn -0.9239 0.3826 0.0000
vn -0.7324 -0.6809 -0.0000
vn -0.2958 -0.9552 -0.0000
vn 0.1517 -0.9884 -0.0000
vn -0.0764 -0.3651 -0.9278
vn 0.9523 0.2158 -0.2158
vn -0.2158 0.9523 -0.2158
vn -0.3826 0.9239 0.0000
vn 0.7319 -0.6814 -0.0000
vn 0.3826 0.9239 0.0000
vn 0.7054 0.7088 0.0000
vn 0.2158 0.9523 -0.2158
vn 0.3102 -0.1512 -0.9386
vn -0.2158 0.2158 -0.9523
vn 0.2948 -0.9556 -0.0000
vn 0.9239 0.3826 0.0000
vn -0.1523 -0.9883 -0.0000
vn 1.0000 0.0000 0.0000
vn 0.0897 -0.9960 -0.0000
vn 0.1536 -0.9881 -0.0000
vn 0.0000 -1.0000 0.0000
vn -0.2601 -0.9656 -0.0000
vn -0.7089 -0.7053 -0.0002
vn -0.9238 -0.3829 0.0000
vn 0.2603 -0.9655 -0.0000
vn -0.3830 -0.9238 0.0002
vn -0.9239 0.3827 0.0000
vn 0.3828 0.9238 0.0000
vn 0.9239 0.3827 0.0000
vn 0.9239 -0.3827 -0.0000
vn 0.7081 -0.7062 -0.0000
vn 0.3827 -0.9239 -0.0000
vn -0.1533 -0.9882 -0.0000
vn -0.0897 -0.9960 -0.0000
vn -0.3828 0.9238 0.0000
vn -0.3827 -0.9239 -0.0000
vn -0.7088 -0.7054 -0.0000
vn -0.9239 -0.3827 -0.0000
vn 0.3829 0.9238 0.0003
usemtl material_1.006
s 1
f 161//1 163//1 5//1 6//1
f 11//2 12//3 13//4 14//5
f 15//6 16//7 13//4 12//3
f 17//8 14//5 13//4 16//7
f 18//9 19//10 20//11 21//12
f 22//13 23//14 20//11 19//10
f 24//15 21//12 20//11 23//14
f 25//16 26//17 27//18 28//19
f 29//20 30//21 27//18 26//17
f 31//22 28//19 27//18 30//21
f 32//23 33//24 34//25 35//26
f 36//27 37//28 34//25 33//24
f 38//29 35//26 34//25 37//28
f 29//20 36//27 33//24 30//21
f 30//21 33//24 32//23 31//22
f 31//22 17//8 16//7 28//19
f 28//19 16//7 15//6 25//16
f 38//29 22//13 19//10 35//26
f 35//26 19//10 18//9 32//23
f 17//8 18//9 21//12 14//5
f 24//15 11//2 14//5 21//12
f 206//30 24//15 23//14 212//31
f 212//31 23//14 22//13 229//32
f 177//33 15//6 12//3 167//34
f 193//35 29//20 26//17 191//36
f 191//36 26//17 25//16 194//37
f 39//38 40//38 41//38 42//38
f 47//38 48//38 49//38 50//38
f 178//1 190//1 51//1 52//1
f 53//39 54//40 55//41 56//42
f 57//43 58//44 55//41 54//40
f 59//45 56//42 55//41 58//44
f 60//46 61//47 62//48 63//49
f 64//50 65//51 62//48 61//47
f 66//52 63//49 62//48 65//51
f 67//53 68//54 69//55 70//56
f 71//57 72//7 69//55 68//54
f 73//58 70//56 69//55 72//7
f 74//59 75//60 76//61 77//62
f 78//63 79//64 76//61 75//60
f 80//65 77//62 76//61 79//64
f 53//39 73//58 72//7 54//40
f 54//40 72//7 71//57 57//43
f 64//50 78//63 75//60 65//51
f 65//51 75//60 74//59 66//52
f 66//52 53//39 56//42 63//49
f 63//49 56//42 59//45 60//46
f 80//65 67//53 70//56 77//62
f 77//62 70//56 73//58 74//59
f 83//66 84//67 85//68 86//69
f 216//70 223//70 89//70
f 86//69 90//71 91//72 83//66
f 189//73 188//74 92//75 93//76
f 94//77 95//78 96//79 92//75
f 97//80 98//81 99//82 100//83
f 93//76 92//75 96//79 101//84
f 102//38 103//38 104//38
f 102//38 105//38 106//38 107//38
f 108//85 109//86 110//87 111//88
f 112//89 113//90 110//87 109//86
f 2//91 114//92 110//87 113//90
f 115//93 111//88 110//87 114//92
f 116//94 117//95 118//96 119//97
f 85//68 84//67 118//96 117//95
f 120//98 121//99 118//96 84//67
f 1//100 119//97 118//96 121//99
f 122//101 123//64 124//102 125//103
f 126//104 127//105 128//106 129//107
f 130//108 131//56 132//109 133//110
f 83//66 134//111 120//98 84//67
f 134//111 83//66 91//72 135//112
f 102//38 136//38 103//38
f 137//113 135//112 91//72 138//114
f 139//115 140//116 99//82 98//81
f 102//38 141//38 142//38
f 184//117 126//104 129//107 183//118
f 1//100 2//91 113//90 119//97
f 119//97 113//90 112//89 116//94
f 215//119 123//64 122//101 209//120
f 171//121 115//93 114//92 236//122
f 236//122 114//92 2//91 219//123
f 143//124 138//114 91//72 90//71
f 93//76 101//84 133//110 145//125
f 146//126 147//62 124//102 123//64
f 108//85 111//88 128//106 127//105
f 115//93 129//107 128//106 111//88
f 183//118 129//107 115//93 171//121
f 201//127 146//126 123//64 215//119
f 94//77 100//83 99//82 95//78
f 138//114 143//124 139//115 98//81
f 126//104 122//101 125//103 127//105
f 102//38 142//38 105//38
f 188//74 211//128 94//77 92//75
f 182//129 198//130 150//54 151//131
f 152//132 101//84 96//79 95//78
f 145//125 133//110 132//109 150//54
f 147//62 146//126 151//131 131//56
f 223//70 225//70 89//70
f 227//70 144//70 172//70
f 172//70 144//70 175//70
f 155//133 125//103 124//102 147//62
f 156//38 157//38 107//38
f 107//38 106//38 158//38
f 107//38 158//38 156//38
f 107//38 157//38 159//38
f 107//38 159//38 160//38
f 127//105 125//103 155//133 108//85
f 137//113 138//114 98//81 97//80
f 211//128 228//134 100//83 94//77
f 151//131 150//54 132//109 131//56
f 101//84 152//132 130//108 133//110
f 141//38 102//38 104//38
f 152//132 95//78 99//82 140//116
f 198//130 199//135 145//125 150//54
f 228//134 214//136 97//80 100//83
f 147//62 131//56 130//108 155//133
f 7//137 8//137 235//137 233//137
f 120//98 232//138 234//139 121//99
f 144//70 227//70 230//70
f 9//140 10//140 226//140 224//140
f 137//113 97//80 214//136 221//141
f 37//28 213//142 218//143 38//29
f 1//100 210//144 219//123 2//91
f 121//99 234//139 210//144 1//100
f 36//27 207//145 213//142 37//28
f 43//140 217//140 205//140 44//140
f 45//70 46//70 220//70 204//70
f 78//63 203//146 208//119 79//64
f 67//53 231//147 200//130 68//54
f 68//54 200//130 222//148 71//57
f 87//140 197//140 202//140 88//140
f 81//137 82//137 195//137 196//137
f 57//43 186//149 187//150 58//44
f 58//44 187//150 185//151 59//45
f 89//70 181//70 216//70
f 144//70 230//70 181//70 89//70
f 153//137 154//137 180//137 192//137
f 135//112 137//113 221//141 174//152
f 134//111 135//112 174//152 173//153
f 79//64 208//119 170//154 80//65
f 60//46 176//155 169//156 61//47
f 61//47 169//156 179//157 64//50
f 11//2 168//158 167//34 12//3
f 3//70 4//70 166//70 165//70
f 148//1 162//1 164//1 149//1
