# Blender v2.79 (sub 0) OBJ File: ''
# www.blender.org
mtllib 131Main.mtl
o 131.001
v -0.450000 0.808598 0.165563
v -0.450000 0.853298 0.166052
v -0.450000 0.853298 -0.305500
v -0.450000 0.808598 -0.305500
v 0.445500 0.857798 -0.305500
v 0.448682 0.856478 -0.305500
v 0.448425 0.856218 -0.308425
v 0.445500 0.856478 -0.308682
v 0.450000 0.853298 -0.305500
v 0.448682 0.853298 -0.308682
v 0.445500 0.853298 -0.310000
v -0.445500 0.853298 -0.310000
v -0.448682 0.853298 -0.308682
v -0.448424 0.856218 -0.308425
v -0.445500 0.856478 -0.308682
v -0.450000 0.853298 -0.305500
v -0.448682 0.856478 -0.305500
v -0.445500 0.857798 -0.305500
v 0.450000 0.808598 -0.305500
v 0.448682 0.805418 -0.305500
v 0.448425 0.805678 -0.308425
v 0.448682 0.808598 -0.308682
v 0.445500 0.804098 -0.305500
v 0.445500 0.805418 -0.308682
v 0.445500 0.808598 -0.310000
v -0.445500 0.808598 -0.310000
v -0.445500 0.805418 -0.308682
v -0.448425 0.805678 -0.308425
v -0.448682 0.808598 -0.308682
v -0.445500 0.804098 -0.305500
v -0.448682 0.805418 -0.305500
v -0.450000 0.808598 -0.305500
v -0.445500 0.857798 0.166087
v -0.448682 0.856478 0.166082
v -0.450000 0.853298 0.166052
v 0.450000 0.853298 0.163236
v 0.448682 0.856478 0.163275
v 0.445500 0.804098 0.162712
v 0.448682 0.805418 0.162717
v 0.450000 0.808598 0.162748
v 0.445500 0.853298 -0.310000
v 0.445500 0.808598 -0.310000
v -0.445500 0.808598 -0.310000
v -0.445500 0.853298 -0.310000
v 0.440000 0.795968 -0.310000
v 0.440000 -0.888121 -0.310000
v -0.440000 -0.888121 -0.310000
v -0.440000 0.795968 -0.310000
v -0.450000 -0.888121 0.147009
v -0.450000 0.795968 0.165425
v -0.450000 0.795968 -0.300000
v -0.450000 -0.888121 -0.300000
v 0.440000 -0.888121 -0.310000
v 0.447071 -0.888121 -0.307071
v 0.446499 -0.894620 -0.306499
v 0.440000 -0.895192 -0.307071
v 0.450000 -0.888121 -0.300000
v 0.447071 -0.895192 -0.300000
v 0.440000 -0.898121 -0.300000
v -0.440000 -0.898121 -0.300000
v -0.447071 -0.895192 -0.300000
v -0.446499 -0.894620 -0.306499
v -0.440000 -0.895192 -0.307071
v -0.450000 -0.888121 -0.300000
v -0.447071 -0.888121 -0.307071
v -0.440000 -0.888121 -0.310000
v 0.440000 0.805968 -0.300000
v 0.447071 0.803038 -0.300000
v 0.446499 0.802468 -0.306499
v 0.440000 0.803038 -0.307071
v 0.450000 0.795968 -0.300000
v 0.447071 0.795968 -0.307071
v 0.440000 0.795968 -0.310000
v -0.440000 0.795968 -0.310000
v -0.447071 0.795968 -0.307071
v -0.446499 0.802468 -0.306499
v -0.440000 0.803038 -0.307071
v -0.450000 0.795968 -0.300000
v -0.447071 0.803038 -0.300000
v -0.440000 0.805968 -0.300000
v 0.408794 -0.932296 -0.293595
v -0.408794 -0.932296 -0.293595
v -0.408795 -0.928760 -0.295059
v 0.408795 -0.928760 -0.295059
v 0.436289 -0.898519 0.144123
v 0.440646 -0.898519 0.144109
v 0.442861 -0.898519 -0.290059
v 0.413795 -0.929433 -0.295059
v 0.413645 -0.932865 -0.293746
v 0.447861 -0.928837 0.143755
v 0.446880 -0.933459 0.143708
v 0.446880 -0.933459 -0.290059
v 0.447861 -0.928837 -0.290059
v 0.444511 -0.937549 -0.290059
v 0.444455 -0.935425 -0.293595
v 0.446835 -0.933442 -0.293309
v 0.435548 -0.940685 -0.290059
v 0.435046 -0.938992 -0.293595
v 0.440262 -0.938037 -0.293746
v 0.439898 -0.940670 -0.290059
v 0.446397 -0.930375 -0.293595
v 0.442861 -0.903519 -0.295059
v 0.440312 -0.933490 -0.295059
v 0.435312 -0.935363 -0.295059
v 0.408795 -0.928760 -0.295059
v -0.408795 -0.928760 -0.295059
v -0.442861 -0.903519 -0.295059
v -0.442861 -0.931914 -0.295059
v -0.440312 -0.933490 -0.295059
v -0.440262 -0.938037 -0.293746
v -0.444455 -0.935425 -0.293595
v -0.435312 -0.935363 -0.295059
v -0.435046 -0.938992 -0.293595
v -0.435548 -0.940685 -0.290059
v -0.439898 -0.940670 -0.290059
v -0.444511 -0.937549 -0.290059
v -0.418795 -0.930105 -0.295059
v -0.413795 -0.929433 -0.295059
v -0.413645 -0.932865 -0.293746
v -0.418363 -0.933678 -0.293595
v -0.408795 -0.933760 -0.290059
v -0.413726 -0.934205 -0.290059
v -0.418559 -0.935277 -0.290059
v -0.447861 -0.903519 -0.290059
v -0.446397 -0.899983 -0.290059
v -0.446111 -0.900269 -0.293309
v -0.446397 -0.903519 -0.293595
v -0.447861 -0.928837 -0.290059
v -0.446397 -0.930375 -0.293595
v -0.446835 -0.933442 -0.293309
v -0.446880 -0.933459 -0.290059
v 0.442861 -0.903519 -0.295059
v 0.442861 -0.899983 -0.293595
v 0.446111 -0.900269 -0.293309
v 0.446397 -0.903519 -0.293595
v 0.408795 -0.933760 -0.290059
v 0.413726 -0.934205 -0.290059
v 0.442861 -0.931914 -0.295059
v 0.418559 -0.935277 -0.290059
v 0.418363 -0.933678 -0.293595
v 0.435312 -0.935363 -0.295059
v 0.440312 -0.933490 -0.295059
v 0.418795 -0.930105 -0.295059
v 0.413795 -0.929433 -0.295059
v -0.447861 -0.928837 0.146557
v -0.446880 -0.933459 0.146503
v -0.446397 -0.899984 0.146868
v -0.447861 -0.903519 0.146834
v -0.444511 -0.937549 0.146451
v -0.439898 -0.940671 0.146403
v -0.435548 -0.940685 0.146389
v 0.418795 -0.930105 -0.295059
v 0.447861 -0.903519 -0.290059
v -0.442861 -0.898519 -0.290059
v -0.442861 -0.899983 -0.293595
v -0.442861 -0.898519 0.146873
v 0.444511 -0.937549 0.143670
v 0.442861 -0.898519 0.144102
v 0.446397 -0.899984 0.144075
v 0.446397 -0.899983 -0.290059
v 0.442861 -0.898519 -0.290059
v 0.442861 -0.931914 -0.295059
v 0.442861 -0.898519 0.144102
v -0.436247 -0.898519 0.146852
v -0.442861 -0.898519 -0.290059
v -0.440632 -0.898519 0.146866
v -0.442861 -0.898519 0.146873
v -0.442861 -0.903519 -0.295059
v -0.418795 -0.930105 -0.295059
v -0.435312 -0.935363 -0.295059
v -0.413795 -0.929433 -0.295059
v -0.440312 -0.933490 -0.295059
v -0.442861 -0.931914 -0.295059
v 0.439898 -0.940671 0.143651
v 0.447861 -0.903519 0.144032
v 0.435548 -0.940685 0.143664
v 0.450000 0.808598 -0.305500
v 0.450000 0.853298 -0.305500
v 0.450000 0.853298 0.163236
v 0.450000 0.808598 0.162747
v -0.408795 -0.933760 0.146381
v -0.413726 -0.934205 0.146391
v -0.417085 -0.898519 0.146792
v -0.445500 0.804098 -0.305500
v 0.445500 0.804098 -0.305500
v 0.445500 0.804098 0.162712
v -0.445500 0.804098 0.165499
v 0.418559 -0.935277 0.143776
v -0.448682 0.805418 0.165524
v -0.450000 0.808598 0.165563
v -0.418559 -0.935277 0.146395
v -0.445500 0.804098 0.165499
v 0.440000 -0.898121 -0.300000
v 0.440000 -0.898121 0.144115
v -0.440000 -0.898121 0.146868
v -0.440000 -0.898121 -0.300000
v 0.440000 0.805968 -0.300000
v -0.440000 0.805968 -0.300000
v -0.440000 0.805968 0.165503
v 0.440000 0.805968 0.162750
v -0.450000 0.795968 0.165425
v -0.447071 0.803038 0.165493
v 0.440000 0.805968 0.162750
v 0.447071 0.803038 0.162696
v 0.450000 0.795968 0.162609
v 0.408795 -0.933760 -0.290059
v 0.408795 -0.933760 0.143823
v -0.408795 -0.933760 0.146381
v -0.408795 -0.933760 -0.290059
v 0.450000 -0.888121 -0.300000
v 0.450000 0.795968 -0.300000
v 0.450000 0.795968 0.162609
v 0.450000 -0.888121 0.144194
v 0.450000 -0.888121 0.144194
v 0.447071 -0.895192 0.144125
v 0.440000 -0.898121 0.144115
v 0.417239 -0.898519 0.144182
v 0.447861 -0.928837 -0.290059
v 0.447861 -0.903519 -0.290059
v 0.447861 -0.903519 0.144032
v 0.447861 -0.928837 0.143755
v 0.413726 -0.934205 0.143803
v 0.408795 -0.933760 0.143823
v -0.440000 0.805968 0.165503
v -0.440000 -0.898121 0.146868
v -0.447071 -0.895192 0.146922
v -0.450000 -0.888121 0.147009
v 0.445500 0.857798 0.163300
v 0.445500 0.857798 -0.305500
v -0.445500 0.857798 -0.305500
v -0.445500 0.857798 0.166087
v 0.445500 0.857798 0.163300
v -0.447861 -0.928837 -0.290059
v -0.447861 -0.928837 0.146557
v -0.447861 -0.903519 0.146834
v -0.447861 -0.903519 -0.290059
vn -1.0000 0.0000 0.0000
vn 0.2162 0.9521 -0.2162
vn 0.7003 0.7001 -0.1393
vn 0.5775 0.5771 -0.5775
vn 0.1393 0.7001 -0.7003
vn 0.9522 0.2160 -0.2159
vn 0.7002 0.1392 -0.7002
vn 0.2159 0.2160 -0.9522
vn -0.2159 0.2160 -0.9522
vn -0.7002 0.1393 -0.7002
vn -0.5773 0.5775 -0.5773
vn -0.1393 0.7001 -0.7003
vn -0.9522 0.2160 -0.2159
vn -0.7003 0.7001 -0.1393
vn -0.2160 0.9522 -0.2161
vn 0.9522 -0.2160 -0.2159
vn 0.7003 -0.7001 -0.1393
vn 0.5775 -0.5771 -0.5775
vn 0.7002 -0.1392 -0.7002
vn 0.2162 -0.9521 -0.2162
vn 0.1393 -0.7001 -0.7003
vn 0.2159 -0.2160 -0.9522
vn -0.2159 -0.2160 -0.9522
vn -0.1393 -0.7001 -0.7003
vn -0.5775 -0.5771 -0.5775
vn -0.7002 -0.1392 -0.7002
vn -0.2162 -0.9521 -0.2162
vn -0.7002 -0.7003 -0.1390
vn -0.9522 -0.2160 -0.2159
vn -0.3832 0.9237 0.0000
vn -0.7063 0.7079 -0.0003
vn -0.9238 0.3829 0.0000
vn 0.9238 0.3829 0.0000
vn 0.7055 0.7087 0.0000
vn 0.3832 -0.9237 0.0000
vn 0.7082 -0.7060 0.0000
vn 0.9238 -0.3829 0.0000
vn 0.0000 0.0000 -1.0000
vn 0.2159 -0.2159 -0.9523
vn 0.7002 -0.1391 -0.7002
vn 0.5774 -0.5774 -0.5773
vn 0.1391 -0.7002 -0.7002
vn 0.9523 -0.2159 -0.2159
vn 0.7002 -0.7002 -0.1391
vn 0.2159 -0.9523 -0.2159
vn -0.2159 -0.9523 -0.2159
vn -0.7002 -0.7002 -0.1391
vn -0.5773 -0.5774 -0.5773
vn -0.1391 -0.7002 -0.7002
vn -0.9523 -0.2159 -0.2159
vn -0.7002 -0.1391 -0.7002
vn -0.2159 -0.2159 -0.9523
vn 0.2159 0.9523 -0.2159
vn 0.7003 0.7002 -0.1391
vn 0.5773 0.5774 -0.5773
vn 0.1391 0.7002 -0.7003
vn 0.9523 0.2159 -0.2158
vn 0.2158 0.2159 -0.9523
vn -0.2158 0.2159 -0.9523
vn -0.7002 0.1392 -0.7002
vn -0.5773 0.5774 -0.5773
vn -0.1391 0.7002 -0.7003
vn -0.9523 0.2159 -0.2158
vn -0.7003 0.7002 -0.1391
vn -0.2159 0.9523 -0.2159
vn -0.0443 -0.7023 -0.7105
vn 0.0443 -0.7023 -0.7105
vn 0.0291 -0.3759 -0.9262
vn -0.0291 -0.3759 -0.9262
vn 0.0000 1.0000 -0.0000
vn -0.0515 -0.3669 -0.9288
vn -0.1009 -0.6954 -0.7115
vn 0.9782 -0.2076 -0.0000
vn 0.9337 -0.3580 -0.0000
vn 0.9284 -0.3570 -0.1032
vn 0.9729 -0.0903 -0.2130
vn 0.6853 -0.7043 -0.1854
vn 0.5222 -0.4967 -0.6933
vn 0.7773 -0.2989 -0.5537
vn -0.1202 -0.9649 -0.2336
vn -0.0803 -0.6921 -0.7173
vn 0.2462 -0.6127 -0.7510
vn 0.2852 -0.9252 -0.2503
vn 0.7253 -0.0572 -0.6861
vn -0.3102 -0.1512 -0.9386
vn -0.1536 -0.2997 -0.9416
vn -0.2462 -0.6127 -0.7510
vn -0.5222 -0.4967 -0.6933
vn 0.0157 -0.3445 -0.9386
vn 0.0803 -0.6921 -0.7173
vn 0.1202 -0.9649 -0.2336
vn -0.2852 -0.9252 -0.2503
vn -0.6853 -0.7043 -0.1854
vn 0.0764 -0.3651 -0.9278
vn 0.0515 -0.3669 -0.9288
vn 0.1009 -0.6954 -0.7115
vn 0.1634 -0.6812 -0.7137
vn 0.0653 -0.9655 -0.2523
vn 0.1493 -0.9712 -0.1858
vn 0.2512 -0.9487 -0.1921
vn -0.9523 0.2158 -0.2158
vn -0.7002 0.7002 -0.1391
vn -0.7002 0.1391 -0.7002
vn -0.9729 -0.0903 -0.2130
vn -0.7253 -0.0572 -0.6861
vn -0.7773 -0.2989 -0.5537
vn -0.9284 -0.3570 -0.1032
vn 0.2158 0.2158 -0.9523
vn 0.1391 0.7002 -0.7002
vn 0.7002 0.1391 -0.7002
vn -0.0653 -0.9655 -0.2523
vn -0.1493 -0.9712 -0.1858
vn -0.2512 -0.9487 -0.1921
vn -0.1634 -0.6812 -0.7137
vn -0.0157 -0.3445 -0.9386
vn 0.1536 -0.2997 -0.9416
vn -0.9782 -0.2076 -0.0000
vn -0.9338 -0.3578 -0.0000
vn -0.7062 0.7080 0.0000
vn -0.9239 0.3826 0.0000
vn -0.7324 -0.6809 -0.0000
vn -0.2958 -0.9553 -0.0000
vn 0.1517 -0.9884 -0.0000
vn -0.0764 -0.3651 -0.9278
vn 0.9523 0.2158 -0.2158
vn -0.2158 0.9523 -0.2158
vn -0.1391 0.7002 -0.7002
vn -0.3826 0.9239 0.0000
vn 0.7320 -0.6814 -0.0000
vn 0.3826 0.9239 0.0000
vn 0.7054 0.7088 0.0000
vn 0.7002 0.7002 -0.1391
vn 0.2158 0.9523 -0.2158
vn 0.3102 -0.1512 -0.9386
vn -0.2158 0.2158 -0.9523
vn 0.2947 -0.9556 -0.0000
vn 0.9239 0.3826 0.0000
vn -0.1523 -0.9883 -0.0000
vn 1.0000 0.0000 0.0000
vn 0.0899 -0.9960 0.0000
vn 0.1536 -0.9881 0.0000
vn 0.0000 -1.0000 0.0000
vn -0.2600 -0.9656 0.0000
vn -0.7089 -0.7053 0.0000
vn -0.9238 -0.3829 0.0000
vn 0.2605 -0.9655 -0.0000
vn -0.3830 -0.9238 0.0002
vn -0.9239 0.3827 0.0000
vn 0.3828 0.9238 0.0000
vn 0.9239 0.3827 0.0000
vn 0.9239 -0.3827 0.0000
vn 0.7081 -0.7061 0.0000
vn 0.3827 -0.9239 0.0000
vn -0.1533 -0.9882 0.0000
vn -0.0899 -0.9960 0.0000
vn -0.3828 0.9238 0.0000
vn -0.3827 -0.9239 0.0000
vn -0.7088 -0.7054 0.0000
vn -0.9239 -0.3827 0.0000
vn 0.3829 0.9238 0.0003
vn 0.0004 -0.9935 0.1140
vn 0.0001 -0.9935 0.1137
usemtl material_1.006
s 1
f 1//1 2//1 3//1 4//1
f 5//2 6//3 7//4 8//5
f 9//6 10//7 7//4 6//3
f 11//8 8//5 7//4 10//7
f 12//9 13//10 14//11 15//12
f 16//13 17//14 14//11 13//10
f 18//15 15//12 14//11 17//14
f 19//16 20//17 21//18 22//19
f 23//20 24//21 21//18 20//17
f 25//22 22//19 21//18 24//21
f 26//23 27//24 28//25 29//26
f 30//27 31//28 28//25 27//24
f 32//29 29//26 28//25 31//28
f 23//20 30//27 27//24 24//21
f 24//21 27//24 26//23 25//22
f 25//22 11//8 10//7 22//19
f 22//19 10//7 9//6 19//16
f 32//29 16//13 13//10 29//26
f 29//26 13//10 12//9 26//23
f 11//8 12//9 15//12 8//5
f 18//15 5//2 8//5 15//12
f 33//30 18//15 17//14 34//31
f 34//31 17//14 16//13 35//32
f 36//33 9//6 6//3 37//34
f 38//35 23//20 20//17 39//36
f 39//36 20//17 19//16 40//37
f 41//38 42//38 43//38 44//38
f 45//38 46//38 47//38 48//38
f 49//1 50//1 51//1 52//1
f 53//39 54//40 55//41 56//42
f 57//43 58//44 55//41 54//40
f 59//45 56//42 55//41 58//44
f 60//46 61//47 62//48 63//49
f 64//50 65//51 62//48 61//47
f 66//52 63//49 62//48 65//51
f 67//53 68//54 69//55 70//56
f 71//57 72//7 69//55 68//54
f 73//58 70//56 69//55 72//7
f 74//59 75//60 76//61 77//62
f 78//63 79//64 76//61 75//60
f 80//65 77//62 76//61 79//64
f 53//39 73//58 72//7 54//40
f 54//40 72//7 71//57 57//43
f 64//50 78//63 75//60 65//51
f 65//51 75//60 74//59 66//52
f 66//52 53//39 56//42 63//49
f 63//49 56//42 59//45 60//46
f 80//65 67//53 70//56 77//62
f 77//62 70//56 73//58 74//59
f 81//66 82//67 83//68 84//69
f 85//70 86//70 87//70
f 84//69 88//71 89//72 81//66
f 90//73 91//74 92//75 93//76
f 94//77 95//78 96//79 92//75
f 97//80 98//81 99//82 100//83
f 93//76 92//75 96//79 101//84
f 102//38 103//38 104//38
f 102//38 105//38 106//38 107//38
f 108//85 109//86 110//87 111//88
f 112//89 113//90 110//87 109//86
f 114//91 115//92 110//87 113//90
f 116//93 111//88 110//87 115//92
f 117//94 118//95 119//96 120//97
f 83//68 82//67 119//96 118//95
f 121//98 122//99 119//96 82//67
f 123//100 120//97 119//96 122//99
f 124//101 125//102 126//61 127//103
f 128//104 129//105 130//106 131//107
f 132//108 133//109 134//55 135//110
f 81//66 136//111 121//98 82//67
f 136//111 81//66 89//72 137//112
f 102//38 138//38 103//38
f 139//113 137//112 89//72 140//114
f 141//115 142//116 99//82 98//81
f 102//38 143//38 144//38
f 145//117 128//104 131//107 146//118
f 123//100 114//91 113//90 120//97
f 120//97 113//90 112//89 117//94
f 147//119 125//102 124//101 148//120
f 149//121 116//93 115//92 150//122
f 150//122 115//92 114//91 151//123
f 152//124 140//114 89//72 88//71
f 93//76 101//84 135//110 153//125
f 154//126 155//127 126//61 125//102
f 108//85 111//88 130//106 129//105
f 116//93 131//107 130//106 111//88
f 146//118 131//107 116//93 149//121
f 156//128 154//126 125//102 147//119
f 94//77 100//83 99//82 95//78
f 140//114 152//124 141//115 98//81
f 128//104 124//101 127//103 129//105
f 102//38 144//38 105//38
f 91//74 157//129 94//77 92//75
f 158//130 159//131 160//132 161//133
f 162//134 101//84 96//79 95//78
f 153//125 135//110 134//55 160//132
f 155//127 154//126 161//133 133//109
f 86//70 163//70 87//70
f 164//70 165//70 166//70
f 166//70 165//70 167//70
f 168//135 127//103 126//61 155//127
f 169//38 170//38 107//38
f 107//38 106//38 171//38
f 107//38 171//38 169//38
f 107//38 170//38 172//38
f 107//38 172//38 173//38
f 129//105 127//103 168//135 108//85
f 139//113 140//114 98//81 97//80
f 157//129 174//136 100//83 94//77
f 161//133 160//132 134//55 133//109
f 101//84 162//134 132//108 135//110
f 143//38 102//38 104//38
f 162//134 95//78 99//82 142//116
f 159//131 175//137 153//125 160//132
f 174//136 176//138 97//80 100//83
f 155//127 133//109 132//108 168//135
f 177//139 178//139 179//139 180//139
f 121//98 181//140 182//141 122//99
f 165//70 164//70 183//70
f 184//142 185//142 186//142 187//142
f 139//113 97//80 176//138 188//143
f 31//28 189//144 190//145 32//29
f 123//100 191//146 151//123 114//91
f 122//99 182//141 191//146 123//100
f 30//27 192//147 189//144 31//28
f 193//142 194//142 195//142 196//142
f 197//70 198//70 199//70 200//70
f 78//63 201//148 202//119 79//64
f 67//53 203//149 204//131 68//54
f 68//54 204//131 205//150 71//57
f 206//142 207//142 208//142 209//142
f 210//139 211//139 212//139 213//139
f 57//43 214//151 215//152 58//44
f 58//44 215//152 216//153 59//45
f 87//70 217//70 85//70
f 165//70 183//70 217//70 87//70
f 218//139 219//139 220//139 221//139
f 137//112 139//113 188//143 222//154
f 136//111 137//112 222//154 223//155
f 79//64 202//119 224//156 80//65
f 60//46 225//157 226//158 61//47
f 61//47 226//158 227//159 64//50
f 5//2 228//160 37//34 6//3
f 229//70 230//70 231//70 232//70
f 233//1 234//1 235//1 236//1
f 39//161 232//161 231//161 190//161 189//161 192//162 30//161 23//161 38//161
