# Blender v2.79 (sub 0) OBJ File: ''
# www.blender.org
mtllib 131RightDoor.mtl
o 131
v 0.236599 -0.797680 -0.011555
v 0.241599 -0.802680 -0.011555
v -0.283229 -0.802680 -0.011555
v -0.283229 0.871509 -0.011554
v 0.241599 0.871509 -0.011554
v 0.241599 -0.802680 0.033200
v 0.241599 0.871509 0.033201
v -0.283229 0.871509 0.033201
v -0.283229 -0.802680 0.033200
v 0.241599 -0.807680 -0.006555
v 0.241599 -0.807680 0.028200
v -0.283229 -0.807680 0.028200
v -0.283229 -0.807680 -0.006555
v 0.246599 -0.802680 -0.006555
v 0.246599 0.871509 -0.006554
v 0.246599 0.871509 0.028201
v 0.246599 -0.802680 0.028200
v -0.288228 -0.802680 0.028200
v -0.288228 0.871509 0.028201
v -0.288228 0.871509 -0.006554
v -0.288228 -0.802680 -0.006555
v 0.241599 0.871509 0.033201
v 0.245134 0.871509 0.031736
v 0.241599 0.875049 0.031736
v 0.246599 0.871509 0.028201
v 0.245134 0.875049 0.028201
v 0.241599 0.876509 0.028201
v 0.241599 -0.802680 -0.011555
v 0.245134 -0.802680 -0.010091
v 0.244848 -0.805930 -0.009805
v 0.241599 -0.806215 -0.010091
v 0.246599 -0.802680 -0.006555
v 0.245134 -0.806215 -0.006555
v 0.241599 -0.807680 -0.006555
v 0.241599 0.876509 -0.006554
v 0.245134 0.875049 -0.006554
v 0.244848 0.874759 -0.009804
v 0.241599 0.875049 -0.010090
v 0.245134 0.871509 -0.010090
v 0.241599 0.871509 -0.011554
v -0.283229 -0.807680 -0.006555
v -0.286764 -0.806215 -0.006555
v -0.286478 -0.805930 -0.009805
v -0.283229 -0.806215 -0.010091
v -0.288228 -0.802680 -0.006555
v -0.286764 -0.802680 -0.010091
v -0.283229 -0.802680 -0.011555
v -0.283229 0.871509 -0.011554
v -0.286764 0.871509 -0.010090
v -0.286478 0.874759 -0.009804
v -0.283229 0.875049 -0.010090
v -0.288228 0.871509 -0.006554
v -0.286764 0.875049 -0.006554
v -0.283229 0.876509 -0.006554
v -0.283229 -0.802680 0.033200
v -0.286764 -0.802680 0.031735
v -0.286478 -0.805930 0.031449
v -0.283229 -0.806215 0.031735
v -0.288228 -0.802680 0.028200
v -0.286764 -0.806215 0.028200
v -0.283229 -0.807680 0.028200
v -0.283229 0.876509 0.028201
v -0.286764 0.875049 0.028201
v -0.286478 0.874759 0.031450
v -0.283229 0.875049 0.031736
v -0.288228 0.871509 0.028201
v -0.286764 0.871509 0.031736
v -0.283229 0.871509 0.033201
v 0.241599 -0.807680 0.028200
v 0.245134 -0.806215 0.028200
v 0.244848 -0.805930 0.031449
v 0.241599 -0.806215 0.031735
v 0.246599 -0.802680 0.028200
v 0.245134 -0.802680 0.031735
v 0.241599 -0.802680 0.033200
v 0.241599 0.876509 -0.006554
v -0.283229 0.876509 -0.006554
v -0.283229 0.876509 0.028201
v 0.241599 0.876509 0.028201
v -0.215587 -0.797680 -0.011555
v -0.215587 0.846709 -0.011554
v 0.236599 0.846709 -0.011554
vn 0.0000 0.0000 -1.0000
vn 0.0000 -0.0000 1.0000
vn 0.0000 -1.0000 0.0000
vn 1.0000 0.0000 0.0000
vn -1.0000 -0.0000 0.0000
vn 0.2158 -0.2158 -0.9523
vn 0.5840 -0.1860 -0.7902
vn 0.5773 -0.5774 -0.5773
vn 0.1391 -0.7002 -0.7003
vn 0.9384 -0.3238 -0.1209
vn 0.7002 -0.7002 -0.1391
vn 0.2159 -0.9523 -0.2158
vn 0.2157 0.9523 -0.2157
vn 0.3207 0.9389 -0.1250
vn 0.2874 0.6769 -0.6777
vn 0.1392 0.7004 -0.7000
vn 0.2159 0.2156 -0.9523
vn 0.3215 0.1251 -0.9386
vn -0.2159 -0.9523 -0.2158
vn -0.7003 -0.7002 -0.1391
vn -0.5774 -0.5774 -0.5773
vn -0.1391 -0.7002 -0.7003
vn -0.9523 -0.2158 -0.2158
vn -0.7003 -0.1391 -0.7002
vn -0.2158 -0.2158 -0.9523
vn -0.2159 0.2156 -0.9523
vn -0.7003 0.1390 -0.7002
vn -0.5775 0.5771 -0.5775
vn -0.1392 0.7004 -0.7000
vn -0.9523 0.2156 -0.2158
vn -0.7001 0.7004 -0.1391
vn -0.2155 0.9524 -0.2154
vn -0.2159 -0.2159 0.9522
vn -0.7003 -0.1391 0.7002
vn -0.5774 -0.5774 0.5773
vn -0.1392 -0.7002 0.7002
vn -0.9523 -0.2158 0.2158
vn -0.7003 -0.7002 0.1391
vn -0.2159 -0.9522 0.2159
vn -0.2155 0.9524 0.2155
vn -0.7001 0.7004 0.1392
vn -0.5772 0.5775 0.5774
vn -0.1391 0.7001 0.7004
vn -0.9523 0.2156 0.2159
vn -0.7003 0.1390 0.7002
vn -0.2160 0.2157 0.9523
vn 0.2159 -0.9522 0.2159
vn 0.7002 -0.7002 0.1392
vn 0.5773 -0.5774 0.5773
vn 0.1392 -0.7002 0.7002
vn 0.9522 -0.2159 0.2159
vn 0.7002 -0.1392 0.7002
vn 0.2159 -0.2159 0.9522
vn 0.3818 0.9243 0.0000
vn 0.0000 0.9243 0.3818
vn 0.0000 0.7074 0.7069
vn 0.0000 0.3824 0.9240
vn 0.9238 -0.0000 0.3829
vn 0.7071 -0.0000 0.7071
vn 0.3829 -0.0000 0.9238
vn 0.0000 1.0000 0.0000
usemtl material_1.009
s 1
f 2//1 3//1 4//1 5//1
f 6//2 7//2 8//2 9//2
f 10//3 11//3 12//3 13//3
f 14//4 15//4 16//4 17//4
f 18//5 19//5 20//5 21//5
f 28//6 29//7 30//8 31//9
f 32//10 33//11 30//8 29//7
f 34//12 31//9 30//8 33//11
f 35//13 36//14 37//15 38//16
f 40//17 38//16 37//15 39//18
f 41//19 42//20 43//21 44//22
f 45//23 46//24 43//21 42//20
f 47//25 44//22 43//21 46//24
f 48//26 49//27 50//28 51//29
f 52//30 53//31 50//28 49//27
f 54//32 51//29 50//28 53//31
f 55//33 56//34 57//35 58//36
f 59//37 60//38 57//35 56//34
f 61//39 58//36 57//35 60//38
f 62//40 63//41 64//42 65//43
f 66//44 67//45 64//42 63//41
f 68//46 65//43 64//42 67//45
f 69//47 70//48 71//49 72//50
f 73//51 74//52 71//49 70//48
f 75//53 72//50 71//49 74//52
f 35//13 27//54 26//54 36//14
f 32//10 73//51 70//48 33//11
f 33//11 70//48 69//47 34//12
f 59//37 45//23 42//20 60//38
f 60//38 42//20 41//19 61//39
f 62//40 54//32 53//31 63//41
f 63//41 53//31 52//30 66//44
f 75//53 55//33 58//36 72//50
f 72//50 58//36 61//39 69//47
f 27//55 62//40 65//43 24//56
f 24//56 65//43 68//46 22//57
f 34//12 41//19 44//22 31//9
f 31//9 44//22 47//25 28//6
f 54//32 35//13 38//16 51//29
f 51//29 38//16 40//17 48//26
f 73//51 25//58 23//59 74//52
f 74//52 23//59 22//60 75//53
f 28//6 40//17 39//18 29//7
f 55//33 68//46 67//45 56//34
f 56//34 67//45 66//44 59//37
f 48//26 47//25 46//24 49//27
f 49//27 46//24 45//23 52//30
f 76//61 77//61 78//61 79//61
l 80 81
l 25 26
