# Blender v2.79 (sub 0) OBJ File: ''
# www.blender.org
mtllib 86Door.mtl
o 86
v 0.254010 0.718340 0.008365
v 0.254010 0.721546 0.006565
v -0.289252 0.718271 0.008371
v 0.289252 0.718271 0.008371
v 0.289252 0.067271 0.008371
v -0.289252 0.067271 0.008371
v -0.289252 0.721545 0.040970
v 0.289252 0.721545 0.040970
v 0.289252 0.721545 0.010155
v -0.289252 0.721545 0.010155
v -0.289252 0.718271 0.042754
v 0.289252 0.718271 0.042754
v 0.289252 0.720727 0.042308
v -0.289252 0.720727 0.042308
v 0.292149 0.718271 0.040970
v 0.291425 0.720727 0.040970
v 0.290862 0.720090 0.041961
v 0.291425 0.718271 0.042308
v 0.289252 0.063998 0.010155
v 0.289252 0.064816 0.008817
v 0.290862 0.065453 0.009164
v 0.289252 0.721545 0.040970
v -0.289252 0.720727 0.008817
v 0.289252 0.720727 0.008817
v 0.289252 0.063998 0.040970
v 0.291425 0.064816 0.040970
v 0.290862 0.065453 0.041961
v 0.289252 0.064816 0.042308
v -0.289252 0.721545 0.010155
v 0.289252 0.721545 0.010155
v 0.290862 0.720090 0.009164
v -0.289252 0.063998 0.010155
v -0.289252 0.064816 0.008817
v -0.289252 0.721545 0.040970
v 0.292149 0.067271 0.040970
v 0.292149 0.067271 0.010155
v 0.292149 0.718271 0.010155
v 0.291425 0.720727 0.010155
v -0.289252 0.063998 0.040970
v -0.289252 0.063998 0.010155
v 0.289252 0.063998 0.010155
v 0.289252 0.063998 0.040970
v 0.291425 0.067271 0.008817
v 0.292149 0.718271 0.040970
v 0.292149 0.067271 0.040970
v 0.292149 0.067271 0.010155
v 0.292149 0.718271 0.010155
v -0.289252 0.067271 0.042754
v -0.289252 0.064816 0.042308
v 0.289252 0.067271 0.042754
v 0.291425 0.067271 0.042308
v -0.289252 0.063998 0.040970
v -0.289252 0.718271 0.042754
v -0.289252 0.067271 0.042754
v 0.289252 0.067271 0.042754
v 0.289252 0.718271 0.042754
v -0.292149 0.718271 0.040970
v -0.291425 0.718271 0.042308
v -0.290862 0.720090 0.041961
v -0.291425 0.720727 0.040970
v -0.291425 0.064816 0.010155
v -0.290862 0.065453 0.009164
v -0.290862 0.065453 0.041961
v -0.291425 0.064816 0.040970
v -0.291425 0.718271 0.008817
v -0.290862 0.720090 0.009164
v -0.292149 0.067271 0.040970
v -0.292149 0.067271 0.010155
v -0.291425 0.720727 0.010155
v -0.292149 0.718271 0.010155
v -0.291425 0.067271 0.008817
v -0.292149 0.718271 0.040970
v -0.292149 0.718271 0.010155
v -0.292149 0.067271 0.010155
v -0.292149 0.067271 0.040970
v -0.291425 0.067271 0.042308
vt 0.146086 0.013407
vt 2.461600 0.013327
vt 2.461690 2.619010
vt 0.146177 2.619090
vt 0.146687 5.392660
vt 2.461200 5.392610
vt 2.461270 5.515910
vt 0.146626 5.515960
vt 0.146903 5.377280
vt 2.461000 5.377250
vt 2.461070 5.386880
vt 0.146819 5.386930
vt 2.475110 5.377560
vt 2.474170 5.388030
vt 2.468370 5.385430
vt 2.469510 5.377350
vt 2.461200 5.392610
vt 2.470670 5.391510
vt 0.146013 0.003434
vt 2.461680 0.003317
vt 2.461160 2.757740
vt 2.470680 2.758840
vt 2.468370 2.764940
vt 2.461040 2.763480
vt 0.146626 5.515960
vt 2.461270 5.515910
vt 2.461650 5.522170
vt 0.146246 5.522230
vt 0.146692 2.634520
vt 0.146650 2.628760
vt 2.461210 2.628670
vt 2.461170 2.634430
vt 0.146687 5.392660
vt 2.598420 5.377630
vt 2.598600 5.387940
vt 0.146699 2.757820
vt 0.146692 2.634520
vt 2.461170 2.634430
vt 2.461160 2.757740
vt 2.470600 5.516160
vt 2.469080 5.521440
vt 2.475110 5.377560
vt 2.475160 2.772830
vt 2.598470 2.772770
vt 2.598420 5.377630
vt 0.146875 2.773180
vt 0.146813 2.763560
vt 2.460970 2.773150
vt 2.469520 2.773050
vt 0.146699 2.757820
vt 2.475160 2.772830
vt 2.474200 2.762340
vt 0.146903 5.377280
vt 0.146875 2.773180
vt 2.460970 2.773150
vt 2.461000 5.377250
vt 2.470770 2.619470
vt 2.468230 2.627620
vt 0.132720 5.377590
vt 0.138358 5.377370
vt 0.139504 5.385470
vt 0.133675 5.388070
vt 0.137328 2.633550
vt 0.139622 2.627710
vt 0.137212 5.391560
vt 0.139505 2.765000
vt 0.137192 2.758910
vt 0.137253 0.013323
vt 0.139300 0.005800
vt 0.132766 2.772870
vt 0.009454 2.772810
vt 0.009279 2.762490
vt 0.133706 2.762410
vt 0.009231 5.387950
vt 0.009407 5.377650
vt 0.003317 5.377930
vt 0.003317 2.772520
vt 0.137285 5.516220
vt 0.138813 5.521500
vt 0.132720 5.377590
vt 0.009407 5.377650
vt 0.009454 2.772810
vt 0.132766 2.772870
vt 0.004188 5.385950
vt 0.004219 2.764490
vt 0.138365 2.773080
vt 0.137058 2.619550
vn -0.1092 0.0968 -0.9893
vn 0.0000 0.0897 -0.9960
vn 0.0776 -0.1294 -0.9886
vn -0.1092 -0.0969 -0.9893
vn 0.0000 1.0000 0.0000
vn -0.1458 0.1292 0.9808
vn 0.1458 0.1292 0.9808
vn 0.1530 0.5644 0.8112
vn -0.1530 0.5644 0.8112
vn 0.9199 0.1940 0.3407
vn 0.7015 0.6567 0.2767
vn 0.4992 0.4426 0.7449
vn 0.5939 0.1304 0.7939
vn 0.2391 0.8978 0.3698
vn -0.1530 0.5644 -0.8112
vn 0.1255 0.6511 -0.7486
vn 0.1631 -0.8214 0.5466
vn 0.5959 -0.5637 0.5720
vn 0.4992 -0.4427 0.7449
vn 0.1530 -0.5643 0.8112
vn -0.2391 0.8978 -0.3698
vn 0.2391 0.8978 -0.3698
vn -0.2392 -0.8978 -0.3699
vn -0.1530 -0.5644 -0.8112
vn 0.0724 -0.4667 -0.8815
vn -0.0000 -0.8529 -0.5220
vn -0.2391 0.8978 0.3698
vn 0.9592 0.2828 0.0000
vn 0.6404 0.7444 -0.1891
vn 0.0000 -1.0000 -0.0000
vn 0.3423 0.7574 -0.5559
vn 1.0000 0.0000 0.0000
vn -0.1457 -0.1293 0.9808
vn -0.1530 -0.5643 0.8112
vn 0.1457 -0.1293 0.9808
vn 0.5939 -0.1304 0.7939
vn -0.2393 -0.8979 0.3694
vn 0.8530 -0.1374 0.5036
vn 0.0000 -0.0000 1.0000
vn 0.2340 -0.2071 -0.9499
vn -0.9199 0.1940 0.3407
vn -0.5939 0.1304 0.7939
vn -0.4992 0.4426 0.7449
vn -0.7016 0.6567 0.2767
vn -0.7016 -0.6567 -0.2767
vn -0.4992 -0.4427 -0.7449
vn -0.4992 -0.4427 0.7449
vn -0.7016 -0.6567 0.2767
vn -0.5939 0.1304 -0.7939
vn -0.4992 0.4426 -0.7449
vn -0.9199 -0.1941 0.3407
vn -0.9199 -0.1941 -0.3407
vn -0.7015 0.6567 -0.2767
vn -0.9199 0.1940 -0.3407
vn -0.5939 -0.1304 -0.7939
vn -1.0000 0.0000 0.0000
vn -0.5939 -0.1304 0.7939
usemtl material_0
s 1
f 3/1/1 4/2/2 5/3/3 6/4/4
f 7/5/5 8/6/5 9/7/5 10/8/5
f 11/9/6 12/10/7 13/11/8 14/12/9
f 15/13/10 16/14/11 17/15/12 18/16/13
f 22/17/14 13/11/8 17/15/12 16/18/11
f 3/1/1 23/19/15 24/20/16 4/2/2
f 25/21/17 26/22/18 27/23/19 28/24/20
f 29/25/21 30/26/22 24/27/16 23/28/15
f 12/10/7 18/16/13 17/15/12 13/11/8
f 32/29/23 33/30/24 20/31/25 19/32/26
f 34/33/27 14/12/9 13/11/8 22/17/14
f 15/13/10 37/34/28 38/35/29 16/14/11
f 39/36/30 40/37/30 41/38/30 42/39/30
f 22/17/14 16/18/11 38/40/29 30/26/22
f 30/26/22 38/40/29 31/41/31 24/27/16
f 44/42/32 45/43/32 46/44/32 47/45/32
f 48/46/33 49/47/34 28/24/20 50/48/35
f 50/48/35 28/24/20 27/23/19 51/49/36
f 52/50/37 25/21/17 28/24/20 49/47/34
f 35/51/38 51/49/36 27/23/19 26/52/18
f 12/10/7 50/48/35 51/49/36 18/16/13
f 53/53/39 54/54/39 55/55/39 56/56/39
f 15/13/10 18/16/13 51/49/36 35/51/38
f 6/4/4 5/3/3 20/31/25 33/30/24
f 5/3/3 43/57/40 21/58/40 20/31/25
f 57/59/41 58/60/42 59/61/43 60/62/44
f 32/29/23 61/63/45 62/64/46 33/30/24
f 34/33/27 60/65/44 59/61/43 14/12/9
f 52/50/37 49/47/34 63/66/47 64/67/48
f 3/1/1 65/68/49 66/69/50 23/19/15
f 11/9/6 14/12/9 59/61/43 58/60/42
f 67/70/51 68/71/52 61/72/45 64/73/48
f 57/59/41 60/62/44 69/74/53 70/75/54
f 70/75/54 65/76/49 71/77/55 68/71/52
f 34/33/27 29/25/21 69/78/53 60/65/44
f 29/25/21 23/28/15 66/79/50 69/78/53
f 72/80/56 73/81/56 74/82/56 75/83/56
f 52/50/37 64/67/48 61/63/45 32/29/23
f 70/75/54 69/74/53 66/84/50 65/76/49
f 68/71/52 71/77/55 62/85/46 61/72/45
f 48/46/33 76/86/57 63/66/47 49/47/34
f 3/1/1 6/4/4 71/87/55 65/68/49
f 67/70/51 64/73/48 63/66/47 76/86/57
f 11/9/6 58/60/42 76/86/57 48/46/33
f 57/59/41 67/70/51 76/86/57 58/60/42
f 6/4/4 33/30/24 62/64/46 71/87/55
l 36 43
l 36 37
l 35 36
l 19 25
