# Blender v2.79 (sub 0) OBJ File: ''
# www.blender.org
mtllib 222Door.mtl
o 222.001
v 0.030157 0.253442 0.020354
v 0.365619 0.253442 0.020354
v 0.368424 0.253804 0.021479
v 0.027352 0.253804 0.021479
v 0.033306 0.252753 0.001918
v 0.033306 0.252753 0.015418
v 0.032867 0.251692 0.015418
v 0.032867 0.251692 0.001918
v 0.027316 0.252926 0.020968
v 0.021410 0.254865 0.021918
v 0.027138 0.251865 0.020918
v 0.030157 0.043287 0.020354
v 0.027316 0.043804 0.020968
v 0.027352 0.042925 0.021479
v 0.034367 0.253192 0.001918
v 0.034367 0.253192 0.015418
v 0.031637 0.251865 0.017822
v 0.031996 0.252768 0.017804
v 0.032883 0.252672 0.016738
v 0.032494 0.251738 0.016744
v 0.033175 0.253188 0.018353
v 0.362602 0.253188 0.018353
v 0.361410 0.253192 0.001918
v 0.361410 0.253192 0.015418
v 0.368461 0.252926 0.020968
v 0.368638 0.251865 0.020918
v 0.374367 0.254865 0.021918
v 0.033893 0.253192 0.016918
v 0.361884 0.253192 0.016918
v 0.362471 0.252753 0.001918
v 0.362910 0.251692 0.001918
v 0.362910 0.251692 0.015418
v 0.362471 0.252753 0.015418
v 0.363781 0.252768 0.017804
v 0.364140 0.251865 0.017822
v 0.363283 0.251738 0.016744
v 0.362894 0.252672 0.016738
v 0.368424 0.042925 0.021479
v 0.365619 0.043287 0.020354
v 0.033306 0.043977 0.001918
v 0.032867 0.045038 0.001918
v 0.032867 0.045038 0.015418
v 0.033306 0.043977 0.015418
v 0.034367 0.043538 0.001918
v 0.034367 0.043538 0.015418
v 0.021410 0.041865 0.021918
v 0.009953 0.041865 0.021918
v 0.009953 0.000365 0.021918
v 0.021410 0.000365 0.021918
v 0.009953 0.254865 0.021918
v 0.027138 0.044865 0.020918
v 0.031996 0.043962 0.017804
v 0.031637 0.044865 0.017822
v 0.032494 0.044991 0.016744
v 0.032883 0.044058 0.016738
v 0.362602 0.043542 0.018353
v 0.033175 0.043542 0.018353
v 0.361410 0.043538 0.015418
v 0.361410 0.043538 0.001918
v 0.033893 0.043538 0.016918
v 0.361884 0.043538 0.016918
v 0.362471 0.043977 0.001918
v 0.362471 0.043977 0.015418
v 0.362910 0.045038 0.015418
v 0.362910 0.045038 0.001918
v 0.368638 0.044865 0.020918
v 0.364140 0.044865 0.017822
v 0.363781 0.043962 0.017804
v 0.368461 0.043804 0.020968
v 0.362894 0.044058 0.016738
v 0.363283 0.044991 0.016744
v 0.041953 -0.006635 -0.015082
v 0.002953 0.000365 0.003918
v 0.005003 -0.004585 0.003918
v 0.005003 -0.004585 0.014918
v 0.002953 0.000365 0.014918
v 0.009953 -0.006635 0.003918
v 0.009953 -0.006635 0.014918
v 0.005404 -0.004185 0.019467
v 0.005003 0.000365 0.019868
v 0.009953 -0.004585 0.019868
v 0.009953 0.303365 0.014918
v 0.005003 0.301315 0.014918
v 0.005404 0.300914 0.019467
v 0.009953 0.301315 0.019868
v 0.009953 0.296365 0.021918
v 0.005003 0.296365 0.019868
v 0.002953 0.296365 0.014918
v 0.002953 0.254865 0.014918
v 0.002953 0.296365 0.003918
v 0.002953 0.254865 0.003918
v 0.009953 0.303365 0.003918
v 0.005003 0.301315 0.003918
v 0.002953 0.041865 0.014918
v 0.005003 0.041865 0.019868
v 0.006534 -0.003054 0.001918
v 0.005498 -0.004090 0.002504
v 0.003555 0.000485 0.002504
v 0.004953 0.000763 0.001918
v 0.010351 -0.004635 0.001918
v 0.010073 -0.006034 0.002504
v 0.006534 0.299784 0.001918
v 0.005498 0.300820 0.002504
v 0.010073 0.302763 0.002504
v 0.010351 0.301365 0.001918
v 0.004953 0.295967 0.001918
v 0.003555 0.296245 0.002504
v 0.004953 0.254865 0.001918
v 0.003555 0.254865 0.002504
v 0.374367 0.302771 0.002504
v 0.374367 0.303365 0.003918
v 0.374367 0.303365 0.014918
v 0.021410 0.296365 0.021918
v 0.021410 0.301315 0.019868
v 0.374367 -0.006635 0.014918
v 0.374367 -0.006635 0.003918
v 0.021410 -0.004585 0.019868
v 0.021410 0.303365 0.014918
v 0.374367 0.301365 0.001918
v 0.021410 -0.004635 0.001918
v 0.021410 -0.006034 0.002504
v 0.021410 -0.006635 0.003918
v 0.362471 0.252753 0.001918
v 0.374367 0.301365 0.001918
v 0.362910 0.251692 0.001918
v 0.362910 0.045038 0.001918
v 0.362471 0.043977 0.001918
v 0.374367 -0.004635 0.001918
v 0.021410 -0.006635 0.014918
v 0.021410 0.303365 0.003918
v 0.021410 0.302763 0.002504
v 0.374367 0.296365 0.021918
v 0.374367 0.301315 0.019868
v 0.374367 -0.004585 0.019868
v 0.374367 0.000365 0.021918
v 0.021410 0.301365 0.001918
v 0.374367 -0.004635 0.001918
v 0.374367 -0.006041 0.002504
v 0.005003 0.254865 0.019868
v 0.002953 0.041865 0.003918
v 0.003555 0.041865 0.002504
v 0.004953 0.041865 0.001918
v 0.021410 -0.004635 0.001918
v 0.033306 0.043977 0.001918
v 0.034367 0.043538 0.001918
v 0.361410 0.043538 0.001918
v 0.033306 0.252753 0.001918
v 0.021410 0.301365 0.001918
v 0.034367 0.253192 0.001918
v 0.361410 0.253192 0.001918
v 0.006534 0.299784 0.001918
v 0.010351 0.301365 0.001918
v 0.004953 0.295967 0.001918
v 0.004953 0.254865 0.001918
v 0.004953 0.041865 0.001918
v 0.032867 0.251692 0.001918
v 0.032867 0.045038 0.001918
v 0.004953 0.000763 0.001918
v 0.006534 -0.003054 0.001918
v 0.010351 -0.004635 0.001918
v 0.374367 0.041865 0.021918
v 0.010351 -0.004635 0.001918
v 0.010073 -0.006034 0.001332
v 0.002953 0.296365 -0.000082
v 0.005003 0.301315 -0.000082
v 0.009953 0.303365 -0.000082
v 0.009953 -0.006635 -0.000082
v 0.005003 -0.004585 -0.000082
v 0.002953 0.000365 -0.000082
v 0.002953 0.000365 -0.000082
v 0.002953 0.296365 -0.000082
v 0.009953 0.303365 -0.000082
v 0.009953 -0.006635 -0.000082
v 0.010351 0.301365 0.001918
v 0.010073 0.302763 0.001332
v 0.004953 0.000763 0.001918
v 0.004953 0.295967 0.001918
v 0.003555 0.296245 0.001332
v 0.003555 0.000485 0.001332
v 0.002953 0.296365 -0.000082
v 0.002953 0.000365 -0.000082
v 0.009953 0.303365 -0.000082
v 0.009953 -0.006635 -0.000082
v 0.006534 -0.003054 0.001918
v 0.004953 0.000763 0.001918
v 0.003555 0.000485 0.001332
v 0.005498 -0.004090 0.001332
v 0.002953 0.000365 -0.000082
v 0.005003 -0.004585 -0.000082
v 0.010351 -0.004635 0.001918
v 0.010073 -0.006034 0.001332
v 0.009953 -0.006635 -0.000082
v 0.006534 0.299784 0.001918
v 0.010351 0.301365 0.001918
v 0.010073 0.302763 0.001332
v 0.005498 0.300820 0.001332
v 0.009953 0.303365 -0.000082
v 0.005003 0.301315 -0.000082
v 0.004953 0.295967 0.001918
v 0.003555 0.296245 0.001332
v 0.002953 0.296365 -0.000082
v 0.377953 0.025365 0.001918
v 0.377953 0.271365 0.001918
v 0.019953 0.025365 0.001918
v 0.010351 -0.004635 0.001918
v 0.019953 0.271365 0.001918
v 0.004953 0.295967 0.001918
v 0.004953 0.000763 0.001918
v 0.006534 -0.003054 0.001918
v 0.010351 0.301365 0.001918
v 0.006534 0.299784 0.001918
v 0.377953 0.271365 0.001918
v 0.019953 0.271365 0.001918
v 0.019953 0.271365 0.001918
v 0.019953 0.025365 0.001918
v 0.019953 0.025365 0.001918
v 0.377953 0.025365 0.001918
v 0.377953 0.025365 0.001918
v 0.377953 0.271365 0.001918
v 0.198953 0.035365 -0.007106
v 0.198953 0.045365 -0.007106
v 0.198953 0.035365 -0.007106
v 0.198953 0.045365 -0.007106
v 0.362910 0.253365 0.016918
v 0.032867 0.253365 0.016918
v 0.032867 0.043365 0.016918
v 0.362910 0.043365 0.016918
v 0.009953 -0.006635 -0.015172
v 0.178080 0.045365 -0.012699
v 0.009953 0.303365 -0.000384
v 0.002953 0.000365 -0.014838
v 0.176300 0.035365 -0.013176
v 0.002953 0.000365 -0.014838
v 0.219834 0.045365 -0.012701
v 0.221615 0.035365 -0.013178
v 0.219834 0.045365 -0.012701
v 0.178080 0.045365 -0.012699
v 0.019953 0.271365 -0.001911
v 0.002953 0.296365 -0.000717
v 0.377953 0.271365 -0.001927
v 0.377953 0.271365 -0.001927
v 0.005003 0.301315 -0.000481
v 0.377953 0.025365 -0.013662
v 0.005003 -0.004585 -0.015074
v 0.009953 -0.006635 -0.015172
v 0.377953 0.025365 -0.013662
v 0.019953 0.025365 -0.013646
v 0.002953 0.296365 -0.000717
v 0.221615 0.035365 -0.013178
v 0.019953 0.025365 -0.013646
v 0.019953 0.271365 -0.001911
v 0.176300 0.035365 -0.013176
v 0.009953 0.303365 -0.000384
v 0.378485 -0.006635 -0.015189
v 0.378288 0.303365 -0.000400
v 0.382835 0.286910 0.001918
v 0.382813 0.301365 0.001918
v 0.382772 0.303365 -0.000082
v 0.382813 0.301365 0.001918
v 0.383323 -0.006635 0.003918
v 0.383274 -0.006034 0.001332
v 0.382800 0.302763 0.001332
v 0.382857 0.272616 0.001918
v 0.383262 0.009105 0.001918
v 0.383168 0.069766 0.001918
v 0.382857 0.272732 0.001918
v 0.382857 0.272433 0.001918
v 0.383531 -0.006635 0.014918
v 0.383283 -0.004635 0.001918
v 0.382836 0.286368 0.001918
v 0.382813 0.301365 0.001918
v 0.383588 0.041865 0.021918
v 0.383261 0.009622 0.001918
v 0.382822 0.302775 0.002504
v 0.383151 0.301315 0.019868
v 0.383197 0.296365 0.021918
v 0.382848 0.303365 0.003918
v 0.383283 -0.004635 0.001918
v 0.383621 -0.004585 0.019868
v 0.383248 -0.006635 -0.000082
v 0.383055 0.303365 0.014918
v 0.383652 0.000365 0.021918
v 0.383239 0.024017 0.001918
v 0.383261 0.254865 0.021918
v 0.383238 0.024214 0.001918
v 0.383283 -0.004635 0.001918
v 0.383283 -0.004635 0.001918
v 0.383296 -0.006046 0.002504
v 0.383239 0.023891 0.001918
v 0.382772 0.303365 -0.000082
v 0.382813 0.301365 0.001918
v 0.383248 -0.006635 -0.000082
vn -0.2588 0.0000 0.9659
vn 0.0000 0.0000 1.0000
vn -0.0000 -1.0000 -0.0000
vn 0.0000 1.0000 0.0000
vn 0.2588 0.0000 0.9659
vn 0.1075 -0.9264 0.3610
vn -0.1075 -0.9263 0.3612
vn -0.0495 -0.4858 0.8727
vn 0.0495 -0.4858 0.8727
vn 0.7071 -0.7071 0.0000
vn 0.6868 -0.7206 0.0953
vn 0.9710 -0.1943 0.1396
vn 0.9808 -0.1952 -0.0000
vn 0.2616 -0.3480 0.9003
vn 0.0329 -0.0263 0.9991
vn 0.3605 -0.0531 0.9312
vn 0.1075 0.9263 0.3611
vn 0.2616 0.3478 0.9003
vn 0.0495 0.4857 0.8727
vn 0.1953 -0.9808 0.0000
vn 0.1830 -0.9829 0.0218
vn 0.6601 -0.1150 0.7423
vn 0.4951 -0.6597 0.5655
vn 0.6352 -0.7001 0.3262
vn 0.8659 -0.1692 0.4708
vn 0.1184 -0.9766 0.1798
vn -0.1184 -0.9766 0.1798
vn -0.1949 -0.9808 0.0000
vn -0.1830 -0.9829 0.0218
vn -0.2615 -0.3479 0.9003
vn -0.3606 -0.0531 0.9312
vn -0.0329 -0.0263 0.9991
vn 0.1799 -0.9806 0.0782
vn -0.1799 -0.9806 0.0782
vn -0.7071 -0.7071 0.0000
vn -0.9808 -0.1949 0.0000
vn -0.9710 -0.1943 0.1396
vn -0.6868 -0.7206 0.0953
vn -0.4948 -0.6599 0.5655
vn -0.6602 -0.1150 0.7422
vn -0.8659 -0.1692 0.4708
vn -0.6352 -0.7001 0.3262
vn -0.0496 0.4857 0.8727
vn -0.1075 0.9263 0.3611
vn 0.7072 0.7070 0.0000
vn 0.9807 0.1953 0.0000
vn 0.9709 0.1946 0.1398
vn 0.6868 0.7205 0.0954
vn 0.1950 0.9808 0.0000
vn 0.1831 0.9829 0.0218
vn 0.0329 0.0263 0.9991
vn -0.1951 -0.0000 0.9808
vn -0.1610 -0.1610 0.9737
vn 0.0000 -0.1951 0.9808
vn 0.3605 0.0531 0.9312
vn 0.4948 0.6598 0.5655
vn 0.6602 0.1151 0.7423
vn 0.8660 0.1694 0.4705
vn 0.6352 0.7001 0.3262
vn -0.1184 0.9765 0.1799
vn 0.1184 0.9765 0.1799
vn -0.1831 0.9829 0.0218
vn -0.1950 0.9808 0.0000
vn 0.1799 0.9806 0.0781
vn -0.1799 0.9806 0.0781
vn -0.7072 0.7070 0.0000
vn -0.6868 0.7206 0.0953
vn -0.9709 0.1944 0.1396
vn -0.9808 0.1950 0.0000
vn -0.3606 0.0531 0.9312
vn -0.6602 0.1150 0.7422
vn -0.4948 0.6598 0.5655
vn -0.2616 0.3478 0.9004
vn -0.6351 0.7001 0.3262
vn -0.8659 0.1693 0.4708
vn -0.9605 -0.1918 -0.2018
vn -0.6914 -0.6914 -0.2098
vn -0.7002 -0.7002 0.1392
vn -0.9737 -0.1610 0.1610
vn -0.1918 -0.9605 -0.2017
vn -0.1610 -0.9737 0.1610
vn -0.5773 -0.5774 0.5773
vn -0.7002 -0.1392 0.7002
vn -0.1392 -0.7002 0.7002
vn -0.1610 0.9737 0.1610
vn -0.7002 0.7002 0.1392
vn -0.5774 0.5773 0.5774
vn -0.1392 0.7002 0.7002
vn -0.1610 0.1610 0.9737
vn -0.7002 0.1392 0.7002
vn -0.9737 0.1610 0.1610
vn -0.9808 -0.0000 0.1951
vn -0.9605 0.1918 -0.2015
vn -0.9798 0.0000 -0.1999
vn -0.1918 0.9605 -0.2018
vn -0.6914 0.6914 -0.2098
vn -0.7071 -0.0000 0.7071
vn -0.2593 -0.2592 -0.9304
vn -0.5121 -0.5121 -0.6896
vn -0.7071 -0.1422 -0.6926
vn -0.3745 -0.0760 -0.9241
vn -0.0760 -0.3746 -0.9241
vn -0.1422 -0.7072 -0.6926
vn -0.2590 0.2591 -0.9305
vn -0.5120 0.5120 -0.6897
vn -0.1422 0.7071 -0.6926
vn -0.0761 0.3750 -0.9239
vn -0.3750 0.0761 -0.9239
vn -0.7071 0.1422 -0.6926
vn -0.3866 0.0000 -0.9223
vn -0.7051 0.0000 -0.7091
vn 0.0000 0.1951 0.9808
vn 0.0000 0.7071 0.7071
vn 0.0000 -0.7071 0.7071
vn 0.0000 0.9808 0.1951
vn -0.0000 -0.3860 -0.9225
vn -0.0000 -0.7054 -0.7088
vn -0.0000 -0.9800 -0.1992
vn 0.0000 -0.9808 0.1951
vn -0.0000 0.9799 -0.1993
vn -0.0000 0.7054 -0.7088
vn -0.0000 0.3861 -0.9225
vn -0.0000 -0.3849 -0.9230
vn -0.0001 -0.7060 -0.7082
vn -0.0001 -0.9803 -0.1977
vn -0.0001 0.9802 -0.1978
vn -0.0001 0.7060 -0.7083
vn -0.0000 0.3846 -0.9231
vn 0.0000 0.1944 0.9809
vn 0.0000 0.7046 0.7096
vn 0.0000 -0.7050 0.7092
vn 0.0000 -0.1948 0.9808
vn 0.0000 0.9803 0.1973
vn -0.0001 -0.3842 -0.9233
vn -0.0002 -0.7089 -0.7053
vn -0.0001 -0.9809 -0.1945
vn 0.0000 -0.9803 0.1973
vn -0.3863 0.0000 -0.9224
vn 0.0000 0.0000 -1.0000
vn -0.0329 0.0263 0.9991
vn 0.0000 -0.3865 0.9223
vn 0.0000 -0.7293 0.6842
vn 0.0000 -0.7031 0.7111
vn 0.0000 -0.9202 0.3915
vn -0.3861 -0.0000 0.9224
vn -0.7293 -0.0000 0.6842
vn -0.9202 -0.0000 0.3914
vn -0.2593 -0.2592 0.9304
vn -0.3612 -0.1517 0.9201
vn -0.6704 -0.2812 0.6866
vn -0.5121 -0.5121 0.6896
vn -0.8436 -0.3537 0.4041
vn -0.6382 -0.6381 0.4307
vn -0.1517 -0.3611 0.9201
vn -0.2812 -0.6704 0.6866
vn -0.3537 -0.8436 0.4040
vn -0.2593 0.2593 0.9304
vn -0.1517 0.3612 0.9201
vn -0.2812 0.6704 0.6867
vn -0.5120 0.5120 0.6896
vn -0.3536 0.8436 0.4041
vn -0.6381 0.6381 0.4308
vn -0.3612 0.1517 0.9201
vn -0.6704 0.2812 0.6867
vn -0.8436 0.3536 0.4041
vn 1.0000 -0.0000 0.0000
vn -0.3827 -0.9239 0.0000
vn -0.7012 -0.7129 0.0000
vn -0.9239 0.3826 0.0000
vn -0.7071 0.7071 0.0000
vn -0.7128 0.7013 0.0000
vn -0.3826 0.9239 0.0000
vn -1.0000 0.0000 0.0000
vn -0.9239 -0.3826 0.0000
vn -0.0001 0.9809 -0.1947
vn -0.0002 0.7085 -0.7057
vn -0.0001 0.3842 -0.9232
vn 0.0000 0.7293 0.6842
vn 0.0000 0.7027 0.7115
vn -0.0000 0.9202 0.3914
vn 0.0000 0.3866 0.9223
usemtl material_2.006
s 1
f 232//1 220//2 221//2 229//1
f 249//3 222//3 252//3
f 237//4 223//4 234//4
f 224//2 225//2 226//2 227//2
f 220//2 235//5 236//5 221//2
usemtl material_1.008
f 1//6 2//7 3//8 4//9
f 5//10 6//11 7//12 8//13
f 9//14 10//15 11//16
f 12//17 13//18 14//19
f 15//20 16//21 6//11 5//10
f 11//16 17//22 18//23 9//14
f 7//12 6//11 19//24 20//25
f 20//25 19//24 18//23 17//22
f 21//26 22//27 2//7 1//6
f 15//20 23//28 24//29 16//21
f 25//30 26//31 27//32
f 28//33 19//24 6//11 16//21
f 24//29 29//34 28//33 16//21
f 30//35 31//36 32//37 33//38
f 23//28 30//35 33//38 24//29
f 26//31 25//30 34//39 35//40
f 32//37 36//41 37//42 33//38
f 36//41 35//40 34//39 37//42
f 29//34 24//29 33//38 37//42
f 14//19 38//43 39//44 12//17
f 40//45 41//46 42//47 43//48
f 44//49 40//45 43//48 45//50
f 46//51 47//52 48//53 49//54
f 14//19 13//18 46//51
f 10//15 50//52 47//52 46//51
f 51//55 13//18 52//56 53//57
f 42//47 54//58 55//59 43//48
f 54//58 53//57 52//56 55//59
f 12//17 39//44 56//60 57//61
f 45//50 58//62 59//63 44//49
f 60//64 45//50 43//48 55//59
f 58//62 45//50 60//64 61//65
f 62//66 63//67 64//68 65//69
f 59//63 58//62 63//67 62//66
f 66//70 67//71 68//72 69//73
f 64//68 63//67 70//74 71//75
f 71//75 70//74 68//72 67//71
f 61//65 70//74 63//67 58//62
f 31//36 65//69 64//68 32//37
f 32//37 64//68 71//75 36//41
f 36//41 71//75 67//71 35//40
f 35//40 67//71 66//70 26//31
f 11//16 51//55 53//57 17//22
f 17//22 53//57 54//58 20//25
f 20//25 54//58 42//47 7//12
f 7//12 42//47 41//46 8//13
f 73//76 74//77 75//78 76//79
f 74//77 77//80 78//81 75//78
f 76//79 75//78 79//82 80//83
f 48//53 80//83 79//82 81//84
f 78//81 81//84 79//82 75//78
f 82//85 83//86 84//87 85//88
f 86//89 85//88 84//87 87//90
f 88//91 87//90 84//87 83//86
f 89//92 88//91 90//93 91//94
f 92//95 93//96 83//86 82//85
f 93//96 90//93 88//91 83//86
f 94//92 76//79 80//83 95//97
f 96//98 97//99 98//100 99//101
f 97//99 74//77 73//76 98//100
f 100//102 101//103 97//99 96//98
f 101//103 77//80 74//77 97//99
f 102//104 103//105 104//106 105//107
f 103//105 93//96 92//95 104//106
f 106//108 107//109 103//105 102//104
f 107//109 90//93 93//96 103//105
f 108//110 109//111 107//109 106//108
f 109//111 91//94 90//93 107//109
f 113//112 114//113 85//88 86//89
f 117//114 49//54 48//53 81//84
f 114//113 118//115 82//85 85//88
f 120//116 121//117 101//103 100//102
f 121//117 122//118 77//80 101//103
f 129//119 117//114 81//84 78//81
f 104//106 92//95 130//120 131//121
f 82//85 118//115 130//120 92//95
f 132//112 133//113 114//113 113//112
f 78//81 77//80 122//118 129//119
f 134//114 135//54 49//54 117//114
f 133//113 112//115 118//115 114//113
f 105//107 104//106 131//121 136//122
f 137//123 138//124 121//117 120//116
f 138//124 116//125 122//118 121//117
f 115//119 134//114 117//114 129//119
f 131//121 130//120 111//126 110//127
f 118//115 112//115 111//126 130//120
f 129//119 122//118 116//125 115//119
f 136//122 131//121 110//127 119//128
f 276//129 275//130 133//113 132//112
f 279//131 282//132 135//54 134//114
f 275//130 281//133 112//115 133//113
f 278//134 288//135 138//124 137//123
f 288//135 260//136 116//125 138//124
f 268//137 279//131 134//114 115//119
f 86//89 87//90 139//97 50//52
f 87//90 88//91 89//92 139//97
f 95//97 80//83 48//53 47//52
f 94//92 140//94 73//76 76//79
f 141//111 142//138 99//101 98//100
f 140//94 141//111 98//100 73//76
f 89//92 94//92 95//97 139//97
f 139//97 95//97 47//52 50//52
f 89//92 91//94 140//94 94//92
f 109//111 108//110 142//138 141//111
f 91//94 109//111 141//111 140//94
f 143//139 144//139 145//139
f 146//139 127//139 128//139
f 143//139 145//139 146//139
f 143//139 146//139 128//139
f 10//15 46//51 51//55 11//16
f 13//18 51//55 46//51
f 276//129 132//112 27//32 284//2
f 147//139 148//139 149//139
f 148//139 124//139 149//139
f 124//139 150//139 149//139
f 124//139 123//139 150//139
f 151//139 152//139 148//139
f 151//139 148//139 147//139
f 153//139 151//139 147//139
f 154//139 153//139 147//139
f 155//139 154//139 156//139
f 154//139 147//139 156//139
f 155//139 156//139 157//139
f 155//139 157//139 144//139
f 155//139 144//139 143//139
f 158//139 155//139 143//139
f 158//139 143//139 159//139
f 143//139 160//139 159//139
f 1//6 4//9 9//14
f 4//9 10//15 9//14
f 86//89 50//52 10//15 113//112
f 46//51 161//140 38//43 14//19
f 161//140 46//51 49//54 135//54
f 27//32 132//112 113//112 10//15
f 4//9 3//8 27//32 10//15
f 2//7 25//30 3//8
f 3//8 25//30 27//32
f 39//44 38//43 69//73
f 38//43 161//140 69//73
f 69//73 161//140 66//70
f 26//31 66//70 161//140 27//32
f 272//2 161//140 135//54 282//132
f 21//26 18//23 19//24 28//33
f 37//42 34//39 22//27 29//34
f 21//26 28//33 29//34 22//27
f 55//59 52//56 57//61 60//64
f 70//74 61//65 56//60 68//72
f 61//65 60//64 57//61 56//60
f 21//26 1//6 9//14 18//23
f 13//18 12//17 57//61 52//56
f 25//30 2//7 22//27 34//39
f 69//73 68//72 56//60 39//44
f 284//2 27//32 161//140 272//2
f 286//141 162//141 163//142 261//143
f 261//143 163//142 173//144 280//144
f 176//145 177//145 178//146 179//146
f 179//146 178//146 180//147 181//147
f 184//148 185//149 186//150 187//151
f 187//151 186//150 188//152 189//153
f 190//154 184//148 187//151 191//155
f 191//155 187//151 189//153 192//156
f 193//157 194//158 195//159 196//160
f 196//160 195//159 197//161 198//162
f 199//163 193//157 196//160 200//164
f 200//164 196//160 198//162 201//165
f 204//2 206//2 207//2 208//2
f 204//2 208//2 209//2
f 204//2 209//2 205//2
f 206//2 210//2 211//2
f 206//2 211//2 207//2
f 214//166 215//166 250//166 251//166
f 216//4 217//4 246//4 247//4
f 167//167 168//35 244//168 245//167
f 164//169 165//170 242//171 248//169
f 165//170 172//172 253//172 242//171
f 218//173 219//173 241//173 243//173
f 212//3 213//3 238//3 240//3
f 170//173 171//173 239//173 233//173
f 168//35 169//174 231//174 244//168
f 202//2 204//2 205//2 287//2 289//2
f 202//2 283//2 285//2
f 202//2 289//2 283//2
f 112//115 281//133 277//175 111//126
f 110//127 111//126 277//175 274//176
f 119//128 110//127 274//176 291//177
f 203//2 202//2 285//2 267//2
f 125//139 270//139 265//139
f 126//139 125//139 265//139 273//139
f 127//139 126//139 273//139 264//139
f 128//139 127//139 264//139 269//139
f 203//2 263//2 266//2
f 203//2 267//2 263//2
f 175//178 262//179 290//180 182//180
f 115//119 116//125 260//136 268//137
f 174//181 259//181 262//179 175//178
f 206//2 203//2 266//2 257//2 210//2
f 123//139 124//139 271//139 256//139
f 125//139 123//139 256//139 270//139
l 228 183
l 292 183
l 166 230
l 254 228
l 255 230
l 166 258
