# Blender v2.79 (sub 0) OBJ File: ''
# www.blender.org
mtllib 102Main.mtl
o 102
v 0.229484 1.962298 0.318876
v 0.229484 1.962298 0.284224
v 0.229484 1.972298 0.284224
v 0.229484 1.972298 0.318876
v -0.346752 1.972298 0.278224
v 0.223484 1.972298 0.278224
v 0.223484 1.962298 0.278224
v -0.346752 1.962298 0.278224
v -0.352752 1.962298 0.318876
v -0.352752 1.972298 0.318876
v -0.352752 1.972298 0.284224
v -0.352752 1.962298 0.284224
v -0.346752 1.978298 0.284224
v 0.223484 1.978298 0.284224
v 0.223484 1.976538 0.279982
v -0.346752 1.976538 0.279982
v 0.227384 1.976188 0.280325
v 0.227727 1.972298 0.279982
v 0.227727 1.976538 0.284224
v 0.227727 1.976538 0.318876
v 0.223484 1.976538 0.323119
v 0.223484 1.972298 0.324876
v 0.223484 1.978298 0.318876
v -0.346752 1.972298 0.324876
v -0.346752 1.976538 0.323119
v -0.350995 1.976538 0.318876
v -0.346752 1.978298 0.318876
v -0.346752 1.962298 0.324876
v -0.350995 1.976538 0.284224
v -0.350652 1.976188 0.280325
v -0.350995 1.972298 0.279982
v 0.223484 1.962298 0.324876
v 0.227727 1.962298 0.279982
v -0.350995 1.962298 0.279982
v 0.233127 -0.017042 0.256564
v -0.356395 -0.017042 0.256564
v -0.356395 -0.017042 -0.306586
v 0.233127 -0.017042 -0.306586
v -0.359395 -0.014042 0.256564
v -0.359395 1.979958 0.256564
v -0.359395 1.979958 -0.306586
v -0.359395 -0.014042 -0.306586
v 0.233127 1.982958 0.256564
v 0.233127 1.982958 -0.306586
v -0.356395 1.982958 -0.306586
v -0.356395 1.982958 0.256564
v 0.233127 1.979958 0.259564
v -0.356395 1.979958 0.259564
v 0.236127 -0.014042 0.256564
v 0.236127 -0.014042 -0.306586
v 0.236127 1.979958 -0.306586
v 0.236127 1.979958 0.256564
v 0.235248 1.982078 -0.306586
v 0.235077 1.981908 -0.308536
v 0.233127 1.982078 -0.308708
v 0.235248 1.979958 -0.308708
v 0.233127 1.979958 -0.309586
v 0.233127 -0.016163 -0.308707
v 0.235077 -0.015992 -0.308536
v 0.235248 -0.016163 -0.306586
v 0.233127 -0.014042 -0.309586
v 0.235248 -0.014042 -0.308707
v 0.235248 1.979958 0.258685
v 0.235077 1.981908 0.258514
v 0.233127 1.982078 0.258685
v 0.235248 1.982078 0.256564
v 0.235077 -0.015992 0.258514
v 0.235248 -0.016164 0.256564
v 0.233127 -0.016164 0.258685
v -0.358516 1.982078 0.256564
v -0.358345 1.981908 0.258514
v -0.356395 1.982078 0.258685
v -0.358516 1.979958 0.258685
v -0.356395 -0.016164 0.258685
v -0.358516 -0.016164 0.256564
v -0.356395 -0.014042 -0.309586
v -0.356395 -0.016163 -0.308707
v -0.358345 -0.015992 -0.308536
v -0.358516 -0.014042 -0.308707
v -0.358516 -0.016163 -0.306586
v -0.358516 1.982078 -0.306586
v -0.358345 1.981908 -0.308536
v -0.358516 1.979958 -0.308708
v -0.356395 1.982078 -0.308708
v -0.356395 1.979958 -0.309586
v -0.346381 1.963498 0.259758
v -0.346161 1.962868 0.261451
v -0.345387 1.959518 0.264340
v -0.345191 1.959588 0.273462
v -0.344006 1.956188 0.268901
v -0.341709 1.962188 0.271978
v 0.218473 1.962178 0.271978
v 0.217674 1.959888 0.268901
v -0.340942 1.959888 0.268901
v -0.346513 1.962738 0.276352
v 0.218441 1.962188 0.265824
v -0.341741 1.962178 0.265824
v 0.223113 1.963498 0.259758
v 0.223244 1.962748 0.261450
v -0.342967 1.965568 0.275029
v 0.219630 1.965598 0.275029
v 0.221923 1.959588 0.264340
v -0.343359 1.966698 0.259758
v -0.342898 1.965598 0.262773
v 0.219699 1.965568 0.262773
v 0.220091 1.966698 0.259758
v 0.223113 1.963498 0.278045
v 0.222894 1.962868 0.276352
v 0.222119 1.959518 0.273463
v 0.220738 1.956188 0.268901
v -0.343359 1.966698 0.278045
v 0.220091 1.966698 0.278045
v -0.345087 1.964648 0.262514
v -0.345496 1.965758 0.259758
v -0.345210 1.964608 0.275285
v -0.345496 1.965758 0.278045
v -0.346381 1.963498 0.278045
v -0.342991 1.958468 0.268901
v -0.344018 1.961228 0.265570
v -0.343951 1.961248 0.272233
v 0.221819 1.964648 0.275289
v 0.222228 1.965758 0.278045
v 0.221942 1.964608 0.262516
v 0.222228 1.965758 0.259758
v 0.220684 1.961248 0.265569
v 0.219723 1.958468 0.268901
v 0.220750 1.961228 0.272233
vn 0.9239 0.0000 0.3827
vn 0.9808 0.0000 -0.1951
vn 0.9738 0.1608 -0.1609
vn 0.9148 0.1763 0.3633
vn -0.1611 0.1612 -0.9737
vn 0.1611 0.1612 -0.9737
vn 0.1951 0.0000 -0.9808
vn -0.1951 0.0000 -0.9808
vn -0.9239 0.0000 0.3827
vn -0.9148 0.1763 0.3633
vn -0.9737 0.1611 -0.1610
vn -0.9808 0.0000 -0.1951
vn -0.1610 0.9737 -0.1610
vn 0.1611 0.9737 -0.1612
vn 0.1394 0.7002 -0.7002
vn -0.1394 0.7002 -0.7002
vn 0.5774 0.5773 -0.5774
vn 0.7002 0.1393 -0.7002
vn 0.7003 0.7001 -0.1394
vn 0.7024 0.6440 0.3032
vn 0.3031 0.6443 0.7022
vn 0.3633 0.1763 0.9148
vn 0.1879 0.9640 0.1879
vn -0.3633 0.1763 0.9148
vn -0.3032 0.6440 0.7024
vn -0.7024 0.6440 0.3032
vn -0.1879 0.9640 0.1879
vn -0.3827 0.0000 0.9239
vn -0.7003 0.7001 -0.1394
vn -0.5774 0.5773 -0.5774
vn -0.7002 0.1393 -0.7002
vn 0.3827 0.0000 0.9239
vn 0.7071 0.0000 -0.7071
vn -0.7071 0.0000 -0.7071
vn 0.1610 -0.9737 0.1610
vn -0.1320 -0.9824 0.1320
vn -0.1610 -0.9737 -0.1610
vn 0.1610 -0.9737 -0.1610
vn -0.9808 -0.1952 -0.0000
vn -0.9734 0.2147 0.0801
vn -0.9737 -0.1610 -0.1610
vn 0.1611 0.9737 0.1611
vn 0.1611 0.9737 -0.1611
vn -0.1608 0.9738 -0.1609
vn -0.1609 0.9738 0.1609
vn 0.9808 -0.1952 -0.0000
vn 0.9737 -0.1610 -0.1610
vn 0.9737 0.1611 -0.1610
vn 0.9734 0.2147 0.0801
vn 0.7003 0.7002 -0.1391
vn 0.5773 0.5775 -0.5772
vn 0.1391 0.7001 -0.7004
vn 0.7002 0.1391 -0.7003
vn 0.1609 0.1610 -0.9737
vn 0.1391 -0.7003 -0.7002
vn 0.5774 -0.5773 -0.5774
vn 0.7002 -0.7003 -0.1391
vn 0.1610 -0.1610 -0.9737
vn 0.7002 -0.1391 -0.7003
vn 0.1208 0.3238 0.9384
vn 0.6773 0.2874 0.6773
vn 0.5773 0.5775 0.5773
vn 0.1391 0.7002 0.7003
vn 0.7003 0.7002 0.1391
vn 0.5715 -0.8157 0.0900
vn 0.2517 -0.9345 0.2517
vn 0.1252 -0.9386 0.3214
vn -0.7003 0.7002 0.1391
vn -0.5773 0.5775 0.5773
vn -0.1391 0.7002 0.7003
vn -0.6773 0.2874 0.6773
vn -0.1208 0.3238 0.9384
vn -0.1610 -0.1610 -0.9737
vn -0.1391 -0.7003 -0.7002
vn -0.5774 -0.5773 -0.5774
vn -0.7002 -0.1391 -0.7003
vn -0.7002 -0.7003 -0.1391
vn -0.7003 0.7002 -0.1390
vn -0.5774 0.5775 -0.5772
vn -0.7002 0.1391 -0.7003
vn -0.1391 0.7001 -0.7004
vn -0.1609 0.1610 -0.9737
vn -0.7071 -0.7071 -0.0000
vn 0.0000 -0.9239 0.3827
vn -0.1844 0.6860 -0.7038
vn 0.1862 0.6858 -0.7036
vn 0.2617 0.9651 -0.0006
vn -0.2617 0.9651 0.0006
vn 0.1844 0.6860 0.7038
vn -0.1861 0.6858 0.7036
vn -0.1899 0.7964 -0.5741
vn 0.1878 0.7972 -0.5737
vn -0.2071 0.9054 0.3707
vn -0.1879 0.7972 0.5738
vn 0.1899 0.7965 0.5740
vn 0.2037 0.9068 0.3690
vn -0.2037 0.9068 -0.3690
vn 0.2071 0.9054 -0.3707
vn -0.8928 0.3621 0.2679
vn -0.8665 0.3013 0.3980
vn -0.6391 0.5603 0.5268
vn -0.6535 0.6701 0.3519
vn -0.6399 0.5618 -0.5242
vn -0.6391 0.6982 -0.3226
vn -0.8602 0.3151 -0.4010
vn -0.8858 0.4148 -0.2082
vn -0.8136 0.2800 0.5095
vn -0.9285 0.3708 0.0202
vn -0.8144 0.5802 0.0099
vn -0.6234 0.4641 0.6293
vn -0.8101 0.2613 -0.5248
vn -0.6184 0.4572 -0.6391
vn 0.8926 0.3626 -0.2678
vn 0.8664 0.3015 -0.3980
vn 0.6390 0.5604 -0.5268
vn 0.6535 0.6701 -0.3520
vn 0.6398 0.5619 0.5243
vn 0.6392 0.6981 0.3227
vn 0.8601 0.3157 0.4006
vn 0.8853 0.4156 0.2086
vn 0.8101 0.2616 0.5247
vn 0.6184 0.4576 0.6389
vn 0.8144 0.5802 -0.0099
vn 0.9285 0.3707 -0.0201
vn 0.8136 0.2800 -0.5096
vn 0.6235 0.4640 -0.6293
usemtl material_2.005
s 1
f 1//1 2//2 3//3 4//4
f 5//5 6//6 7//7 8//8
f 9//9 10//10 11//11 12//12
f 13//13 14//14 15//15 16//16
f 6//6 15//15 17//17 18//18
f 14//14 19//19 17//17 15//15
f 3//3 18//18 17//17 19//19
f 4//4 20//20 21//21 22//22
f 23//23 21//21 20//20
f 24//24 25//25 26//26 10//10
f 27//27 26//26 25//25
f 9//9 28//28 24//24 10//10
f 11//11 29//29 30//30 31//31
f 13//13 16//16 30//30 29//29
f 5//5 31//31 30//30 16//16
f 16//16 15//15 6//6 5//5
f 24//24 22//22 21//21 25//25
f 4//4 3//3 19//19 20//20
f 20//20 19//19 14//14 23//23
f 27//27 13//13 29//29 26//26
f 26//26 29//29 11//11 10//10
f 25//25 21//21 23//23 27//27
f 27//27 23//23 14//14 13//13
f 32//32 1//1 4//4 22//22
f 3//3 2//2 33//33 18//18
f 18//18 33//33 7//7 6//6
f 5//5 8//8 34//34 31//31
f 31//31 34//34 12//12 11//11
f 28//28 32//32 22//22 24//24
f 35//35 36//36 37//37 38//38
f 39//39 40//40 41//11 42//41
f 43//42 44//43 45//44 46//45
f 49//46 50//47 51//48 52//49
f 44//43 53//50 54//51 55//52
f 51//48 56//53 54//51 53//50
f 57//54 55//52 54//51 56//53
f 38//38 58//55 59//56 60//57
f 61//58 62//59 59//56 58//55
f 50//47 60//57 59//56 62//59
f 47//60 63//61 64//62 65//63
f 52//49 66//64 64//62 63//61
f 43//42 65//63 64//62 66//64
f 35//35 68//65 67//66 69//67
f 46//45 70//68 71//69 72//70
f 40//40 73//71 71//69 70//68
f 48//72 72//70 71//69 73//71
f 76//73 77//74 78//75 79//76
f 37//37 80//77 78//75 77//74
f 42//41 79//76 78//75 80//77
f 41//11 81//78 82//79 83//80
f 45//44 84//81 82//79 81//78
f 85//82 83//80 82//79 84//81
f 61//58 57//54 56//53 62//59
f 62//59 56//53 51//48 50//47
f 46//45 45//44 81//78 70//68
f 70//68 81//78 41//11 40//40
f 39//39 42//41 80//77 75//83
f 75//83 80//77 37//37 36//36
f 42//41 41//11 83//80 79//76
f 79//76 83//80 85//82 76//73
f 57//54 85//82 84//81 55//52
f 55//52 84//81 45//44 44//43
f 35//35 38//38 60//57 68//65
f 68//65 60//57 50//47 49//46
f 69//67 74//84 36//36 35//35
f 43//42 46//45 72//70 65//63
f 65//63 72//70 48//72 47//60
f 52//49 51//48 53//50 66//64
f 66//64 53//50 44//43 43//42
f 76//73 61//58 58//55 77//74
f 77//74 58//55 38//38 37//37
f 61//58 76//73 85//82 57//54
usemtl material_3.001
f 91//85 92//86 93//87 94//88
f 96//89 97//90 94//88 93//87
f 91//85 100//91 101//92 92//86
f 103//93 104//94 105//95 106//96
f 97//90 96//89 105//95 104//94
f 101//92 100//91 111//97 112//98
f 86//99 87//100 113//101 114//102
f 114//102 113//101 104//94 103//93
f 111//97 100//91 115//103 116//104
f 116//104 115//103 95//105 117//106
f 88//107 90//108 118//109 119//110
f 119//110 118//109 94//88 97//90
f 97//90 104//94 113//101 119//110
f 119//110 113//101 87//100 88//107
f 89//111 95//105 115//103 120//112
f 120//112 115//103 100//91 91//85
f 91//85 94//88 118//109 120//112
f 120//112 118//109 90//108 89//111
f 107//113 108//114 121//115 122//116
f 122//116 121//115 101//92 112//98
f 106//96 105//95 123//117 124//118
f 124//118 123//117 99//119 98//120
f 102//121 99//119 123//117 125//122
f 125//122 123//117 105//95 96//89
f 96//89 93//87 126//123 125//122
f 125//122 126//123 110//124 102//121
f 109//125 110//124 126//123 127//126
f 127//126 126//123 93//87 92//86
f 92//86 101//92 121//115 127//126
f 127//126 121//115 108//114 109//125
