# Blender v2.79 (sub 0) OBJ File: ''
# www.blender.org
mtllib 102Main.mtl
o 102
v 0.362993 0.805725 0.376386
v 0.362993 0.805725 0.341734
v 0.362993 0.815725 0.341734
v 0.362993 0.815725 0.376386
v -0.213243 0.815725 0.335734
v 0.356993 0.815725 0.335734
v 0.356993 0.805725 0.335734
v -0.213243 0.805725 0.335734
v -0.219243 0.805725 0.376386
v -0.219243 0.815725 0.376386
v -0.219243 0.815725 0.341734
v -0.219243 0.805725 0.341734
v -0.213243 0.821725 0.341734
v 0.356993 0.821725 0.341734
v 0.356993 0.819965 0.337492
v -0.213243 0.819965 0.337492
v 0.360893 0.819615 0.337835
v 0.361236 0.815725 0.337492
v 0.361236 0.819965 0.341734
v 0.361236 0.819965 0.376386
v 0.356993 0.819965 0.380629
v 0.356993 0.815725 0.382386
v 0.356993 0.821725 0.376386
v -0.213243 0.815725 0.382386
v -0.213243 0.819965 0.380629
v -0.217486 0.819965 0.376386
v -0.213243 0.821725 0.376386
v -0.213243 0.805725 0.382386
v -0.217486 0.819965 0.341734
v -0.217143 0.819615 0.337835
v -0.217486 0.815725 0.337492
v 0.356993 0.805725 0.382386
v 0.361236 0.805725 0.337492
v -0.217486 0.805725 0.337492
v 0.366636 -1.173615 0.314073
v -0.222886 -1.173615 0.314073
v -0.222886 -1.173615 -0.249077
v 0.366636 -1.173615 -0.249077
v -0.225886 -1.170615 0.314073
v -0.225886 0.823385 0.314074
v -0.225886 0.823385 -0.249076
v -0.225886 -1.170614 -0.249077
v 0.366636 0.826385 0.314074
v 0.366636 0.826385 -0.249076
v -0.222886 0.826385 -0.249076
v -0.222886 0.826385 0.314074
v 0.369636 -1.170615 0.314073
v 0.369636 -1.170614 -0.249077
v 0.369636 0.823385 -0.249076
v 0.369636 0.823385 0.314074
v 0.368757 0.825505 -0.249076
v 0.368586 0.825335 -0.251026
v 0.366636 0.825505 -0.251198
v 0.368757 0.823385 -0.251198
v 0.366636 0.823385 -0.252076
v 0.366636 -1.172736 -0.251198
v 0.368586 -1.172565 -0.251027
v 0.368757 -1.172736 -0.249077
v 0.366636 -1.170614 -0.252077
v 0.368757 -1.170614 -0.251198
v 0.366636 0.823385 0.317074
v 0.368757 0.823385 0.316195
v 0.368586 0.825335 0.316024
v 0.366636 0.825505 0.316195
v 0.368757 0.825505 0.314074
v 0.368757 -1.172737 0.314073
v 0.368586 -1.172565 0.316023
v 0.366636 -1.172737 0.316194
v -0.225007 0.825505 0.314074
v -0.224836 0.825335 0.316024
v -0.222886 0.825505 0.316195
v -0.225007 0.823385 0.316195
v -0.222886 0.823385 0.317074
v -0.222886 -1.170614 -0.252077
v -0.222886 -1.172736 -0.251198
v -0.224836 -1.172565 -0.251027
v -0.225007 -1.170614 -0.251198
v -0.225007 -1.172736 -0.249077
v -0.225007 0.825505 -0.249076
v -0.224836 0.825335 -0.251026
v -0.225007 0.823385 -0.251198
v -0.222886 0.825505 -0.251198
v -0.222886 0.823385 -0.252076
v -0.225007 -1.172737 0.314073
v -0.222886 -1.172737 0.316194
v -0.208200 0.805615 0.329488
v 0.351982 0.805605 0.329488
v 0.351183 0.803315 0.326411
v -0.207433 0.803315 0.326411
v 0.351950 0.805615 0.323334
v -0.208232 0.805605 0.323334
v -0.209458 0.808995 0.332539
v 0.353139 0.809025 0.332539
v -0.209850 0.810125 0.317268
v -0.209389 0.809025 0.320283
v 0.353208 0.808995 0.320283
v 0.353600 0.810125 0.317268
v -0.209850 0.810125 0.335555
v 0.353600 0.810125 0.335555
v -0.212872 0.806925 0.317268
v -0.212652 0.806295 0.318961
v -0.211578 0.808075 0.320024
v -0.211987 0.809185 0.317268
v -0.211701 0.808035 0.332795
v -0.211987 0.809185 0.335555
v -0.213004 0.806165 0.333862
v -0.212872 0.806925 0.335555
v -0.211878 0.802945 0.321850
v -0.210497 0.799615 0.326411
v -0.209482 0.801895 0.326411
v -0.210509 0.804655 0.323080
v -0.211682 0.803015 0.330972
v -0.210442 0.804675 0.329743
v 0.356622 0.806925 0.335555
v 0.356403 0.806295 0.333862
v 0.355328 0.808075 0.332799
v 0.355737 0.809185 0.335555
v 0.355451 0.808035 0.320026
v 0.355737 0.809185 0.317268
v 0.356753 0.806175 0.318960
v 0.356622 0.806925 0.317268
v 0.355432 0.803015 0.321850
v 0.354193 0.804675 0.323079
v 0.353232 0.801895 0.326411
v 0.354247 0.799615 0.326411
v 0.355628 0.802945 0.330973
v 0.354259 0.804655 0.329743
vn 0.9239 0.0000 0.3827
vn 0.9808 0.0000 -0.1951
vn 0.9738 0.1607 -0.1608
vn 0.9148 0.1763 0.3633
vn -0.1611 0.1612 -0.9737
vn 0.1611 0.1612 -0.9737
vn 0.1951 0.0000 -0.9808
vn -0.1951 0.0000 -0.9808
vn -0.9239 0.0000 0.3827
vn -0.9148 0.1763 0.3633
vn -0.9737 0.1611 -0.1610
vn -0.9808 0.0000 -0.1951
vn -0.1611 0.9737 -0.1611
vn 0.1613 0.9736 -0.1614
vn 0.1394 0.7002 -0.7002
vn -0.1394 0.7002 -0.7002
vn 0.5774 0.5773 -0.5774
vn 0.7002 0.1393 -0.7002
vn 0.7003 0.7001 -0.1394
vn 0.7024 0.6440 0.3032
vn 0.3030 0.6445 0.7020
vn 0.3633 0.1763 0.9148
vn 0.1879 0.9640 0.1879
vn -0.3633 0.1763 0.9148
vn -0.3032 0.6440 0.7024
vn -0.7024 0.6440 0.3032
vn -0.1879 0.9640 0.1879
vn -0.3827 0.0000 0.9239
vn -0.7003 0.7001 -0.1394
vn -0.5776 0.5769 -0.5776
vn -0.7002 0.1393 -0.7002
vn 0.3827 0.0000 0.9239
vn 0.7072 0.0000 -0.7071
vn -0.7072 0.0000 -0.7071
vn 0.1609 -0.9738 0.1609
vn -0.1320 -0.9824 0.1319
vn -0.1609 -0.9737 -0.1610
vn 0.1609 -0.9737 -0.1610
vn -0.9808 -0.1951 -0.0000
vn -0.9734 0.2147 0.0801
vn -0.9737 -0.1610 -0.1610
vn 0.1611 0.9737 0.1611
vn 0.1611 0.9737 -0.1610
vn -0.1608 0.9738 -0.1609
vn -0.1607 0.9738 0.1607
vn 0.9808 -0.1951 -0.0000
vn 0.9737 -0.1610 -0.1610
vn 0.9737 0.1611 -0.1610
vn 0.9734 0.2147 0.0801
vn 0.7003 0.7002 -0.1390
vn 0.5774 0.5775 -0.5772
vn 0.1391 0.7001 -0.7004
vn 0.7002 0.1392 -0.7003
vn 0.1609 0.1610 -0.9738
vn 0.1391 -0.7002 -0.7002
vn 0.5773 -0.5773 -0.5774
vn 0.7002 -0.7003 -0.1391
vn 0.1609 -0.1610 -0.9737
vn 0.7002 -0.1391 -0.7003
vn 0.1208 0.3239 0.9384
vn 0.6773 0.2874 0.6773
vn 0.5773 0.5775 0.5773
vn 0.1391 0.7002 0.7003
vn 0.7003 0.7002 0.1391
vn 0.5715 -0.8157 0.0899
vn 0.2516 -0.9346 0.2516
vn 0.1252 -0.9387 0.3213
vn -0.7003 0.7002 0.1391
vn -0.5773 0.5775 0.5773
vn -0.1391 0.7002 0.7003
vn -0.6773 0.2874 0.6773
vn -0.1208 0.3239 0.9384
vn -0.1609 -0.1610 -0.9737
vn -0.1391 -0.7002 -0.7002
vn -0.5774 -0.5773 -0.5774
vn -0.7002 -0.1391 -0.7003
vn -0.7002 -0.7003 -0.1391
vn -0.7003 0.7002 -0.1390
vn -0.5773 0.5775 -0.5772
vn -0.7002 0.1392 -0.7003
vn -0.1391 0.7001 -0.7004
vn -0.1609 0.1610 -0.9738
vn -0.7071 -0.7071 -0.0000
vn 0.0000 -0.9240 0.3825
vn -0.1844 0.6860 -0.7038
vn 0.1862 0.6858 -0.7036
vn 0.2617 0.9651 -0.0006
vn -0.2617 0.9652 0.0006
vn 0.1844 0.6860 0.7038
vn -0.1861 0.6858 0.7036
vn -0.1899 0.7964 -0.5741
vn 0.1879 0.7971 -0.5738
vn -0.2071 0.9054 0.3707
vn -0.1879 0.7972 0.5738
vn 0.1899 0.7965 0.5741
vn 0.2037 0.9068 0.3691
vn -0.2037 0.9068 -0.3690
vn 0.2071 0.9054 -0.3707
vn -0.8927 0.3624 0.2679
vn -0.8664 0.3012 0.3982
vn -0.6391 0.5603 0.5268
vn -0.6536 0.6700 0.3521
vn -0.6399 0.5618 -0.5242
vn -0.6391 0.6982 -0.3226
vn -0.8602 0.3151 -0.4010
vn -0.8858 0.4147 -0.2081
vn -0.8136 0.2800 0.5095
vn -0.9285 0.3708 0.0201
vn -0.8144 0.5802 0.0099
vn -0.6234 0.4641 0.6293
vn -0.8101 0.2613 -0.5248
vn -0.6184 0.4572 -0.6391
vn 0.8926 0.3626 -0.2678
vn 0.8665 0.3015 -0.3977
vn 0.6391 0.5603 -0.5269
vn 0.6535 0.6701 -0.3520
vn 0.6398 0.5619 0.5243
vn 0.6391 0.6981 0.3228
vn 0.8601 0.3158 0.4006
vn 0.8852 0.4160 0.2084
vn 0.8101 0.2618 0.5246
vn 0.6184 0.4576 0.6389
vn 0.8145 0.5801 -0.0099
vn 0.9286 0.3707 -0.0201
vn 0.8136 0.2800 -0.5096
vn 0.6235 0.4640 -0.6293
usemtl material_2.005
s 1
f 1//1 2//2 3//3 4//4
f 5//5 6//6 7//7 8//8
f 9//9 10//10 11//11 12//12
f 13//13 14//14 15//15 16//16
f 6//6 15//15 17//17 18//18
f 14//14 19//19 17//17 15//15
f 3//3 18//18 17//17 19//19
f 4//4 20//20 21//21 22//22
f 23//23 21//21 20//20
f 24//24 25//25 26//26 10//10
f 27//27 26//26 25//25
f 9//9 28//28 24//24 10//10
f 11//11 29//29 30//30 31//31
f 13//13 16//16 30//30 29//29
f 5//5 31//31 30//30 16//16
f 16//16 15//15 6//6 5//5
f 24//24 22//22 21//21 25//25
f 4//4 3//3 19//19 20//20
f 20//20 19//19 14//14 23//23
f 27//27 13//13 29//29 26//26
f 26//26 29//29 11//11 10//10
f 25//25 21//21 23//23 27//27
f 27//27 23//23 14//14 13//13
f 32//32 1//1 4//4 22//22
f 3//3 2//2 33//33 18//18
f 18//18 33//33 7//7 6//6
f 5//5 8//8 34//34 31//31
f 31//31 34//34 12//12 11//11
f 28//28 32//32 22//22 24//24
f 35//35 36//36 37//37 38//38
f 39//39 40//40 41//11 42//41
f 43//42 44//43 45//44 46//45
f 47//46 48//47 49//48 50//49
f 44//43 51//50 52//51 53//52
f 49//48 54//53 52//51 51//50
f 55//54 53//52 52//51 54//53
f 38//38 56//55 57//56 58//57
f 59//58 60//59 57//56 56//55
f 48//47 58//57 57//56 60//59
f 61//60 62//61 63//62 64//63
f 50//49 65//64 63//62 62//61
f 43//42 64//63 63//62 65//64
f 35//35 66//65 67//66 68//67
f 46//45 69//68 70//69 71//70
f 40//40 72//71 70//69 69//68
f 73//72 71//70 70//69 72//71
f 74//73 75//74 76//75 77//76
f 37//37 78//77 76//75 75//74
f 42//41 77//76 76//75 78//77
f 41//11 79//78 80//79 81//80
f 45//44 82//81 80//79 79//78
f 83//82 81//80 80//79 82//81
f 59//58 55//54 54//53 60//59
f 60//59 54//53 49//48 48//47
f 46//45 45//44 79//78 69//68
f 69//68 79//78 41//11 40//40
f 39//39 42//41 78//77 84//83
f 84//83 78//77 37//37 36//36
f 42//41 41//11 81//80 77//76
f 77//76 81//80 83//82 74//73
f 55//54 83//82 82//81 53//52
f 53//52 82//81 45//44 44//43
f 35//35 38//38 58//57 66//65
f 66//65 58//57 48//47 47//46
f 68//67 85//84 36//36 35//35
f 43//42 46//45 71//70 64//63
f 64//63 71//70 73//72 61//60
f 50//49 49//48 51//50 65//64
f 65//64 51//50 44//43 43//42
f 74//73 59//58 56//55 75//74
f 75//74 56//55 38//38 37//37
f 59//58 74//73 83//82 55//54
usemtl material_3.001
f 86//85 87//86 88//87 89//88
f 90//89 91//90 89//88 88//87
f 86//85 92//91 93//92 87//86
f 94//93 95//94 96//95 97//96
f 91//90 90//89 96//95 95//94
f 93//92 92//91 98//97 99//98
f 100//99 101//100 102//101 103//102
f 103//102 102//101 95//94 94//93
f 98//97 92//91 104//103 105//104
f 105//104 104//103 106//105 107//106
f 108//107 109//108 110//109 111//110
f 111//110 110//109 89//88 91//90
f 91//90 95//94 102//101 111//110
f 111//110 102//101 101//100 108//107
f 112//111 106//105 104//103 113//112
f 113//112 104//103 92//91 86//85
f 86//85 89//88 110//109 113//112
f 113//112 110//109 109//108 112//111
f 114//113 115//114 116//115 117//116
f 117//116 116//115 93//92 99//98
f 97//96 96//95 118//117 119//118
f 119//118 118//117 120//119 121//120
f 122//121 120//119 118//117 123//122
f 123//122 118//117 96//95 90//89
f 90//89 88//87 124//123 123//122
f 123//122 124//123 125//124 122//121
f 126//125 125//124 124//123 127//126
f 127//126 124//123 88//87 87//86
f 87//86 93//92 116//115 127//126
f 127//126 116//115 115//114 126//125
